<svg width="19" height="18" viewBox="0 0 19 18" fill="none" xmlns="http://www.w3.org/2000/svg">
<mask id="mask0_54_1434" style="mask-type:luminance" maskUnits="userSpaceOnUse" x="0" y="0" width="19" height="18">
<path d="M0.792729 8.93893C0.794414 11.0659 1.55406 13.1226 2.93536 14.7398C4.31666 16.3571 6.22916 17.4288 8.32938 17.7627V11.5342H6.0648V8.93893H8.32938V6.96892C8.27003 6.5043 8.31497 6.0323 8.46105 5.58727C8.60712 5.14225 8.85066 4.73542 9.1738 4.3964C9.49694 4.05738 9.89159 3.79472 10.3291 3.62753C10.7665 3.46034 11.2357 3.39285 11.7026 3.42996C12.3744 3.43949 13.0446 3.49863 13.7076 3.6069V5.80106H12.5282C12.3361 5.77741 12.1411 5.79704 11.9576 5.85852C11.7741 5.92 11.6066 6.02176 11.4675 6.15636C11.3284 6.29096 11.2212 6.45497 11.1537 6.6364C11.0862 6.81782 11.0601 7.01205 11.0774 7.20485V8.93893H13.5543L13.2122 11.5342H11.1247V17.7745C12.8129 17.5084 14.3895 16.7639 15.6677 15.6291C16.9459 14.4943 17.8721 13.0168 18.3366 11.3718C18.801 9.72667 18.7843 7.98289 18.2883 6.34703C17.7924 4.71116 16.838 3.25176 15.5383 2.14173C14.2385 1.0317 12.6479 0.317561 10.9548 0.0839196C9.26176 -0.149722 7.53719 0.10693 5.98547 0.823462C4.43375 1.53999 3.11991 2.68638 2.19958 4.1268C1.27925 5.56722 0.791018 7.24131 0.792729 8.95073" fill="white"/>
</mask>
<g mask="url(#mask0_54_1434)">
<path d="M9.73317 -8.93945L-8.08093 8.87784L9.73313 26.6951L27.5472 8.8778L9.73317 -8.93945Z" fill="#0066C7"/>
</g>
</svg>
