<svg width="19" height="19" viewBox="0 0 19 19" fill="none" xmlns="http://www.w3.org/2000/svg">
<mask id="mask0_54_1425" style="mask-type:luminance" maskUnits="userSpaceOnUse" x="0" y="0" width="19" height="19">
<path d="M0.792732 9.64393C0.792732 11.4124 1.31707 13.1412 2.29943 14.6117C3.28179 16.0822 4.67805 17.2283 6.31165 17.9051C7.94525 18.5818 9.74281 18.7589 11.477 18.4139C13.2113 18.0689 14.8043 17.2172 16.0546 15.9667C17.3049 14.7162 18.1563 13.1229 18.5013 11.3884C18.8462 9.65385 18.6692 7.85596 17.9925 6.22206C17.3159 4.58817 16.17 3.19165 14.6998 2.20911C13.2296 1.22658 11.5011 0.702156 9.73292 0.702156C8.55845 0.700603 7.39522 0.930827 6.30985 1.37964C5.22448 1.82846 4.2383 2.48705 3.40782 3.31768C2.57734 4.14831 1.91887 5.13465 1.47013 6.22022C1.0214 7.30579 0.79118 8.46924 0.792732 9.64393Z" fill="white"/>
</mask>
<g mask="url(#mask0_54_1425)">
<path d="M9.72063 -8.22981L-8.15186 9.64587L9.72058 27.5215L27.5931 9.64583L9.72063 -8.22981Z" fill="url(#paint0_linear_54_1425)"/>
</g>
<path d="M12.5049 6.25885C12.3422 6.25885 12.1862 6.32348 12.0712 6.43852C11.9562 6.55356 11.8916 6.70958 11.8916 6.87227C11.8916 7.03496 11.9562 7.19098 12.0712 7.30602C12.1862 7.42106 12.3422 7.48569 12.5049 7.48569C12.6675 7.48569 12.8236 7.42106 12.9386 7.30602C13.0536 7.19098 13.1182 7.03496 13.1182 6.87227C13.1152 6.71053 13.0496 6.55625 12.9352 6.44186C12.8208 6.32747 12.6666 6.26187 12.5049 6.25885Z" fill="white"/>
<path d="M9.76836 7.04916C9.2575 7.04916 8.75814 7.20068 8.33337 7.48455C7.9086 7.76843 7.57755 8.1719 7.38205 8.64397C7.18655 9.11603 7.13539 9.63547 7.23505 10.1366C7.33472 10.6377 7.58073 11.0981 7.94197 11.4594C8.30321 11.8207 8.7634 12.0667 9.26445 12.1664C9.7655 12.2661 10.2848 12.2149 10.7568 12.0194C11.2288 11.8239 11.6322 11.4927 11.916 11.0679C12.1999 10.643 12.3513 10.1436 12.3513 9.63261C12.3482 8.94839 12.0751 8.29308 11.5914 7.80927C11.1076 7.32545 10.4525 7.05227 9.76836 7.04916ZM9.76836 11.2841C9.44178 11.2841 9.12257 11.1873 8.85103 11.0058C8.57949 10.8243 8.36786 10.5664 8.24288 10.2646C8.1179 9.96284 8.08522 9.63077 8.14893 9.31041C8.21265 8.99005 8.36987 8.69578 8.6008 8.46481C8.83173 8.23384 9.12592 8.07655 9.44622 8.01283C9.76653 7.9491 10.0985 7.9818 10.4003 8.1068C10.702 8.2318 10.9599 8.44349 11.1413 8.71508C11.3227 8.98667 11.4196 9.30597 11.4196 9.63261C11.4196 10.0706 11.2457 10.4907 10.936 10.8004C10.6263 11.1101 10.2063 11.2841 9.76836 11.2841Z" fill="white"/>
<path d="M11.8208 14.8694H7.63371C6.79947 14.8662 6.00028 14.5334 5.41038 13.9434C4.82048 13.3534 4.48773 12.5541 4.48462 11.7197V7.52011C4.48774 6.68681 4.82093 5.8887 5.41117 5.30057C6.0014 4.71244 6.80055 4.38223 7.63371 4.38223H11.8208C12.6539 4.38223 13.4531 4.71244 14.0433 5.30057C14.6336 5.8887 14.9668 6.68681 14.9699 7.52011V11.7079C14.9668 12.5423 14.6339 13.3416 14.044 13.9316C13.4541 14.5216 12.655 14.8544 11.8208 14.8576M7.63371 5.36134C7.06127 5.36134 6.51228 5.58878 6.1075 5.99363C5.70273 6.39848 5.47538 6.94757 5.47538 7.52011V11.7079C5.47538 12.2804 5.70273 12.8295 6.1075 13.2344C6.51228 13.6392 7.06127 13.8666 7.63371 13.8666H11.8208C12.3932 13.8666 12.9422 13.6392 13.347 13.2344C13.7518 12.8295 13.9791 12.2804 13.9791 11.7079V7.52011C13.9791 6.94757 13.7518 6.39848 13.347 5.99363C12.9422 5.58878 12.3932 5.36134 11.8208 5.36134H7.63371Z" fill="white"/>
<defs>
<linearGradient id="paint0_linear_54_1425" x1="19.6795" y1="-2.84227" x2="6.99952" y2="9.83544" gradientUnits="userSpaceOnUse">
<stop stop-color="#FFE080"/>
<stop offset="0.21" stop-color="#FCB720"/>
<stop offset="0.38" stop-color="#EE4971"/>
<stop offset="0.52" stop-color="#EC248F"/>
<stop offset="0.74" stop-color="#884A9C"/>
<stop offset="1" stop-color="#5858A6"/>
</linearGradient>
</defs>
</svg>
