<svg width="19" height="19" viewBox="0 0 19 19" fill="none" xmlns="http://www.w3.org/2000/svg">
<mask id="mask0_54_1440" style="mask-type:luminance" maskUnits="userSpaceOnUse" x="0" y="0" width="19" height="19">
<path d="M0.792732 9.54453C0.792734 11.3135 1.31734 13.0428 2.30022 14.5135C3.2831 15.9843 4.68002 17.1303 6.31431 17.8068C7.9486 18.4832 9.74681 18.6596 11.4814 18.3136C13.2159 17.9676 14.8088 17.1148 16.0587 15.8631C17.3085 14.6114 18.1591 13.0171 18.5027 11.2817C18.8463 9.54643 18.6676 7.74817 17.9891 6.11448C17.3106 4.48079 16.163 3.0851 14.6912 2.10398C13.2194 1.12287 11.4897 0.600427 9.72105 0.60276C8.54756 0.602759 7.38558 0.83413 6.30157 1.28364C5.21756 1.73315 4.2328 2.39198 3.40357 3.22246C2.57434 4.05293 1.91691 5.03876 1.46891 6.12356C1.02091 7.20835 0.791182 8.37084 0.792732 9.54453Z" fill="white"/>
</mask>
<g mask="url(#mask0_54_1440)">
<path d="M9.7251 -8.32912L-8.14734 9.54651L9.7251 27.4221L27.5975 9.54651L9.7251 -8.32912Z" fill="#0066C7"/>
</g>
<path d="M5.98229 7.88115H7.71611V13.4373H5.98229V7.88115ZM6.84326 5.12076C7.04204 5.12077 7.23634 5.17989 7.40146 5.2906C7.56657 5.40131 7.69509 5.55861 7.77061 5.74252C7.84613 5.92643 7.86525 6.12864 7.82561 6.32346C7.78596 6.51828 7.68927 6.69692 7.54788 6.83667C7.40649 6.97641 7.22683 7.07097 7.03158 7.10832C6.83634 7.14567 6.63441 7.12412 6.45144 7.04642C6.26847 6.96871 6.11269 6.83836 6.00396 6.67192C5.89524 6.50548 5.83843 6.31047 5.84077 6.11167C5.84387 5.84778 5.95083 5.59576 6.13851 5.41026C6.32618 5.22476 6.57941 5.12074 6.84326 5.12076Z" fill="white"/>
<path d="M8.78924 7.88257H10.4522V8.60216C10.6177 8.31731 10.8579 8.08318 11.1469 7.92514C11.4359 7.7671 11.7626 7.69119 12.0917 7.70562C13.8372 7.70562 14.1557 8.88527 14.1557 10.3598V13.4387H12.4337V10.7373C12.4337 10.0885 12.4337 9.26276 11.5374 9.26276C10.641 9.26276 10.4994 9.95876 10.4994 10.6901V13.4387H8.76562L8.78924 7.88257Z" fill="white"/>
</svg>
