<svg width="27" height="27" viewBox="0 0 27 27" fill="none" xmlns="http://www.w3.org/2000/svg">
<g id="fi_733585" clip-path="url(#clip0_244_1060)">
<path id="Vector" d="M13.5034 0H13.4966C6.05306 0 0 6.05475 0 13.5C0 16.4531 0.95175 19.1903 2.57006 21.4127L0.887625 26.4279L6.07669 24.7691C8.21138 26.1833 10.7578 27 13.5034 27C20.9469 27 27 20.9436 27 13.5C27 6.05644 20.9469 0 13.5034 0Z" fill="#4CAF50"/>
<path id="Vector_2" d="M21.3587 19.063C21.033 19.9826 19.7404 20.7454 18.7093 20.9681C18.0039 21.1183 17.0826 21.2381 13.9809 19.9523C10.0136 18.3086 7.45874 14.2772 7.25962 14.0156C7.06893 13.7541 5.65649 11.881 5.65649 9.9437C5.65649 8.00645 6.64031 7.06314 7.03687 6.65814C7.36256 6.3257 7.90087 6.17383 8.41724 6.17383C8.58431 6.17383 8.73449 6.18227 8.86949 6.18902C9.26606 6.20589 9.46518 6.22952 9.72674 6.85558C10.0524 7.64027 10.8456 9.57752 10.9401 9.77664C11.0362 9.97577 11.1324 10.2458 10.9974 10.5073C10.8709 10.7773 10.7595 10.8971 10.5604 11.1266C10.3612 11.3561 10.1722 11.5316 9.97312 11.778C9.79087 11.9923 9.58499 12.2218 9.81449 12.6184C10.044 13.0065 10.8371 14.3008 12.0049 15.3403C13.5118 16.6819 14.7336 17.1105 15.1706 17.2928C15.4963 17.4278 15.8844 17.3957 16.1224 17.1426C16.4244 16.8169 16.7974 16.2769 17.1771 15.7453C17.4471 15.364 17.7879 15.3167 18.1457 15.4517C18.5102 15.5783 20.439 16.5317 20.8356 16.7291C21.2321 16.9283 21.4937 17.0228 21.5899 17.1898C21.6844 17.3569 21.6844 18.1416 21.3587 19.063Z" fill="#FAFAFA"/>
</g>
<defs>
<clipPath id="clip0_244_1060">
<rect width="27" height="27" fill="white"/>
</clipPath>
</defs>
</svg>
