<svg width="54" height="64" viewBox="0 0 54 64" fill="none" xmlns="http://www.w3.org/2000/svg">
<path id="Vector" d="M41.4014 49.3105L36.8387 48.1474L32.5109 45.8224V42.6848C33.6025 41.5137 34.3232 39.996 34.4833 38.3164H35.0999C36.6559 38.3164 37.921 37.0563 37.921 35.5094C37.921 34.6025 37.4846 33.7965 36.812 33.284C37.0696 32.085 37.2057 30.7665 37.2057 29.4347C37.2057 28.1467 37.0843 26.8999 36.8427 25.7315C36.2529 22.8594 33.8828 20.7721 30.9455 20.5371C28.0229 20.3034 24.9148 20.9686 22.8343 22.2725C22.6074 22.4146 22.3806 22.4478 22.123 22.3774C21.7614 22.2778 21.3877 22.2287 21.0114 22.2287C18.6853 22.2287 16.7929 24.1115 16.7929 26.4259V33.6478C16.3499 34.1444 16.0776 34.795 16.0776 35.5094C16.0776 37.0576 17.3428 38.3164 18.8988 38.3164H19.5154C19.6755 39.9947 20.3961 41.5137 21.4878 42.6848V45.8224L17.1599 48.1474L12.5972 49.3105C9.80275 50.0236 7.92375 52.4309 7.92375 55.3016V63.2033C7.92375 63.6428 8.28273 64 8.72446 64H45.2729C45.7146 64 46.0736 63.6428 46.0736 63.2033V55.3029C46.0736 52.4322 44.1959 50.0236 41.4014 49.3105ZM26.1893 57.916H27.8081L29.8432 62.4066H24.1555L26.1893 57.916ZM27.7947 56.3227H26.204L25.067 53.6378L27.0007 52.4588L28.9344 53.6378L27.7947 56.3227ZM23.0905 43.99C24.2302 44.6832 25.5687 45.0828 26.9993 45.0828C28.4299 45.0828 29.7685 44.6832 30.9081 43.99V45.9924L26.9993 50.3316L23.0905 45.9937V43.99ZM28.2364 51.3447L31.8837 47.2976L35.276 49.1193L31.522 53.3497L28.2364 51.3447ZM35.0999 36.723H34.518V34.2944H35.0999C35.7724 34.2944 36.3196 34.8388 36.3196 35.5081C36.3196 36.1773 35.7724 36.723 35.0999 36.723ZM17.6791 35.5094C17.6791 34.8402 18.2262 34.2958 18.8988 34.2958H19.4807V36.7243H18.8988C18.2262 36.723 17.6791 36.1786 17.6791 35.5094ZM19.8864 28.8505C19.6355 28.9925 19.4807 29.2568 19.4807 29.5436V32.7024H18.8988C18.7267 32.7024 18.5585 32.7197 18.3944 32.7502V26.4272C18.3944 24.9919 19.5687 23.8234 21.0114 23.8234C21.2449 23.8234 21.4758 23.8539 21.6986 23.915C22.3912 24.1049 23.0799 24.0027 23.6884 23.6216C25.4633 22.5089 28.2631 21.9207 30.8187 22.1265C33.0727 22.3071 34.8223 23.8473 35.2747 26.0515C35.4935 27.1164 35.6043 28.2543 35.6043 29.436C35.6043 30.5686 35.4962 31.6866 35.2934 32.713C35.2293 32.709 35.1639 32.7037 35.0985 32.7037H34.5167V29.1851C34.5167 28.9527 34.4139 28.731 34.2364 28.5796C34.0589 28.4282 33.8227 28.3632 33.5918 28.3977C32.4161 28.5822 31.5847 28.9115 30.78 29.2302C29.6217 29.6883 28.5287 30.1212 26.3347 30.1212C24.1301 30.1212 22.0216 29.6498 20.6924 28.8584C20.4442 28.7124 20.1372 28.7097 19.8864 28.8505ZM21.0821 30.8143C22.5527 31.3945 24.3957 31.7159 26.3347 31.7159C28.8343 31.7159 30.1248 31.2046 31.3712 30.712C31.873 30.5129 32.3561 30.3217 32.9152 30.1703V37.6046C32.9152 40.8511 30.2609 43.4921 26.998 43.4921C23.7351 43.4921 21.0808 40.8511 21.0808 37.6046V30.8143H21.0821ZM22.115 47.2976L25.7622 51.3447L22.4767 53.3497L18.7227 49.1193L22.115 47.2976ZM9.5265 55.3029C9.5265 53.1718 10.9211 51.3846 12.9962 50.8548L17.18 49.7872L21.7213 54.9059C21.8775 55.0825 22.099 55.1754 22.3219 55.1754C22.466 55.1754 22.6101 55.1369 22.7396 55.0586L23.6857 54.481L24.7987 57.1087L22.3993 62.4066H15.6052V58.8548C15.6052 58.4153 15.2462 58.0581 14.8045 58.0581C14.3628 58.0581 14.0038 58.4153 14.0038 58.8548V62.4066H9.5265V55.3029ZM44.4722 62.4066H39.9949V58.8548C39.9949 58.4153 39.6359 58.0581 39.1941 58.0581C38.7524 58.0581 38.3934 58.4153 38.3934 58.8548V62.4066H31.5994L29.2 57.1087L30.3129 54.481L31.2591 55.0586C31.3886 55.1383 31.534 55.1754 31.6768 55.1754C31.8997 55.1754 32.1212 55.0825 32.2773 54.9059L36.8187 49.7872L41.0024 50.8548C43.0776 51.3832 44.4722 53.1718 44.4722 55.3029V62.4066ZM21.7894 11.9821L20.6017 17.8271C20.5389 18.1324 20.6617 18.4458 20.9153 18.629C21.1688 18.8123 21.5065 18.8322 21.78 18.6782L26.9993 15.7477L32.2186 18.6782C32.3414 18.7472 32.4775 18.7804 32.6123 18.7804C32.7778 18.7804 32.9433 18.7286 33.0834 18.6277C33.337 18.4445 33.4597 18.1311 33.397 17.8257L32.2093 11.9807L36.6239 7.94689C36.8547 7.73577 36.9402 7.41046 36.8441 7.11436C36.7466 6.81826 36.4851 6.60448 36.1741 6.56863L30.2195 5.88747L27.728 0.463402C27.5972 0.181909 27.3129 0 26.9993 0C26.6857 0 26.4015 0.181909 26.2707 0.466058L23.7791 5.89012L17.8245 6.57129C17.5136 6.60714 17.252 6.81959 17.1546 7.11701C17.0572 7.41311 17.1439 7.73975 17.3748 7.94954L21.7894 11.9821ZM24.4117 7.42108C24.6906 7.38921 24.9322 7.21394 25.0483 6.96033L26.9993 2.7127L28.9504 6.96033C29.0665 7.21394 29.3081 7.38921 29.587 7.42108L34.2498 7.95486L30.7934 11.1137C30.5865 11.3022 30.4944 11.5851 30.5505 11.8586L31.4806 16.4355L27.393 14.1411C27.2702 14.072 27.1355 14.0388 26.9993 14.0388C26.8632 14.0388 26.7284 14.0734 26.6057 14.1411L22.518 16.4355L23.4482 11.8586C23.5042 11.5851 23.4122 11.3022 23.2053 11.1137L19.7489 7.95486L24.4117 7.42108ZM12.2062 26.9597C12.329 27.0287 12.4651 27.0619 12.5999 27.0619C12.7654 27.0619 12.9309 27.0101 13.071 26.9092C13.3245 26.726 13.4473 26.4126 13.3846 26.1072L12.4478 21.5011L15.9268 18.3237C16.1577 18.1125 16.2431 17.7872 16.147 17.4911C16.0496 17.195 15.7881 16.9812 15.4771 16.9454L10.785 16.409L8.82188 12.1348C8.6911 11.8506 8.40685 11.6687 8.09323 11.6687C7.77962 11.6687 7.49537 11.8506 7.36459 12.1348L5.40151 16.409L0.709352 16.9454C0.39841 16.9812 0.136845 17.1937 0.0394249 17.4911C-0.0579949 17.7872 0.0287489 18.1139 0.25962 18.3237L3.73871 21.5024L2.80187 26.1085C2.73915 26.4139 2.86193 26.7273 3.11549 26.9105C3.36904 27.0938 3.70668 27.1124 3.98025 26.9597L8.09457 24.6493L12.2062 26.9597ZM4.71691 24.7157L5.39618 21.3776C5.45223 21.1041 5.36014 20.8212 5.15329 20.6327L2.63106 18.329L6.03274 17.9399C6.31165 17.9081 6.5532 17.7328 6.66931 17.4792L8.0919 14.3814L9.51449 17.4792C9.6306 17.7328 9.87214 17.9081 10.1511 17.9399L13.5527 18.329L11.0318 20.6327C10.825 20.8212 10.7329 21.1041 10.789 21.3776L11.4682 24.717L8.48692 23.0427C8.36414 22.9736 8.22935 22.9404 8.09323 22.9404C7.95711 22.9404 7.82233 22.9749 7.69955 23.0427L4.71691 24.7157ZM53.9606 17.4898C53.8632 17.1937 53.6016 16.9799 53.2907 16.9441L48.5985 16.4076L46.6354 12.1334C46.5046 11.8493 46.2204 11.6674 45.9068 11.6674C45.5932 11.6674 45.3089 11.8493 45.1781 12.1334L43.215 16.4076L38.5229 16.9441C38.2119 16.9799 37.9504 17.1924 37.853 17.4898C37.7555 17.7859 37.8423 18.1125 38.0732 18.3223L41.5522 21.5011L40.6154 26.1072C40.5527 26.4126 40.6755 26.726 40.929 26.9092C41.1826 27.0924 41.5202 27.111 41.7938 26.9583L45.9081 24.648L50.0224 26.9583C50.1452 27.0274 50.2813 27.0606 50.4161 27.0606C50.5816 27.0606 50.7471 27.0088 50.8872 26.9079C51.1407 26.7246 51.2635 26.4113 51.2008 26.1059L50.264 21.4998L53.7404 18.3237C53.9713 18.1125 54.058 17.7872 53.9606 17.4898ZM48.8454 20.6327C48.6385 20.8212 48.5464 21.1041 48.6025 21.3776L49.2818 24.717L46.3005 23.0427C46.1777 22.9736 46.0429 22.9404 45.9068 22.9404C45.7706 22.9404 45.6359 22.9749 45.5131 23.0427L42.5318 24.717L43.211 21.3776C43.2671 21.1041 43.175 20.8212 42.9682 20.6327L40.4473 18.329L43.8489 17.9399C44.1279 17.9081 44.3694 17.7328 44.4855 17.4792L45.9081 14.3814L47.3307 17.4792C47.4468 17.7328 47.6884 17.9081 47.9673 17.9399L51.3689 18.329L48.8454 20.6327Z" fill="white"/>
</svg>
