<svg width="50" height="50" viewBox="0 0 50 50" fill="none" xmlns="http://www.w3.org/2000/svg">
<path d="M47.7272 27.2725C47.0454 27.2725 46.5909 27.727 46.5909 28.4088V43.1815C46.5909 43.8634 46.1363 44.3179 45.4546 44.3179H4.5454C3.86356 44.3179 3.40907 43.8633 3.40907 43.1815V28.4088C3.40907 27.727 2.95448 27.2725 2.27274 27.2725C1.591 27.2725 1.13641 27.727 1.13641 28.4088V43.1815C1.13641 45.1134 2.61366 46.5906 4.5455 46.5906H45.4546C47.3864 46.5906 48.8637 45.1134 48.8637 43.1815V28.4088C48.8637 27.727 48.4091 27.2725 47.7272 27.2725Z" fill="black"/>
<path d="M46.5909 11.3633H3.40908C1.47725 11.3633 0 12.8405 0 14.7724V22.0451C0 23.6359 1.13633 24.9996 2.61367 25.3405L20.4546 29.3178V32.9541C20.4546 33.6359 20.9092 34.0904 21.5909 34.0904H28.4091C29.0909 34.0904 29.5454 33.6358 29.5454 32.9541V29.3178L47.3863 25.3405C48.8637 24.9996 50 23.6359 50 22.045V14.7723C50 12.8405 48.5228 11.3633 46.5909 11.3633ZM27.2728 31.8178H22.7273V27.2724H27.2728V31.8178ZM47.7272 22.045C47.7272 22.6132 47.3863 23.0678 46.8182 23.1813L29.5454 27.045V26.1359C29.5454 25.4541 29.0908 24.9996 28.4091 24.9996H21.5909C20.9091 24.9996 20.4546 25.4542 20.4546 26.1359V27.045L3.18184 23.1814C2.61367 23.0678 2.27275 22.6133 2.27275 22.0451V14.7724C2.27275 14.0905 2.72734 13.636 3.40908 13.636H46.5909C47.2728 13.636 47.7272 14.0906 47.7272 14.7724V22.045Z" fill="black"/>
<path d="M30.6818 3.40918H19.3182C17.3863 3.40918 15.9091 4.88643 15.9091 6.81826V7.95459C15.9091 8.63643 16.3637 9.09092 17.0454 9.09092C17.7272 9.09092 18.1817 8.63633 18.1817 7.95459V6.81826C18.1817 6.13643 18.6363 5.68193 19.3181 5.68193H30.6817C31.3636 5.68193 31.8181 6.13652 31.8181 6.81826V7.95459C31.8181 8.63643 32.2727 9.09092 32.9544 9.09092C33.6362 9.09092 34.0907 8.63633 34.0907 7.95459V6.81826C34.0909 4.88643 32.6137 3.40918 30.6818 3.40918Z" fill="black"/>
</svg>
