<svg width="25" height="26" viewBox="0 0 25 26" fill="none" xmlns="http://www.w3.org/2000/svg">
<g id="Group">
<g id="Group_2">
<path id="Vector" d="M19.7495 15.4938C19.2374 14.9606 18.6198 14.6756 17.9652 14.6756C17.3159 14.6756 16.6929 14.9554 16.1598 15.4885L14.4916 17.1514C14.3543 17.0775 14.2171 17.0089 14.0851 16.9403C13.8951 16.8453 13.7156 16.7555 13.5625 16.6605C11.9999 15.668 10.5798 14.3747 9.21782 12.7012C8.55794 11.8671 8.1145 11.165 7.79248 10.4523C8.22536 10.0564 8.62657 9.64464 9.01721 9.24872C9.16503 9.1009 9.31284 8.94781 9.46065 8.8C10.5693 7.6914 10.5693 6.2555 9.46065 5.1469L8.01947 3.70572C7.85582 3.54207 7.6869 3.37314 7.52852 3.20421C7.21178 2.87691 6.8792 2.53905 6.53606 2.22231C6.024 1.71552 5.41163 1.44629 4.76758 1.44629C4.12354 1.44629 3.50061 1.71552 2.97271 2.22231C2.96743 2.22759 2.96743 2.22759 2.96215 2.23287L1.16728 4.04358C0.491557 4.7193 0.106187 5.54283 0.0217225 6.49833C-0.104975 8.03982 0.349023 9.47572 0.69744 10.4154C1.55265 12.7223 2.83017 14.8603 4.73591 17.1514C7.04813 19.9124 9.83019 22.0926 13.0082 23.6288C14.2224 24.2042 15.843 24.8852 17.6537 25.0014C17.7646 25.0067 17.8807 25.0119 17.9863 25.0119C19.2058 25.0119 20.2299 24.5738 21.0323 23.7027C21.0376 23.6922 21.0482 23.6869 21.0534 23.6763C21.3279 23.3438 21.6447 23.0429 21.9773 22.7208C22.2043 22.5044 22.4365 22.2774 22.6635 22.0398C23.1862 21.4961 23.4607 20.8626 23.4607 20.2133C23.4607 19.5587 23.1809 18.9305 22.6477 18.4026L19.7495 15.4938ZM21.6394 21.0527C21.6341 21.0527 21.6341 21.0579 21.6394 21.0527C21.4335 21.2744 21.2224 21.475 20.9954 21.6967C20.6522 22.024 20.3038 22.3671 19.9765 22.7525C19.4433 23.3226 18.8151 23.5919 17.9916 23.5919C17.9124 23.5919 17.8279 23.5919 17.7488 23.5866C16.1809 23.4863 14.7239 22.8739 13.6311 22.3513C10.6432 20.9048 8.01948 18.8513 5.83923 16.2487C4.03908 14.079 2.83545 12.073 2.03832 9.91916C1.54737 8.60467 1.36788 7.58054 1.44706 6.61447C1.49986 5.99683 1.73741 5.48476 2.17557 5.0466L3.97573 3.24644C4.2344 3.00361 4.50891 2.87163 4.77814 2.87163C5.11072 2.87163 5.37995 3.07223 5.54888 3.24116C5.55416 3.24644 5.55944 3.25172 5.56472 3.257C5.88674 3.55791 6.19293 3.86937 6.51495 4.20195C6.6786 4.37088 6.84753 4.53981 7.01646 4.71402L8.45764 6.1552C9.01721 6.71478 9.01721 7.23212 8.45764 7.7917C8.30454 7.94479 8.15673 8.09788 8.00364 8.2457C7.5602 8.6997 7.13788 9.12202 6.6786 9.53378C6.66804 9.54434 6.65748 9.54962 6.6522 9.56018C6.1982 10.0142 6.28267 10.4576 6.37769 10.7585C6.38297 10.7744 6.38825 10.7902 6.39353 10.806C6.76834 11.714 7.29625 12.5692 8.09866 13.5881L8.10394 13.5934C9.56096 15.3882 11.0972 16.7872 12.7917 17.8588C13.0082 17.9961 13.2299 18.107 13.4411 18.2125C13.6311 18.3076 13.8106 18.3973 13.9637 18.4923C13.9848 18.5029 14.0059 18.5187 14.027 18.5293C14.2065 18.619 14.3754 18.6613 14.5497 18.6613C14.9878 18.6613 15.2623 18.3867 15.3521 18.297L17.1575 16.4916C17.337 16.3121 17.6221 16.0956 17.9546 16.0956C18.2819 16.0956 18.5512 16.3015 18.7148 16.481C18.7201 16.4863 18.7201 16.4863 18.7254 16.4916L21.6341 19.4003C22.1779 19.9388 22.1779 20.4931 21.6394 21.0527Z" fill="white"/>
<path id="Vector_2" d="M13.4992 5.9499C14.8823 6.18218 16.1387 6.83678 17.1418 7.8398C18.1448 8.84282 18.7941 10.0992 19.0317 11.4823C19.0897 11.8308 19.3906 12.0736 19.7338 12.0736C19.776 12.0736 19.813 12.0683 19.8552 12.063C20.2458 11.9997 20.5045 11.6302 20.4412 11.2395C20.1561 9.56605 19.3642 8.0404 18.1553 6.8315C16.9464 5.6226 15.4208 4.83074 13.7473 4.54567C13.3567 4.48233 12.9924 4.741 12.9238 5.12637C12.8552 5.51174 13.1086 5.88655 13.4992 5.9499Z" fill="white"/>
<path id="Vector_3" d="M24.9651 11.0335C24.4952 8.27785 23.1966 5.7703 21.2011 3.77482C19.2056 1.77934 16.6981 0.4807 13.9424 0.0108651C13.557 -0.0577625 13.1928 0.20619 13.1242 0.59156C13.0608 0.982209 13.3195 1.34646 13.7101 1.41509C16.1702 1.83214 18.4138 2.9988 20.1981 4.77784C21.9824 6.56216 23.1438 8.80575 23.5608 11.2658C23.6189 11.6142 23.9198 11.857 24.2629 11.857C24.3052 11.857 24.3421 11.8518 24.3844 11.8465C24.7697 11.7884 25.0337 11.4189 24.9651 11.0335Z" fill="white"/>
</g>
</g>
</svg>
