<svg width="23" height="23" viewBox="0 0 23 23" fill="none" xmlns="http://www.w3.org/2000/svg">
<path d="M7.79145 22.3484L5.60142 19.7674L2.76294 20.3703C3.22078 17.7464 4.54463 15.3315 5.97427 13.6406C6.9887 14.694 8.3014 15.4583 9.77623 15.7971C8.54519 17.8224 8.07347 20.1072 7.79145 22.3484Z" fill="#AE5CF5"/>
<path d="M15.2085 22.3484L17.3985 19.7674L20.237 20.3703C19.7792 17.7464 18.4551 15.3315 17.0257 13.6406C16.0112 14.694 14.6986 15.4583 13.2238 15.7971C14.4547 17.8224 14.9265 20.1072 15.2085 22.3484Z" fill="#AE5CF5"/>
<path fill-rule="evenodd" clip-rule="evenodd" d="M11.4999 15.9917C15.7251 15.9917 19.1712 12.5458 19.1712 8.32077C19.1712 4.09569 15.7251 0.649414 11.4999 0.649414C7.27483 0.649414 3.82874 4.09569 3.82874 8.32077C3.82874 12.5458 7.27483 15.9917 11.4999 15.9917Z" fill="#FFC91D"/>
<path fill-rule="evenodd" clip-rule="evenodd" d="M11.4998 1.76698C12.1101 1.77816 12.4435 2.49422 12.9896 2.64053C13.5358 2.78724 14.254 2.33025 14.7769 2.64488C15.2996 2.95983 15.2305 3.74691 15.6301 4.14658C16.0299 4.5462 16.8804 4.50982 17.1757 5.04394C17.471 5.57801 17.0175 6.22489 17.164 6.77082C17.3101 7.31716 18.0651 7.71068 18.0538 8.32081C18.0424 8.93089 17.3264 9.26426 17.1801 9.8106C17.0335 10.3569 17.4905 11.0748 17.1757 11.5977C16.8607 12.1206 16.0739 12.0514 15.674 12.4511C15.2744 12.8507 15.311 13.7012 14.7768 13.9967C14.2426 14.2918 13.5959 13.8385 13.0498 13.9848C12.5036 14.1311 12.1101 14.886 11.4998 14.8745C10.8897 14.8634 10.5563 14.1474 10.0102 14.001C9.46407 13.8543 8.74581 14.3117 8.22292 13.9967C7.70016 13.6817 7.76939 12.8947 7.36972 12.495C6.96991 12.0954 6.11941 12.1317 5.82409 11.5976C5.52878 11.0636 5.98226 10.4167 5.83582 9.87075C5.68969 9.32441 4.93468 8.93085 4.94605 8.32076C4.95742 7.71063 5.67342 7.37727 5.81978 6.83097C5.96627 6.28499 5.50928 5.56674 5.82409 5.04389C6.13908 4.52096 6.92594 4.59014 7.32579 4.19051C7.72541 3.79089 7.68889 2.94038 8.22297 2.64488C8.75722 2.34975 9.40392 2.80305 9.95003 2.65679C10.4962 2.51048 10.8897 1.75548 11.4998 1.76698Z" fill="#FFF584"/>
<path d="M9.46448 9.69199C9.46448 9.32511 9.76177 9.02782 10.1286 9.02782C10.4955 9.02782 10.793 9.32511 10.793 9.69199C10.793 9.88695 10.8721 10.0639 11 10.1918C11.1278 10.3198 11.3047 10.3987 11.4998 10.3987C11.695 10.3987 11.8719 10.3197 11.9997 10.1918C12.1276 10.0639 12.2067 9.88695 12.2067 9.69199C12.2067 9.49667 12.1276 9.32008 11.9997 9.19214C11.8719 9.0642 11.695 8.98496 11.4998 8.98496V7.65662C11.6952 7.65662 11.8719 7.57733 11.9997 7.4494C12.1276 7.32182 12.2067 7.14491 12.2067 6.94959C12.2067 6.75459 12.1276 6.57769 11.9997 6.44975C11.8719 6.32177 11.6952 6.24288 11.4998 6.24288C11.3045 6.24288 11.1278 6.32181 11 6.44975C10.8721 6.57769 10.793 6.75459 10.793 6.94959C10.793 7.31643 10.4955 7.61412 10.1286 7.61412C9.76177 7.61412 9.46448 7.31643 9.46448 6.94959C9.46448 6.38776 9.69241 5.87888 10.0607 5.51061C10.4292 5.1423 10.938 4.91418 11.4998 4.91418C12.0617 4.91418 12.5705 5.1423 12.939 5.51061C13.3073 5.87888 13.5352 6.38776 13.5352 6.94959C13.5352 7.47788 13.334 7.95899 13.0039 8.32079C13.334 8.68259 13.5352 9.1637 13.5352 9.69199C13.5352 10.2538 13.3073 10.7627 12.939 11.131C12.5707 11.4992 12.0617 11.7274 11.4998 11.7274C10.938 11.7274 10.429 11.4992 10.0607 11.131C9.69246 10.7627 9.46448 10.2538 9.46448 9.69199Z" fill="#AE5CF5"/>
</svg>
