<svg width="52" height="64" viewBox="0 0 52 64" fill="none" xmlns="http://www.w3.org/2000/svg">
<g id="Group 149">
<g id="Group">
<g id="Group_2">
<path id="Vector" d="M15.6 45.52H13.52C12.9456 45.52 12.48 45.9857 12.48 46.56C12.48 47.1344 12.9456 47.6 13.52 47.6H15.6C16.1743 47.6 16.64 47.1344 16.64 46.56C16.64 45.9857 16.1743 45.52 15.6 45.52Z" fill="white"/>
</g>
</g>
<g id="Group_3">
<g id="Group_4">
<path id="Vector_2" d="M44.7201 45.52H19.76C19.1856 45.52 18.72 45.9857 18.72 46.56C18.72 47.1344 19.1856 47.6 19.76 47.6H44.7201C45.2944 47.6 45.7601 47.1344 45.7601 46.56C45.7601 45.9857 45.2944 45.52 44.7201 45.52Z" fill="white"/>
</g>
</g>
<g id="Group_5">
<g id="Group_6">
<path id="Vector_3" d="M15.6 39.2798H13.52C12.9456 39.2798 12.48 39.7454 12.48 40.3198C12.48 40.8941 12.9456 41.3598 13.52 41.3598H15.6C16.1743 41.3598 16.64 40.8941 16.64 40.3198C16.64 39.7454 16.1743 39.2798 15.6 39.2798Z" fill="white"/>
</g>
</g>
<g id="Group_7">
<g id="Group_8">
<path id="Vector_4" d="M44.7201 39.2798H19.76C19.1856 39.2798 18.72 39.7454 18.72 40.3198C18.72 40.8941 19.1856 41.3598 19.76 41.3598H44.7201C45.2944 41.3598 45.7601 40.8941 45.7601 40.3198C45.7601 39.7454 45.2944 39.2798 44.7201 39.2798Z" fill="white"/>
</g>
</g>
<g id="Group_9">
<g id="Group_10">
<path id="Vector_5" d="M15.6 33.04H13.52C12.9456 33.04 12.48 33.5057 12.48 34.08C12.48 34.6544 12.9456 35.12 13.52 35.12H15.6C16.1743 35.12 16.64 34.6544 16.64 34.08C16.64 33.5057 16.1743 33.04 15.6 33.04Z" fill="white"/>
</g>
</g>
<g id="Group_11">
<g id="Group_12">
<path id="Vector_6" d="M44.7201 33.04H19.76C19.1856 33.04 18.72 33.5057 18.72 34.08C18.72 34.6544 19.1856 35.12 19.76 35.12H44.7201C45.2944 35.12 45.7601 34.6544 45.7601 34.08C45.7601 33.5057 45.2944 33.04 44.7201 33.04Z" fill="white"/>
</g>
</g>
<g id="Group_13">
<g id="Group_14">
<path id="Vector_7" d="M15.6 26.7998H13.52C12.9456 26.7998 12.48 27.2655 12.48 27.8398C12.48 28.4141 12.9456 28.8798 13.52 28.8798H15.6C16.1743 28.8798 16.64 28.4141 16.64 27.8398C16.64 27.2655 16.1743 26.7998 15.6 26.7998Z" fill="white"/>
</g>
</g>
<g id="Group_15">
<g id="Group_16">
<path id="Vector_8" d="M44.7201 26.7998H19.76C19.1856 26.7998 18.72 27.2655 18.72 27.8398C18.72 28.4141 19.1856 28.8798 19.76 28.8798H44.7201C45.2944 28.8798 45.7601 28.4141 45.7601 27.8398C45.7601 27.2655 45.2944 26.7998 44.7201 26.7998Z" fill="white"/>
</g>
</g>
<g id="Group_17">
<g id="Group_18">
<path id="Vector_9" d="M15.6 20.5601H13.52C12.9456 20.5601 12.48 21.0257 12.48 21.6001C12.48 22.1744 12.9456 22.6401 13.52 22.6401H15.6C16.1743 22.6401 16.64 22.1744 16.64 21.6001C16.64 21.0257 16.1743 20.5601 15.6 20.5601Z" fill="white"/>
</g>
</g>
<g id="Group_19">
<g id="Group_20">
<path id="Vector_10" d="M44.7201 20.5601H19.76C19.1856 20.5601 18.72 21.0257 18.72 21.6001C18.72 22.1744 19.1856 22.6401 19.76 22.6401H44.7201C45.2944 22.6401 45.7601 22.1744 45.7601 21.6001C45.7601 21.0257 45.2944 20.5601 44.7201 20.5601Z" fill="white"/>
</g>
</g>
<g id="Group_21">
<g id="Group_22">
<path id="Vector_11" d="M51.9864 16.3343C51.9812 16.2432 51.9634 16.1532 51.9334 16.0671C51.9219 16.0338 51.9136 16.0015 51.899 15.9693C51.8485 15.8562 51.778 15.753 51.691 15.6646L37.131 1.10453C37.0426 1.01756 36.9394 0.947095 36.8263 0.896525C36.794 0.881965 36.7618 0.873645 36.7296 0.862205C36.6426 0.832305 36.552 0.814105 36.4602 0.808125C36.4425 0.811245 36.4228 0.799805 36.3999 0.799805H7.27978C6.70544 0.799805 6.23978 1.26547 6.23978 1.83981V4.95982H1.03976C0.465417 4.95982 -0.000244141 5.42548 -0.000244141 5.99982V62.16C-0.000244141 62.7343 0.465417 63.2 1.03976 63.2H44.7199C45.2942 63.2 45.7599 62.7343 45.7599 62.16V56.96H50.9599C51.5343 56.96 51.9999 56.4943 51.9999 55.92V16.3999C51.9999 16.377 51.9885 16.3572 51.9864 16.3343ZM37.4399 4.35038L48.4493 15.3599H37.4399V4.35038ZM43.6799 61.12H2.07976V7.03982H6.23978V55.92C6.23978 56.4943 6.70544 56.96 7.27978 56.96H43.6799V61.12ZM49.9199 54.88H8.31978V2.87981H35.3599V16.3999C35.3599 16.9742 35.8255 17.4399 36.3999 17.4399H49.9199V54.88Z" fill="white"/>
</g>
</g>
<g id="Group_23">
<g id="Group_24">
<path id="Vector_12" d="M19.76 10.1597H13.52C12.9456 10.1597 12.48 10.6253 12.48 11.1997V17.4397C12.48 18.014 12.9456 18.4797 13.52 18.4797H19.76C20.3343 18.4797 20.8 18.014 20.8 17.4397V11.1997C20.8 10.6253 20.3343 10.1597 19.76 10.1597ZM18.72 16.3997H14.56V12.2397H18.72V16.3997Z" fill="white"/>
</g>
</g>
</g>
</svg>
