<svg width="38" height="38" viewBox="0 0 38 38" fill="none" xmlns="http://www.w3.org/2000/svg">
<g id="Clip path group">
<mask id="mask0_115_5129" style="mask-type:luminance" maskUnits="userSpaceOnUse" x="0" y="0" width="38" height="38">
<g id="clip-path-2">
<path id="Vector" d="M9.39845e-06 18.9351C0.00354304 23.3947 1.59626 27.7069 4.49236 31.0976C7.38845 34.4883 11.3983 36.7354 15.8017 37.4355V24.3764H11.0537V18.9351H15.8017V14.8047C15.6773 13.8306 15.7715 12.8409 16.0778 11.9079C16.384 10.9748 16.8946 10.1219 17.5721 9.41106C18.2497 8.70026 19.0771 8.14953 19.9943 7.799C20.9115 7.44847 21.8953 7.30696 22.8741 7.38476C24.2826 7.40475 25.6878 7.52875 27.078 7.75575V12.3561H24.6051C24.2024 12.3065 23.7936 12.3477 23.4088 12.4766C23.0241 12.6055 22.6729 12.8189 22.3813 13.1011C22.0897 13.3833 21.8649 13.7272 21.7234 14.1075C21.5819 14.4879 21.5272 14.8951 21.5634 15.2994V18.9351H26.7565L26.0393 24.3764H21.6624V37.4603C25.2021 36.9023 28.5077 35.3413 31.1876 32.962C33.8675 30.5828 35.8094 27.4851 36.7833 24.0359C37.7571 20.5867 37.722 16.9307 36.6821 13.5008C35.6423 10.071 33.6413 7.01116 30.9162 4.68382C28.1911 2.35648 24.8561 0.859173 21.3064 0.369309C17.7566 -0.120554 14.1408 0.417553 10.8874 1.91987C7.63394 3.42218 4.87928 5.82575 2.94968 8.8458C1.02008 11.8659 -0.00357833 15.3758 9.39845e-06 18.9599" fill="white"/>
</g>
</mask>
<g mask="url(#mask0_115_5129)">
<g id="Group">
<path id="Vector_2" d="M18.7454 -18.5499L-18.6045 18.8066L18.7453 56.1631L56.0952 18.8066L18.7454 -18.5499Z" fill="#0066C7"/>
</g>
</g>
</g>
</svg>
