<svg width="26" height="24" viewBox="0 0 26 24" fill="none" xmlns="http://www.w3.org/2000/svg">
<path d="M18.4204 0C17.2081 0 16.0494 0.277905 14.9767 0.82605C14.2464 1.19911 13.5756 1.69477 13 2.28285C12.4244 1.69477 11.7536 1.19911 11.0233 0.82605C9.95049 0.277905 8.79186 0 7.57956 0C3.40021 0 0 3.40021 0 7.57962C0 10.5398 1.56338 13.6838 4.64666 16.9243C7.22103 19.6299 10.3729 21.8854 12.5636 23.301L13 23.583L13.4364 23.301C15.6271 21.8854 18.779 19.6299 21.3534 16.9243C24.4367 13.6838 26 10.5398 26 7.57962C26 3.40021 22.5998 0 18.4204 0ZM20.1883 15.8157C17.8875 18.2337 15.085 20.2894 13 21.6652C10.915 20.2893 8.11248 18.2337 5.81178 15.8157C3.02249 12.8843 1.60825 10.1132 1.60825 7.57962C1.60825 4.287 4.287 1.60825 7.57962 1.60825C9.47526 1.60825 11.2166 2.47901 12.3571 3.99719L13 4.85305L13.6429 3.99719C14.7834 2.47901 16.5247 1.60825 18.4204 1.60825C21.713 1.60825 24.3918 4.287 24.3918 7.57962C24.3918 10.1132 22.9775 12.8843 20.1883 15.8157Z" fill="white"/>
</svg>
