<svg width="48" height="48" viewBox="0 0 48 48" fill="none" xmlns="http://www.w3.org/2000/svg">
<path d="M23.9981 17.0166H5.99948C5.61117 17.0166 5.29645 17.3314 5.29645 17.7196C5.29645 18.108 5.61117 18.4227 5.99948 18.4227H23.9982C24.3865 18.4227 24.7012 18.1079 24.7012 17.7196C24.7012 17.3314 24.3865 17.0166 23.9981 17.0166Z" fill="black"/>
<path d="M23.9981 21.957H5.99948C5.61117 21.957 5.29645 22.2718 5.29645 22.6601C5.29645 23.0483 5.61117 23.3631 5.99948 23.3631H23.9982C24.3865 23.3631 24.7012 23.0483 24.7012 22.6601C24.7012 22.2718 24.3865 21.957 23.9981 21.957Z" fill="black"/>
<path d="M23.9981 26.8965H5.99948C5.61117 26.8965 5.29645 27.2113 5.29645 27.5995C5.29645 27.9877 5.61117 28.3026 5.99948 28.3026H23.9982C24.3865 28.3026 24.7012 27.9877 24.7012 27.5995C24.7012 27.2113 24.3865 26.8965 23.9981 26.8965Z" fill="black"/>
<path d="M24.7012 32.5399C24.7012 32.1516 24.3865 31.8369 23.9982 31.8369H5.99948C5.61117 31.8369 5.29645 32.1517 5.29645 32.5399C5.29645 32.9282 5.61117 33.243 5.99948 33.243H23.9982C24.3865 33.243 24.7012 32.9283 24.7012 32.5399Z" fill="black"/>
<path d="M5.99948 39.0771C5.61117 39.0771 5.29645 39.392 5.29645 39.7802C5.29645 40.1684 5.61117 40.4832 5.99948 40.4832H15.0218C15.4101 40.4832 15.7249 40.1684 15.7249 39.7802C15.7249 39.392 15.4101 39.0771 15.0218 39.0771H5.99948Z" fill="black"/>
<path d="M32.1001 8.70511V6.42379C32.1001 5.55472 31.3932 4.84766 30.524 4.84766H16.0895C15.2205 4.84766 14.5135 5.55472 14.5135 6.42379V8.70511C14.5135 9.57418 15.2205 10.2811 16.0895 10.2811H17.3085C17.6968 10.2811 18.0115 9.96634 18.0115 9.57811C18.0115 9.1898 17.6968 8.87508 17.3085 8.87508H16.0895C15.9959 8.87508 15.9197 8.79886 15.9197 8.7052V6.42379C15.9197 6.33013 15.9959 6.25382 16.0895 6.25382H30.524C30.6177 6.25382 30.694 6.33004 30.694 6.42379V8.70511C30.694 8.79877 30.6177 8.87499 30.524 8.87499H20.5954C20.207 8.87499 19.8923 9.1898 19.8923 9.57802C19.8923 9.96634 20.207 10.2811 20.5954 10.2811H30.5241C31.3932 10.2812 32.1001 9.57418 32.1001 8.70511Z" fill="black"/>
<path d="M37.3571 42.8717C36.9688 42.8717 36.6541 43.1865 36.6541 43.5747V44.5215C36.6541 45.6642 35.7244 46.5941 34.5814 46.5941H3.47861C2.33589 46.5941 1.40607 45.6643 1.40607 44.5215V10.7277C1.40607 10.5755 1.42388 10.4263 1.45566 10.281H7.85722C9.19373 10.281 10.281 9.19373 10.281 7.85722V1.45576C10.4263 1.42398 10.5754 1.40616 10.7276 1.40616H34.5813C35.7242 1.40616 36.654 2.33589 36.654 3.4787V12.8389C36.654 13.2272 36.9687 13.542 37.357 13.542C37.7453 13.542 38.0601 13.2272 38.0601 12.8389V3.47861C38.0601 1.56057 36.4996 0 34.5814 0H10.7277C9.79851 0 8.92485 0.361877 8.26785 1.01888L1.01879 8.26794C0.361783 8.92495 0 9.79851 0 10.7278V44.5216C0 46.4397 1.56048 48.0002 3.47861 48.0002H34.5814C36.4996 48.0002 38.0601 46.4397 38.0601 44.5216V43.5748C38.0601 43.1865 37.7454 42.8717 37.3571 42.8717ZM8.87498 2.40039V7.85722C8.87498 8.41841 8.41841 8.87498 7.85722 8.87498H2.40039L8.87498 2.40039Z" fill="black"/>
<path d="M46.9866 25.1253C47.4802 24.4009 47.6078 23.5073 47.337 22.6737C47.0661 21.8401 46.4376 21.1923 45.6126 20.8964C45.0652 20.7001 44.7001 20.1976 44.6826 19.6163C44.6561 18.7402 44.2341 17.9422 43.5249 17.427C42.8159 16.9118 41.9264 16.7572 41.0852 17.0026C40.5267 17.1656 39.9363 16.9736 39.5805 16.5137C39.0441 15.8204 38.2337 15.4229 37.3572 15.4229C36.4807 15.4229 35.6702 15.8204 35.1338 16.5137C34.7779 16.9737 34.1872 17.1654 33.6291 17.0026C32.7879 16.757 31.8985 16.9118 31.1892 17.427C30.4801 17.9422 30.0583 18.7401 30.0317 19.6162C30.0142 20.1975 29.6491 20.6999 29.1017 20.8963C28.2767 21.1922 27.6481 21.8401 27.3773 22.6736C27.1065 23.5072 27.2342 24.4009 27.7277 25.1252C28.0551 25.6058 28.0551 26.2268 27.7277 26.7074C27.2342 27.4318 27.1065 28.3253 27.3773 29.159C27.6481 29.9926 28.2767 30.6404 29.1017 30.9364C29.6491 31.1328 30.0143 31.6352 30.0317 32.2165C30.0562 33.0223 30.4254 33.7796 31.0451 34.2938C31.454 34.6332 31.9451 34.8455 32.4592 34.9165V41.3176C32.4592 41.8577 32.7521 42.3569 33.2236 42.6202C33.6945 42.8834 34.2734 42.8717 34.7337 42.5883L37.3123 41.0009C37.3543 40.9749 37.3793 40.9866 37.4024 41.0009L39.9809 42.5883C40.4409 42.8714 41.0196 42.8836 41.491 42.6201C41.9626 42.3567 42.2554 41.8575 42.2554 41.3175V34.9163C42.7693 34.8454 43.2604 34.6331 43.6693 34.2938C44.2891 33.7796 44.6585 33.0224 44.6829 32.2164C44.7004 31.6351 45.0655 31.1326 45.6128 30.9363C46.4379 30.6404 47.0665 29.9925 47.3373 29.1589C47.6081 28.3253 47.4804 27.4317 46.9869 26.7073C46.6592 26.2269 46.6592 25.6059 46.9866 25.1253ZM40.7178 41.3909L38.1393 39.8035C37.66 39.5085 37.0547 39.508 36.5749 39.8035L33.9964 41.3908C33.9377 41.4265 33.8652 41.3853 33.8652 41.3175V34.783C34.3486 34.727 34.8279 34.9237 35.1338 35.319C35.6703 36.0122 36.4807 36.4098 37.3573 36.4098C38.2337 36.4098 39.0441 36.0122 39.5805 35.319C39.8865 34.9236 40.3658 34.727 40.8491 34.783V41.3175C40.8491 41.3858 40.7757 41.4266 40.7178 41.3909ZM45.8246 27.4993C46.0714 27.8614 46.1351 28.3079 45.9997 28.7245C45.8644 29.1412 45.5502 29.465 45.1378 29.6129C44.0426 30.0057 43.3123 31.011 43.2771 32.174C43.2647 32.5828 43.0849 32.9514 42.7712 33.2118C42.4184 33.5046 41.9406 33.615 41.4792 33.4804C40.3623 33.1545 39.1804 33.5385 38.4683 34.4586C38.2003 34.805 37.7952 35.0038 37.3571 35.0038C36.9191 35.0038 36.514 34.8051 36.2458 34.4586C35.7021 33.7558 34.8845 33.3658 34.0311 33.3658C33.7669 33.3658 33.4991 33.4032 33.2351 33.4803C32.7692 33.6161 32.2929 33.5022 31.9429 33.2117C31.6291 32.9513 31.4494 32.5827 31.4371 32.174C31.4019 31.011 30.6715 30.0057 29.5763 29.6128C29.1639 29.4649 28.8499 29.1412 28.7144 28.7245C28.579 28.3079 28.6428 27.8613 28.8895 27.4992C29.5446 26.5376 29.5446 25.2951 28.8895 24.3335C28.6428 23.9715 28.579 23.5249 28.7144 23.1081C28.8498 22.6915 29.1639 22.3677 29.5763 22.2199C30.6715 21.8269 31.4019 20.8217 31.4371 19.6587C31.4503 19.2208 31.6611 18.822 32.0155 18.5645C32.3698 18.307 32.8142 18.2297 33.2351 18.3524C34.3516 18.6783 35.5338 18.2942 36.2458 17.3742C36.5139 17.0277 36.9189 16.8289 37.3571 16.8289C37.7952 16.8289 38.2002 17.0276 38.4683 17.3741C39.1803 18.2942 40.362 18.6782 41.4791 18.3524C41.8997 18.2296 42.344 18.3069 42.6985 18.5644C43.053 18.8219 43.2639 19.2208 43.277 19.6586C43.3123 20.8216 44.0426 21.8269 45.1378 22.2198C45.5502 22.3676 45.8643 22.6914 45.9997 23.108C46.1351 23.5247 46.0714 23.9714 45.8246 24.3334C45.1694 25.2951 45.1694 26.5377 45.8246 27.4993Z" fill="black"/>
<path d="M37.357 20.0234C34.1078 20.0234 31.4644 22.6668 31.4644 25.916C31.4644 29.1652 34.1078 31.8086 37.357 31.8086C40.6061 31.8086 43.2495 29.1652 43.2495 25.916C43.2495 22.6668 40.6061 20.0234 37.357 20.0234ZM37.357 30.4025C34.8831 30.4025 32.8705 28.3899 32.8705 25.9161C32.8705 23.4423 34.8831 21.4296 37.357 21.4296C39.8309 21.4296 41.8434 23.4422 41.8434 25.9161C41.8434 28.39 39.8308 30.4025 37.357 30.4025Z" fill="black"/>
</svg>
