<svg width="302" height="88" viewBox="0 0 302 88" fill="none" xmlns="http://www.w3.org/2000/svg">
<path d="M201.414 24.8411L198.53 41.1503C198.037 43.9214 196.905 46.0363 195.138 47.5052C193.371 48.9741 191.158 49.7033 188.51 49.7033C186.072 49.7033 184.153 49.1095 182.748 47.9219C181.343 46.7342 180.64 45.0101 180.64 42.7546C180.64 42.1035 180.708 41.3951 180.85 40.6242H187.708C187.64 40.9992 187.603 41.3482 187.603 41.6712C187.603 42.9057 188.175 43.5203 189.323 43.5203C190.539 43.5203 191.315 42.7286 191.64 41.1451L194.524 24.8359H201.414V24.8411Z" fill="white"/>
<path d="M217.547 45.4421H208.76L206.72 49.4582H199.479L212.875 24.8408H220.819L225.459 49.4582H218.182L217.547 45.4421ZM216.74 40.2384L215.508 32.2427L211.428 40.2384H216.74Z" fill="white"/>
<path d="M248.425 37.1134C247.523 38.3375 246.312 39.3115 244.786 40.046C243.26 40.7804 241.493 41.1451 239.48 41.1451H236.072L234.593 49.4533H227.667L232.06 24.8359H242.358C244.959 24.8359 246.941 25.4245 248.299 26.6018C249.657 27.779 250.338 29.3573 250.338 31.3315C250.338 31.8211 250.281 32.3889 250.16 33.04C249.908 34.535 249.326 35.8945 248.425 37.1134ZM243.171 33.0452C243.218 32.7222 243.239 32.4878 243.239 32.3472C243.239 31.7169 243.035 31.2221 242.626 30.8627C242.217 30.5032 241.587 30.3209 240.743 30.3209H238.001L237.052 35.733H239.794C241.739 35.733 242.867 34.8423 243.171 33.0452Z" fill="white"/>
<path d="M264.521 45.4421H255.734L253.694 49.4582H246.453L259.844 24.8408H267.788L272.428 49.4582H265.151L264.521 45.4421ZM263.714 40.2384L262.487 32.2427L258.408 40.2384H263.714Z" fill="white"/>
<path d="M297.632 49.4582H290.706L284.026 35.7014L281.567 49.4582H274.641L279.035 24.8408H285.924L292.636 38.7747L295.095 24.8408H301.984L297.632 49.4582Z" fill="white"/>
<path d="M28.0618 59.7407C31.7583 58.5739 36.451 57.5738 42.3654 56.9696V31.6021L69.6721 0.989258H51.7927L41.3377 13.6313C39.6861 15.6367 38.4277 17.1838 37.5521 18.2777C36.6817 19.3715 36.0158 20.2362 35.5596 20.8717C35.3289 20.554 34.9409 20.0747 34.3904 19.4393C33.8399 18.8038 33.2421 18.1162 32.6025 17.3869C31.9628 16.6577 31.3388 15.9649 30.7463 15.3034C30.1486 14.6418 29.6662 14.1053 29.2992 13.699L18.2937 0.989258H0L28.0618 31.5344V59.7407Z" fill="white"/>
<path d="M108.189 12.8812C110.664 12.8812 112.593 13.324 113.967 14.2147C115.341 15.1002 116.028 16.4337 116.028 18.21C116.028 19.8039 115.273 21.0592 113.757 21.9656C112.242 22.8771 110.386 23.3303 108.184 23.3303H68.1621V49.776C72.556 47.4164 77.3063 45.536 82.3975 44.1296V34.6076H104.267L109.715 41.0354C118.476 41.2282 124.894 42.0199 130.174 43.1399L125.104 37.8163C123.499 36.2224 122.215 34.9723 121.25 34.0607C120.285 33.1491 119.415 32.3991 118.639 31.8052C120.516 31.4406 122.204 30.8155 123.693 29.9248C125.182 29.0393 126.446 27.9558 127.479 26.6797C128.512 25.4035 129.304 23.971 129.854 22.3771C130.405 20.7832 130.677 19.0955 130.677 17.3192C130.677 14.0376 129.933 11.355 128.444 9.25582C126.955 7.16183 125.062 5.49498 122.77 4.26567C120.479 3.03636 117.931 2.1821 115.136 1.70288C112.336 1.22887 109.631 0.989258 107.02 0.989258H77.4479L68.1621 12.8812H108.189Z" fill="white"/>
<path d="M143.539 0.989258L134.321 12.8812H155.918V50.9532C159.83 51.9169 164.412 52.7451 170.154 53.3233V12.8812H186.591L195.809 0.989258H143.539Z" fill="white"/>
<path d="M108.897 43.4477C73.8928 42.8279 59.9091 58.8297 58.9496 58.8088C22.1683 58.0535 16.8307 69.5288 16.8307 69.5288C24.6955 67.065 33.1686 65.8305 40.6769 65.2471C50.3297 64.497 60.0349 64.8147 69.6248 66.1118C84.6939 68.1432 121.695 71.7166 140.235 61.0539C140.235 61.0539 92.91 66.617 73.6883 58.7984C97.6604 46.5366 115.262 51.1621 141.515 58.2307C171.511 66.3045 177.316 56.3034 177.316 56.3034C141.473 54.3969 143.901 44.0676 108.897 43.4477Z" fill="#D60000"/>
<path d="M22.5826 77.6284L20.2022 82.2071V84.4677H18.5244V82.2071L16.144 77.6284H18.0472L19.379 80.4933L20.7003 77.6284H22.5826Z" fill="white"/>
<path d="M25.2829 84.2019C24.853 83.9727 24.5174 83.6498 24.271 83.2279C24.0245 82.8059 23.9039 82.3111 23.9039 81.7485C23.9039 81.1912 24.0298 80.6963 24.2762 80.2744C24.5226 79.8473 24.8634 79.5243 25.2934 79.2951C25.7233 79.0659 26.211 78.9565 26.7458 78.9565C27.2806 78.9565 27.763 79.0711 28.1981 79.2951C28.6281 79.5243 28.9689 79.8473 29.2153 80.2744C29.4618 80.7015 29.5876 81.1912 29.5876 81.7485C29.5876 82.3059 29.4618 82.8007 29.2101 83.2227C28.9584 83.6498 28.6176 83.9727 28.1824 84.2019C27.7472 84.4311 27.2648 84.5405 26.7248 84.5405C26.19 84.5457 25.7128 84.4311 25.2829 84.2019ZM27.548 82.7539C27.7734 82.5195 27.8888 82.1861 27.8888 81.7485C27.8888 81.311 27.7787 80.9776 27.5585 80.7432C27.3383 80.5088 27.0708 80.3942 26.751 80.3942C26.4259 80.3942 26.1533 80.5088 25.9383 80.738C25.7233 80.9672 25.6132 81.3058 25.6132 81.7485C25.6132 82.1861 25.7181 82.5195 25.9331 82.7539C26.148 82.9883 26.4102 83.1028 26.73 83.1028C27.0499 83.1028 27.3225 82.9883 27.548 82.7539Z" fill="white"/>
<path d="M36.8653 79.0293V84.4674H35.1875V83.7277C35.0197 83.9674 34.789 84.1601 34.4953 84.3059C34.207 84.4518 33.8819 84.5247 33.5306 84.5247C33.1111 84.5247 32.7441 84.4309 32.4243 84.2486C32.1044 84.0611 31.858 83.7955 31.6797 83.4465C31.5015 83.0975 31.4123 82.6807 31.4123 82.2067V79.0293H33.0797V81.9828C33.0797 82.3474 33.1741 82.6287 33.3628 82.8318C33.5516 83.035 33.8085 83.1339 34.1283 83.1339C34.4534 83.1339 34.7156 83.035 34.9043 82.8318C35.0931 82.6287 35.1875 82.3474 35.1875 81.9828V79.0293H36.8653Z" fill="white"/>
<path d="M41.4636 79.2326C41.7572 79.0607 42.0823 78.9722 42.4441 78.9722V80.7328H41.9827C41.5632 80.7328 41.2486 80.8213 41.0389 80.9984C40.8292 81.1755 40.7243 81.4881 40.7243 81.936V84.4572H39.0465V79.019H40.7243V79.9254C40.9288 79.6389 41.17 79.4045 41.4636 79.2326Z" fill="white"/>
<path d="M51.8609 79.79C51.7351 79.5608 51.5568 79.3889 51.3261 79.2691C51.0954 79.1493 50.8228 79.0868 50.5082 79.0868C49.9629 79.0868 49.5329 79.2639 49.2026 79.6181C48.8775 79.9723 48.7097 80.4463 48.7097 81.0349C48.7097 81.6652 48.8828 82.1548 49.2236 82.509C49.5644 82.8632 50.0415 83.0403 50.6392 83.0403C51.0535 83.0403 51.3995 82.9362 51.6826 82.7278C51.9658 82.5194 52.1755 82.2225 52.3066 81.8319H50.1778V80.6026H53.8271V82.1496C53.7013 82.5663 53.4916 82.9518 53.1927 83.3112C52.8938 83.6706 52.5163 83.9571 52.0602 84.1759C51.604 84.3947 51.0849 84.5092 50.5134 84.5092C49.8318 84.5092 49.2288 84.3634 48.694 84.0665C48.1592 83.7696 47.745 83.3581 47.4514 82.832C47.1525 82.3059 47.0057 81.7069 47.0057 81.0297C47.0057 80.3525 47.1525 79.7535 47.4514 79.2222C47.7502 78.6909 48.1644 78.2794 48.694 77.9877C49.2236 77.6908 49.8265 77.5449 50.5082 77.5449C51.3313 77.5449 52.0287 77.7429 52.5897 78.1387C53.156 78.5346 53.5283 79.0816 53.7118 79.7848H51.8609V79.79Z" fill="white"/>
<path d="M55.7251 80.2692C55.9401 79.8473 56.2285 79.5243 56.5902 79.2951C56.9573 79.0659 57.3662 78.9565 57.8172 78.9565C58.2052 78.9565 58.5407 79.0347 58.8344 79.191C59.1227 79.3472 59.3482 79.5504 59.5055 79.8056V79.0347H61.1833V84.4728H59.5055V83.7019C59.3429 83.9571 59.1122 84.1603 58.8239 84.3165C58.5355 84.4728 58.1947 84.5509 57.8067 84.5509C57.361 84.5509 56.9573 84.4363 56.5902 84.2071C56.2232 83.9779 55.9348 83.6498 55.7251 83.2227C55.5101 82.7955 55.4053 82.3059 55.4053 81.7485C55.4105 81.1808 55.5154 80.6911 55.7251 80.2692ZM59.1594 80.764C58.9287 80.5244 58.6456 80.4046 58.31 80.4046C57.9745 80.4046 57.6913 80.5244 57.4606 80.7588C57.2299 80.9984 57.1146 81.3214 57.1146 81.7381C57.1146 82.1548 57.2299 82.483 57.4606 82.7278C57.6913 82.9726 57.9745 83.0924 58.31 83.0924C58.6456 83.0924 58.9235 82.9726 59.1594 82.733C59.3901 82.4934 59.5055 82.1652 59.5055 81.7485C59.5055 81.3318 59.3901 81.0036 59.1594 80.764Z" fill="white"/>
<path d="M66.4317 83.0556V84.4672H65.5771C64.9689 84.4672 64.497 84.3214 64.1562 84.0245C63.8154 83.7276 63.6476 83.2484 63.6476 82.5764V80.4147H62.9817V79.0291H63.6476V77.7061H65.3254V79.0291H66.4213V80.4147H65.3254V82.5972C65.3254 82.7587 65.3621 82.8785 65.4408 82.9462C65.5194 83.0192 65.6505 83.0556 65.834 83.0556H66.4317Z" fill="white"/>
<path d="M73.4683 82.1493H69.6722C69.6984 82.4879 69.8085 82.7431 70.0025 82.9254C70.1965 83.1025 70.4325 83.1911 70.7156 83.1911C71.1351 83.1911 71.4234 83.014 71.586 82.665H73.3687C73.2795 83.0244 73.1118 83.3421 72.8758 83.6286C72.6346 83.9151 72.3358 84.1391 71.9792 84.3006C71.6174 84.462 71.219 84.5454 70.7733 84.5454C70.2385 84.5454 69.7613 84.4308 69.3419 84.2068C68.9224 83.9776 68.5973 83.6547 68.3614 83.2327C68.1255 82.8108 68.0101 82.316 68.0101 81.7534C68.0101 81.1908 68.1254 80.696 68.3561 80.2741C68.5869 79.8522 68.9119 79.5292 69.3314 79.3C69.7509 79.0708 70.228 78.9614 70.7733 78.9614C71.3028 78.9614 71.7747 79.0708 72.1837 79.2948C72.5979 79.5136 72.9178 79.8313 73.1485 80.2376C73.3792 80.6491 73.4945 81.1231 73.4945 81.6701C73.4998 81.8159 73.4893 81.9774 73.4683 82.1493ZM71.7852 81.2221C71.7852 80.9356 71.6856 80.7116 71.4916 80.5397C71.2976 80.373 71.0512 80.2845 70.7576 80.2845C70.4744 80.2845 70.2385 80.3678 70.0445 80.5293C69.8505 80.6908 69.7299 80.92 69.6879 81.2221H71.7852Z" fill="white"/>
<path d="M83.2155 79.0293L81.7369 84.4674H79.886L79.0209 80.941L78.1296 84.4674H76.2839L74.7949 79.0293H76.4727L77.2487 82.9151L78.1715 79.0293H79.949L80.8823 82.8943L81.6478 79.0293H83.2155Z" fill="white"/>
<path d="M84.8199 80.2692C85.0349 79.8473 85.3233 79.5243 85.6851 79.2951C86.0521 79.0659 86.4611 78.9565 86.912 78.9565C87.3 78.9565 87.6355 79.0347 87.9292 79.191C88.2175 79.3472 88.443 79.5504 88.6003 79.8056V79.0347H90.2781V84.4728H88.6003V83.7019C88.4378 83.9571 88.2071 84.1603 87.9187 84.3165C87.6303 84.4728 87.2895 84.5509 86.9015 84.5509C86.4558 84.5509 86.0521 84.4363 85.6851 84.2071C85.318 83.9779 85.0297 83.6498 84.8199 83.2227C84.605 82.7955 84.5001 82.3059 84.5001 81.7485C84.5001 81.1808 84.605 80.6911 84.8199 80.2692ZM88.249 80.764C88.0183 80.5244 87.7352 80.4046 87.3996 80.4046C87.064 80.4046 86.7809 80.5244 86.5502 80.7588C86.3195 80.9984 86.2041 81.3214 86.2041 81.7381C86.2041 82.1548 86.3195 82.483 86.5502 82.7278C86.7809 82.9726 87.064 83.0924 87.3996 83.0924C87.7352 83.0924 88.0131 82.9726 88.249 82.733C88.4797 82.4934 88.5951 82.1652 88.5951 81.7485C88.6003 81.3318 88.4849 81.0036 88.249 80.764Z" fill="white"/>
<path d="M98.0643 79.0293L94.6299 87.0458H92.8263L94.0794 84.2799L91.851 79.0293H93.7229L94.9865 82.4307L96.2396 79.0293H98.0643Z" fill="white"/>
<path d="M107.659 77.6284V78.9619H105.835V84.4677H104.157V78.9619H102.332V77.6284H107.659Z" fill="white"/>
<path d="M110.527 84.2019C110.098 83.9727 109.762 83.6498 109.516 83.2279C109.269 82.8059 109.148 82.3111 109.148 81.7485C109.148 81.1912 109.274 80.6963 109.521 80.2744C109.767 79.8473 110.108 79.5243 110.538 79.2951C110.968 79.0659 111.456 78.9565 111.99 78.9565C112.525 78.9565 113.008 79.0711 113.443 79.2951C113.873 79.5243 114.213 79.8473 114.46 80.2744C114.706 80.7015 114.832 81.1912 114.832 81.7485C114.832 82.3059 114.706 82.8007 114.455 83.2227C114.203 83.6498 113.862 83.9727 113.427 84.2019C112.992 84.4311 112.509 84.5405 111.969 84.5405C111.44 84.5457 110.957 84.4311 110.527 84.2019ZM112.793 82.7539C113.018 82.5195 113.133 82.1861 113.133 81.7485C113.133 81.311 113.023 80.9776 112.803 80.7432C112.583 80.5088 112.315 80.3942 111.996 80.3942C111.671 80.3942 111.398 80.5088 111.183 80.738C110.968 80.9672 110.858 81.3058 110.858 81.7485C110.858 82.1861 110.963 82.5195 111.178 82.7539C111.393 82.9883 111.655 83.1028 111.975 83.1028C112.294 83.1028 112.567 82.9883 112.793 82.7539Z" fill="white"/>
<path d="M124.721 77.6284V78.9619H122.896V84.4677H121.218V78.9619H119.394V77.6284H124.721Z" fill="white"/>
<path d="M131.417 79.5919C131.794 80.0034 131.983 80.5712 131.983 81.29V84.4674H130.316V81.514C130.316 81.1494 130.221 80.8681 130.032 80.6649C129.844 80.4618 129.587 80.3628 129.267 80.3628C128.947 80.3628 128.69 80.4618 128.501 80.6649C128.313 80.8681 128.218 81.1494 128.218 81.514V84.4674H126.54V77.2583H128.218V79.7638C128.386 79.5242 128.622 79.3315 128.916 79.1908C129.209 79.0502 129.54 78.9772 129.907 78.9772C130.536 78.972 131.039 79.1804 131.417 79.5919Z" fill="white"/>
<path d="M139.26 82.1493H135.464C135.491 82.4879 135.601 82.7431 135.795 82.9254C135.989 83.1025 136.225 83.1911 136.508 83.1911C136.927 83.1911 137.216 83.014 137.378 82.665H139.161C139.072 83.0244 138.904 83.3421 138.668 83.6286C138.427 83.9151 138.128 84.1391 137.771 84.3006C137.41 84.462 137.011 84.5454 136.565 84.5454C136.031 84.5454 135.554 84.4308 135.134 84.2068C134.715 83.9776 134.39 83.6547 134.154 83.2327C133.918 82.8108 133.802 82.316 133.802 81.7534C133.802 81.1908 133.918 80.696 134.148 80.2741C134.379 79.8522 134.704 79.5292 135.124 79.3C135.543 79.0708 136.02 78.9614 136.565 78.9614C137.095 78.9614 137.567 79.0708 137.976 79.2948C138.39 79.5136 138.71 79.8313 138.941 80.2376C139.171 80.6439 139.287 81.1231 139.287 81.6701C139.292 81.8159 139.281 81.9774 139.26 82.1493ZM137.577 81.2221C137.577 80.9356 137.478 80.7116 137.284 80.5397C137.09 80.373 136.843 80.2845 136.55 80.2845C136.267 80.2845 136.031 80.3678 135.837 80.5293C135.643 80.6908 135.522 80.92 135.48 81.2221H137.577Z" fill="white"/>
<path d="M148.693 77.6284V78.9619H145.888V80.4048H147.985V81.7018H145.888V84.4677H144.21V77.6284H148.693Z" fill="white"/>
<path d="M150.68 78.2062C150.492 78.0343 150.402 77.8208 150.402 77.5655C150.402 77.3051 150.497 77.0915 150.68 76.9196C150.869 76.7477 151.105 76.6592 151.399 76.6592C151.687 76.6592 151.923 76.7477 152.112 76.9196C152.3 77.0915 152.39 77.3103 152.39 77.5655C152.39 77.8208 152.295 78.0291 152.112 78.2062C151.923 78.3781 151.687 78.4667 151.399 78.4667C151.11 78.4667 150.869 78.3781 150.68 78.2062ZM152.238 79.0292V84.4673H150.56V79.0292H152.238Z" fill="white"/>
<path d="M159.3 79.592C159.683 80.0035 159.877 80.5713 159.877 81.2901V84.4676H158.21V81.5141C158.21 81.1495 158.115 80.8682 157.926 80.6651C157.738 80.4619 157.481 80.3629 157.161 80.3629C156.841 80.3629 156.584 80.4619 156.395 80.6651C156.207 80.8682 156.112 81.1495 156.112 81.5141V84.4676H154.434V79.0295H156.112V79.7483C156.28 79.5087 156.511 79.316 156.799 79.1805C157.087 79.0399 157.413 78.9722 157.769 78.9722C158.404 78.9722 158.917 79.1805 159.3 79.592Z" fill="white"/>
<path d="M167.149 82.1493H163.353C163.379 82.4879 163.489 82.7431 163.683 82.9254C163.877 83.1025 164.113 83.1911 164.396 83.1911C164.816 83.1911 165.104 83.014 165.267 82.665H167.05C166.96 83.0244 166.793 83.3421 166.557 83.6286C166.316 83.9151 166.017 84.1391 165.66 84.3006C165.298 84.462 164.9 84.5454 164.454 84.5454C163.919 84.5454 163.442 84.4308 163.023 84.2068C162.603 83.9776 162.278 83.6547 162.042 83.2327C161.806 82.8108 161.691 82.316 161.691 81.7534C161.691 81.1908 161.806 80.696 162.037 80.2741C162.268 79.8522 162.593 79.5292 163.012 79.3C163.432 79.0708 163.909 78.9614 164.454 78.9614C164.984 78.9614 165.456 79.0708 165.865 79.2948C166.279 79.5136 166.599 79.8313 166.829 80.2376C167.06 80.6491 167.175 81.1231 167.175 81.6701C167.181 81.8159 167.17 81.9774 167.149 82.1493ZM165.461 81.2221C165.461 80.9356 165.361 80.7116 165.167 80.5397C164.973 80.373 164.727 80.2845 164.433 80.2845C164.15 80.2845 163.914 80.3678 163.72 80.5293C163.526 80.6908 163.406 80.92 163.364 81.2221H165.461Z" fill="white"/>
<path d="M169.991 84.3009C169.619 84.1394 169.325 83.9154 169.11 83.6342C168.895 83.3529 168.775 83.0351 168.749 82.6861H170.405C170.426 82.8737 170.516 83.0247 170.668 83.1445C170.825 83.2591 171.019 83.3216 171.244 83.3216C171.454 83.3216 171.617 83.28 171.732 83.2018C171.847 83.1185 171.905 83.0143 171.905 82.8841C171.905 82.7278 171.821 82.6132 171.659 82.5403C171.496 82.4674 171.229 82.384 170.867 82.2903C170.474 82.2017 170.148 82.1027 169.886 82.0038C169.624 81.9048 169.399 81.7433 169.21 81.5245C169.021 81.3058 168.927 81.0141 168.927 80.6442C168.927 80.3317 169.011 80.0504 169.189 79.79C169.362 79.5347 169.619 79.3316 169.954 79.1805C170.29 79.0295 170.694 78.9565 171.155 78.9565C171.842 78.9565 172.382 79.1232 172.781 79.4618C173.174 79.8004 173.405 80.2484 173.462 80.8057H171.915C171.889 80.6182 171.805 80.4671 171.664 80.3577C171.522 80.2484 171.339 80.1911 171.108 80.1911C170.914 80.1911 170.762 80.2275 170.657 80.3004C170.552 80.3734 170.5 80.4776 170.5 80.6078C170.5 80.764 170.584 80.8786 170.751 80.9568C170.919 81.0349 171.176 81.113 171.533 81.1912C171.936 81.2954 172.267 81.3995 172.524 81.4985C172.781 81.5975 173.001 81.7642 173.195 81.9881C173.389 82.2121 173.488 82.5142 173.494 82.8893C173.494 83.207 173.405 83.4935 173.226 83.7435C173.048 83.9936 172.786 84.1915 172.45 84.3322C172.115 84.4728 171.721 84.5457 171.281 84.5457C170.788 84.5457 170.363 84.4624 169.991 84.3009Z" fill="white"/>
<path d="M178.543 83.0556V84.4672H177.688C177.08 84.4672 176.608 84.3214 176.267 84.0245C175.926 83.7276 175.759 83.2484 175.759 82.5764V80.4147H175.093V79.0291H175.759V77.7061H177.436V79.0291H178.532V80.4147H177.436V82.5972C177.436 82.7587 177.478 82.8785 177.552 82.9462C177.63 83.0192 177.762 83.0556 177.945 83.0556H178.543Z" fill="white"/>
<path d="M187.829 77.6284V82.2852C187.829 83.004 187.624 83.5614 187.215 83.952C186.806 84.3427 186.256 84.5354 185.564 84.5354C184.84 84.5354 184.258 84.3323 183.818 83.9208C183.377 83.5093 183.162 82.9311 183.162 82.1758H184.83C184.83 82.4623 184.887 82.6759 185.008 82.8217C185.123 82.9676 185.296 83.0405 185.516 83.0405C185.721 83.0405 185.878 82.978 185.988 82.8478C186.098 82.7175 186.156 82.53 186.156 82.2852V77.6284H187.829Z" fill="white"/>
<path d="M190.146 80.2692C190.361 79.8473 190.649 79.5243 191.016 79.2951C191.383 79.0659 191.792 78.9565 192.243 78.9565C192.631 78.9565 192.967 79.0347 193.26 79.191C193.554 79.3472 193.774 79.5504 193.932 79.8056V79.0347H195.609V84.4728H193.932V83.7019C193.769 83.9571 193.538 84.1603 193.25 84.3165C192.962 84.4728 192.621 84.5509 192.233 84.5509C191.787 84.5509 191.383 84.4363 191.016 84.2071C190.649 83.9779 190.361 83.6498 190.146 83.2227C189.931 82.7955 189.826 82.3059 189.826 81.7485C189.826 81.1808 189.936 80.6911 190.146 80.2692ZM193.58 80.764C193.35 80.5244 193.066 80.4046 192.731 80.4046C192.395 80.4046 192.112 80.5244 191.881 80.7588C191.651 80.9984 191.535 81.3214 191.535 81.7381C191.535 82.1548 191.651 82.483 191.881 82.7278C192.112 82.9726 192.395 83.0924 192.731 83.0924C193.066 83.0924 193.35 82.9726 193.58 82.733C193.811 82.4934 193.926 82.1652 193.926 81.7485C193.926 81.3318 193.811 81.0036 193.58 80.764Z" fill="white"/>
<path d="M200.155 79.1856C200.444 79.0293 200.779 78.9512 201.167 78.9512C201.618 78.9512 202.027 79.0658 202.394 79.2898C202.761 79.5189 203.05 79.8419 203.265 80.2638C203.48 80.6857 203.584 81.1754 203.584 81.7327C203.584 82.2901 203.48 82.7849 203.265 83.2069C203.05 83.634 202.761 83.9622 202.394 84.1913C202.027 84.4205 201.618 84.5351 201.167 84.5351C200.79 84.5351 200.454 84.457 200.161 84.3007C199.867 84.1445 199.641 83.9413 199.479 83.6965V87.0458H197.801V79.0189H199.479V79.7898C199.641 79.5502 199.867 79.3418 200.155 79.1856ZM201.524 80.7587C201.293 80.5243 201.005 80.4045 200.664 80.4045C200.328 80.4045 200.045 80.5243 199.814 80.7639C199.584 81.0035 199.468 81.3316 199.468 81.7484C199.468 82.1651 199.584 82.4932 199.814 82.7328C200.045 82.9725 200.328 83.0923 200.664 83.0923C200.999 83.0923 201.283 82.9725 201.519 82.7276C201.754 82.4828 201.87 82.1547 201.87 81.7379C201.87 81.3264 201.754 80.9983 201.524 80.7587Z" fill="white"/>
<path d="M205.425 80.2692C205.64 79.8473 205.928 79.5243 206.295 79.2951C206.662 79.0659 207.071 78.9565 207.522 78.9565C207.91 78.9565 208.246 79.0347 208.539 79.191C208.833 79.3472 209.053 79.5504 209.21 79.8056V79.0347H210.888V84.4728H209.205V83.7019C209.043 83.9571 208.812 84.1603 208.524 84.3165C208.235 84.4728 207.894 84.5509 207.506 84.5509C207.061 84.5509 206.657 84.4363 206.29 84.2071C205.923 83.9779 205.635 83.6498 205.42 83.2227C205.205 82.7955 205.1 82.3059 205.1 81.7485C205.105 81.1808 205.21 80.6911 205.425 80.2692ZM208.854 80.764C208.623 80.5244 208.34 80.4046 208.005 80.4046C207.669 80.4046 207.386 80.5244 207.155 80.7588C206.924 80.9984 206.809 81.3214 206.809 81.7381C206.809 82.1548 206.924 82.483 207.155 82.7278C207.386 82.9726 207.669 83.0924 208.005 83.0924C208.34 83.0924 208.623 82.9726 208.854 82.733C209.085 82.4934 209.2 82.1652 209.2 81.7485C209.205 81.3318 209.09 81.0036 208.854 80.764Z" fill="white"/>
<path d="M217.946 79.592C218.329 80.0035 218.517 80.5713 218.517 81.2901V84.4676H216.85V81.5141C216.85 81.1495 216.756 80.8682 216.567 80.6651C216.378 80.4619 216.121 80.3629 215.801 80.3629C215.481 80.3629 215.225 80.4619 215.036 80.6651C214.847 80.8682 214.753 81.1495 214.753 81.5141V84.4676H213.075V79.0295H214.753V79.7483C214.92 79.5087 215.151 79.316 215.44 79.1805C215.728 79.0399 216.053 78.9722 216.41 78.9722C217.049 78.9722 217.563 79.1805 217.946 79.592Z" fill="white"/>
<path d="M225.795 82.1493H221.999C222.025 82.4879 222.135 82.7431 222.329 82.9254C222.523 83.1025 222.759 83.1911 223.042 83.1911C223.462 83.1911 223.75 83.014 223.913 82.665H225.695C225.606 83.0244 225.438 83.3421 225.202 83.6286C224.961 83.9151 224.662 84.1391 224.306 84.3006C223.944 84.462 223.546 84.5454 223.1 84.5454C222.565 84.5454 222.088 84.4308 221.668 84.2068C221.249 83.9776 220.924 83.6547 220.688 83.2327C220.452 82.8108 220.337 82.316 220.337 81.7534C220.337 81.1908 220.452 80.696 220.683 80.2741C220.913 79.8522 221.239 79.5292 221.658 79.3C222.077 79.0708 222.555 78.9614 223.1 78.9614C223.629 78.9614 224.101 79.0708 224.51 79.2948C224.924 79.5136 225.244 79.8313 225.475 80.2376C225.706 80.6491 225.821 81.1231 225.821 81.6701C225.821 81.8159 225.816 81.9774 225.795 82.1493ZM224.107 81.2221C224.107 80.9356 224.007 80.7116 223.813 80.5397C223.619 80.373 223.372 80.2845 223.079 80.2845C222.796 80.2845 222.56 80.3678 222.366 80.5293C222.172 80.6908 222.051 80.92 222.009 81.2221H224.107Z" fill="white"/>
<path d="M228.637 84.3009C228.264 84.1394 227.971 83.9154 227.756 83.6342C227.541 83.3529 227.42 83.0351 227.394 82.6861H229.051C229.072 82.8737 229.161 83.0247 229.313 83.1445C229.47 83.2591 229.664 83.3216 229.89 83.3216C230.099 83.3216 230.262 83.28 230.377 83.2018C230.493 83.1185 230.55 83.0143 230.55 82.8841C230.55 82.7278 230.466 82.6132 230.304 82.5403C230.141 82.4674 229.874 82.384 229.512 82.2903C229.119 82.2017 228.794 82.1027 228.532 82.0038C228.27 81.9048 228.044 81.7433 227.855 81.5245C227.667 81.3058 227.572 81.0141 227.572 80.6442C227.572 80.3317 227.656 80.0504 227.834 79.79C228.007 79.5347 228.264 79.3316 228.6 79.1805C228.935 79.0295 229.339 78.9565 229.801 78.9565C230.487 78.9565 231.027 79.1232 231.426 79.4618C231.819 79.8004 232.05 80.2484 232.108 80.8057H230.561C230.535 80.6182 230.451 80.4671 230.309 80.3577C230.168 80.2484 229.984 80.1911 229.753 80.1911C229.559 80.1911 229.407 80.2275 229.302 80.3004C229.198 80.3734 229.145 80.4776 229.145 80.6078C229.145 80.764 229.229 80.8786 229.397 80.9568C229.565 81.0349 229.822 81.113 230.178 81.1912C230.582 81.2954 230.912 81.3995 231.169 81.4985C231.426 81.5975 231.646 81.7642 231.84 81.9881C232.034 82.2121 232.134 82.5142 232.139 82.8893C232.139 83.207 232.05 83.4935 231.872 83.7435C231.693 83.9936 231.431 84.1915 231.096 84.3322C230.76 84.4728 230.367 84.5457 229.926 84.5457C229.434 84.5457 229.009 84.4624 228.637 84.3009Z" fill="white"/>
<path d="M239.265 82.1493H235.469C235.495 82.4879 235.605 82.7431 235.799 82.9254C235.993 83.1077 236.229 83.1911 236.512 83.1911C236.932 83.1911 237.22 83.014 237.382 82.665H239.165C239.076 83.0244 238.908 83.3421 238.672 83.6286C238.431 83.9151 238.132 84.1391 237.776 84.3006C237.414 84.462 237.015 84.5454 236.57 84.5454C236.035 84.5454 235.558 84.4308 235.138 84.2068C234.719 83.9776 234.394 83.6547 234.158 83.2327C233.922 82.8108 233.807 82.316 233.807 81.7534C233.807 81.1908 233.922 80.696 234.153 80.2741C234.383 79.8522 234.708 79.5292 235.128 79.3C235.547 79.0708 236.024 78.9614 236.57 78.9614C237.099 78.9614 237.571 79.0708 237.98 79.2948C238.394 79.5136 238.714 79.8313 238.945 80.2376C239.176 80.6439 239.291 81.1231 239.291 81.6701C239.296 81.8159 239.286 81.9774 239.265 82.1493ZM237.582 81.2221C237.582 80.9356 237.482 80.7116 237.288 80.5397C237.094 80.373 236.848 80.2845 236.554 80.2845C236.271 80.2845 236.035 80.3678 235.841 80.5293C235.647 80.6908 235.526 80.92 235.484 81.2221H237.582Z" fill="white"/>
<path d="M245.866 77.6284V81.7174C245.866 82.1289 245.966 82.4415 246.17 82.6602C246.375 82.879 246.668 82.9936 247.061 82.9936C247.455 82.9936 247.754 82.8842 247.963 82.6602C248.173 82.4415 248.278 82.1237 248.278 81.7174V77.6284H249.956V81.7122C249.956 82.3217 249.825 82.8373 249.562 83.2593C249.3 83.6812 248.949 83.9989 248.509 84.2125C248.068 84.4261 247.575 84.5354 247.03 84.5354C246.485 84.5354 246.002 84.4313 245.572 84.2177C245.142 84.0041 244.807 83.6864 244.555 83.2645C244.309 82.8373 244.183 82.3217 244.183 81.7122V77.6284H245.866Z" fill="white"/>
<path d="M253.06 84.3009C252.687 84.1394 252.394 83.9154 252.179 83.6342C251.964 83.3529 251.843 83.0351 251.817 82.6861H253.474C253.495 82.8737 253.584 83.0247 253.736 83.1445C253.893 83.2591 254.087 83.3216 254.313 83.3216C254.522 83.3216 254.685 83.28 254.8 83.2018C254.916 83.1185 254.973 83.0143 254.973 82.8841C254.973 82.7278 254.89 82.6132 254.727 82.5403C254.564 82.4674 254.297 82.384 253.935 82.2903C253.542 82.2017 253.217 82.1027 252.955 82.0038C252.693 81.9048 252.467 81.7433 252.278 81.5245C252.09 81.3058 251.995 81.0141 251.995 80.6442C251.995 80.3317 252.079 80.0504 252.257 79.79C252.43 79.5347 252.687 79.3316 253.023 79.1805C253.358 79.0295 253.762 78.9565 254.224 78.9565C254.91 78.9565 255.451 79.1232 255.849 79.4618C256.242 79.8004 256.473 80.2484 256.531 80.8057H254.984C254.958 80.6182 254.874 80.4671 254.732 80.3577C254.591 80.2484 254.407 80.1911 254.176 80.1911C253.982 80.1911 253.83 80.2275 253.726 80.3004C253.621 80.3734 253.568 80.4776 253.568 80.6078C253.568 80.764 253.652 80.8786 253.82 80.9568C253.988 81.0349 254.245 81.113 254.601 81.1912C255.005 81.2954 255.335 81.3995 255.592 81.4985C255.849 81.5975 256.069 81.7642 256.263 81.9881C256.457 82.2121 256.557 82.5142 256.562 82.8893C256.562 83.207 256.473 83.4935 256.295 83.7435C256.116 83.9936 255.854 84.1915 255.519 84.3322C255.183 84.4728 254.79 84.5457 254.349 84.5457C253.862 84.5457 253.437 84.4624 253.06 84.3009Z" fill="white"/>
<path d="M263.693 82.1493H259.897C259.923 82.4879 260.033 82.7431 260.227 82.9254C260.421 83.1025 260.657 83.1911 260.94 83.1911C261.36 83.1911 261.648 83.014 261.811 82.665H263.593C263.504 83.0244 263.336 83.3421 263.1 83.6286C262.859 83.9151 262.56 84.1391 262.204 84.3006C261.842 84.462 261.444 84.5454 260.998 84.5454C260.463 84.5454 259.986 84.4308 259.567 84.2068C259.147 83.9776 258.822 83.6547 258.586 83.2327C258.35 82.8108 258.235 82.316 258.235 81.7534C258.235 81.1908 258.35 80.696 258.581 80.2741C258.811 79.8522 259.137 79.5292 259.556 79.3C259.975 79.0708 260.453 78.9614 260.998 78.9614C261.527 78.9614 261.999 79.0708 262.408 79.2948C262.823 79.5136 263.142 79.8313 263.373 80.2376C263.604 80.6491 263.719 81.1231 263.719 81.6701C263.719 81.8159 263.709 81.9774 263.693 82.1493ZM262.005 81.2221C262.005 80.9356 261.905 80.7116 261.711 80.5397C261.517 80.373 261.271 80.2845 260.977 80.2845C260.694 80.2845 260.458 80.3678 260.264 80.5293C260.07 80.6908 259.949 80.92 259.907 81.2221H262.005Z" fill="white"/>
<path d="M265.57 80.2687C265.785 79.8468 266.073 79.5239 266.44 79.2947C266.807 79.0655 267.216 78.9561 267.667 78.9561C268.029 78.9561 268.354 79.029 268.653 79.1801C268.952 79.3311 269.183 79.5291 269.356 79.7843V77.2632H271.033V84.4723H269.356V83.691C269.198 83.9514 268.973 84.1598 268.684 84.3161C268.396 84.4723 268.055 84.5505 267.667 84.5505C267.216 84.5505 266.807 84.4359 266.44 84.2067C266.073 83.9775 265.785 83.6493 265.57 83.2222C265.355 82.7951 265.25 82.3054 265.25 81.7481C265.25 81.1803 265.355 80.6907 265.57 80.2687ZM268.999 80.7636C268.768 80.524 268.485 80.4042 268.15 80.4042C267.814 80.4042 267.531 80.524 267.3 80.7584C267.07 80.998 266.954 81.3209 266.954 81.7377C266.954 82.1544 267.07 82.4825 267.3 82.7273C267.531 82.9722 267.814 83.092 268.15 83.092C268.485 83.092 268.768 82.9722 268.999 82.7326C269.23 82.4929 269.345 82.1648 269.345 81.7481C269.35 81.3314 269.235 81.0032 268.999 80.7636Z" fill="white"/>
<path d="M276.439 79.2329C276.733 78.7016 277.142 78.2901 277.671 77.9984C278.196 77.7015 278.794 77.5557 279.459 77.5557C280.277 77.5557 280.975 77.7692 281.557 78.1964C282.139 78.6235 282.527 79.2069 282.726 79.9518H280.88C280.744 79.6653 280.55 79.4465 280.298 79.3006C280.047 79.1496 279.764 79.0767 279.438 79.0767C278.925 79.0767 278.505 79.2538 278.185 79.6132C277.865 79.9726 277.703 80.4466 277.703 81.0456C277.703 81.6447 277.865 82.1187 278.185 82.4781C278.505 82.8375 278.925 83.0146 279.438 83.0146C279.758 83.0146 280.047 82.9417 280.298 82.7906C280.55 82.6396 280.744 82.426 280.88 82.1395H282.726C282.532 82.8792 282.139 83.4626 281.557 83.8897C280.975 84.3168 280.277 84.5304 279.459 84.5304C278.794 84.5304 278.196 84.3846 277.671 84.0876C277.147 83.7907 276.733 83.3792 276.439 82.8531C276.146 82.327 275.999 81.728 275.999 81.0508C275.999 80.3633 276.146 79.759 276.439 79.2329Z" fill="white"/>
<path d="M284.718 80.2692C284.933 79.8473 285.222 79.5243 285.589 79.2951C285.956 79.0659 286.365 78.9565 286.816 78.9565C287.204 78.9565 287.539 79.0347 287.833 79.191C288.126 79.3472 288.347 79.5504 288.504 79.8056V79.0347H290.182V84.4728H288.504V83.7019C288.341 83.9571 288.111 84.1603 287.822 84.3165C287.534 84.4728 287.193 84.5509 286.805 84.5509C286.359 84.5509 285.956 84.4363 285.589 84.2071C285.222 83.9779 284.933 83.6498 284.718 83.2227C284.503 82.7955 284.398 82.3059 284.398 81.7485C284.398 81.1808 284.503 80.6911 284.718 80.2692ZM288.153 80.764C287.922 80.5244 287.639 80.4046 287.303 80.4046C286.968 80.4046 286.685 80.5244 286.454 80.7588C286.223 80.9984 286.108 81.3214 286.108 81.7381C286.108 82.1548 286.223 82.483 286.454 82.7278C286.685 82.9726 286.968 83.0924 287.303 83.0924C287.639 83.0924 287.922 82.9726 288.153 82.733C288.383 82.4934 288.499 82.1652 288.499 81.7485C288.499 81.3318 288.383 81.0036 288.153 80.764Z" fill="white"/>
<path d="M294.785 79.2326C295.079 79.0607 295.404 78.9722 295.766 78.9722V80.7328H295.305C294.885 80.7328 294.57 80.8213 294.361 80.9984C294.151 81.1755 294.046 81.4881 294.046 81.936V84.4572H292.368V79.019H294.046V79.9254C294.245 79.6389 294.492 79.4045 294.785 79.2326Z" fill="white"/>
<path d="M298.498 84.3009C298.125 84.1394 297.832 83.9154 297.617 83.6342C297.402 83.3529 297.281 83.0351 297.255 82.6861H298.912C298.933 82.8737 299.022 83.0247 299.174 83.1445C299.331 83.2591 299.525 83.3216 299.751 83.3216C299.96 83.3216 300.123 83.28 300.238 83.2018C300.354 83.1185 300.411 83.0143 300.411 82.8841C300.411 82.7278 300.327 82.6132 300.165 82.5403C300.002 82.4674 299.735 82.384 299.373 82.2903C298.98 82.2017 298.655 82.1027 298.393 82.0038C298.13 81.9048 297.905 81.7433 297.716 81.5245C297.528 81.3058 297.433 81.0141 297.433 80.6442C297.433 80.3317 297.517 80.0504 297.695 79.79C297.868 79.5347 298.125 79.3316 298.461 79.1805C298.796 79.0295 299.2 78.9565 299.662 78.9565C300.348 78.9565 300.888 79.1232 301.287 79.4618C301.68 79.8004 301.911 80.2484 301.969 80.8057H300.422C300.396 80.6182 300.312 80.4671 300.17 80.3577C300.029 80.2484 299.845 80.1911 299.614 80.1911C299.42 80.1911 299.268 80.2275 299.163 80.3004C299.059 80.3734 299.006 80.4776 299.006 80.6078C299.006 80.764 299.09 80.8786 299.258 80.9568C299.426 81.0349 299.683 81.113 300.039 81.1912C300.443 81.2954 300.773 81.3995 301.03 81.4985C301.287 81.5975 301.507 81.7642 301.701 81.9881C301.895 82.2121 301.995 82.5142 302 82.8893C302 83.207 301.911 83.4935 301.733 83.7435C301.554 83.9936 301.292 84.1915 300.957 84.3322C300.621 84.4728 300.228 84.5457 299.787 84.5457C299.295 84.5457 298.87 84.4624 298.498 84.3009Z" fill="white"/>
</svg>
