<svg width="37" height="37" viewBox="0 0 37 37" fill="none" xmlns="http://www.w3.org/2000/svg">
<g clip-path="url(#clip0_70_18)">
<path d="M18.5 0C18.1041 0 17.711 0.0124297 17.3212 0.0369277L1.91887 10.2861C0.69057 12.7609 0 15.5498 0 18.5C0 23.911 2.32298 28.7794 6.02616 32.1623C6.02616 32.1623 12.0553 36.3093 18.5 36.3093C27.1231 36.3093 36.0932 28.7173 36.0932 18.5C36.0932 6.38546 24.5668 1.01772 24.5668 1.01772C22.6663 0.358293 20.625 0 18.5 0Z" fill="#008CDF"/>
<path d="M36.8188 15.9012L32.3338 15.3893C32.3338 25.6066 24.0511 33.8893 13.8338 33.8893C11.0434 33.8893 8.39865 33.2686 6.02609 32.1623C7.46244 33.4745 9.10649 34.5632 10.9032 35.3733L11.9925 35.3126L13.3738 36.2804C15.0016 36.7488 16.7215 37 18.5 37C28.7173 37 37 28.7173 37 18.5C37 17.6179 36.9382 16.7503 36.8188 15.9012Z" fill="#0069D0"/>
<path d="M26.3272 1.73212C25.7558 1.46502 25.1684 1.22626 24.5668 1.0177L22.9307 2.45665C22.4826 2.83981 22.3754 3.50075 22.705 4.01268C23.0219 4.50481 23.6625 4.67651 24.2017 4.4488L24.5328 4.30889C24.9394 4.13719 25.4158 4.19934 25.7455 4.49295C26.3281 5.01197 26.2266 5.92923 25.5729 6.31607L21.7306 8.58962C20.9801 9.03369 20.5034 9.84097 20.519 10.7129C20.5352 11.6185 21.0427 12.3561 22.0625 12.4501C24.1728 12.6444 23.869 10.4085 25.1085 10.4085H29.3596C30.0066 10.4085 30.5678 10.8924 30.6239 11.537C30.6877 12.2716 30.1104 12.8875 29.3892 12.8875H24.2916C22.3088 12.8875 20.5798 14.4154 20.5203 16.3973C20.4588 18.448 22.1028 20.1298 24.1398 20.1298H24.6582C25.6469 20.1298 26.4485 20.9314 26.4485 21.9201V28.2823C26.4485 28.4711 26.4817 28.6574 26.544 28.8311L28.0412 28.7989L32.7029 21.2179L33.302 16.8731L34.8218 14.6727C34.8218 14.6728 31.884 4.32956 26.3272 1.73212Z" fill="#98DB7C"/>
<path d="M36.8188 15.9012C35.9355 9.61152 31.8759 4.33193 26.3272 1.73218C30.0147 5.11406 32.3338 9.99142 32.3338 15.3892C32.3338 20.6869 30.1127 25.4586 26.5441 28.8311C26.7629 29.4562 27.3832 29.8901 28.1041 29.7871C28.5639 29.7214 28.9543 29.4122 29.1834 29.0081L33.5988 21.2225C33.9896 20.5333 34.0903 19.7169 33.8786 18.9534L33.5363 17.7186C33.4238 17.3128 33.7556 16.9213 34.1743 16.9657L34.4179 16.9915C35.0733 17.061 35.728 16.8541 36.2245 16.4207L36.8188 15.9012Z" fill="#77CC7D"/>
<path d="M18.3273 1.63559L17.3212 0.0369263C10.5546 0.461415 4.77937 4.51935 1.91888 10.2861L3.08467 18.3396C3.21547 19.2436 3.75313 20.0379 4.54379 20.4953C4.99863 20.7583 5.19765 21.3109 5.01503 21.8035L4.61699 22.8773C4.25885 23.8435 4.56113 24.9304 5.36661 25.573L6.42956 26.421C6.79313 26.7111 7.08393 27.0822 7.27861 27.5047L10.0407 33.4984L11.6551 34.6376L12.7951 33.8603L12.3816 32.1326C12.1484 31.158 12.2734 30.132 12.7337 29.2418L14.5264 25.7748C15.0202 24.8198 14.567 23.6481 13.559 23.274L12.0862 22.7274C11.6183 22.5538 11.3079 22.1074 11.3079 21.6085V21.4935C11.3079 20.8343 10.7735 20.3 10.1144 20.3H7.55394C6.92646 20.3 6.3101 20.1352 5.76638 19.8219L5.14179 19.4621C4.66736 19.1887 4.34462 18.7127 4.26629 18.1708L4.2264 17.8948C4.12595 17.2003 4.44059 16.5112 5.03108 16.132L5.39811 15.8963C5.84276 15.6109 6.42219 15.6517 6.8224 15.9967L7.14954 16.2788C7.54787 16.6222 8.16856 16.4187 8.28621 15.906L8.63511 14.3858C8.82105 13.5758 9.41478 12.9208 10.2028 12.6565L12.7777 11.793C13.5131 11.5463 13.8216 10.6749 13.4052 10.0206L12.2347 8.18119C11.913 7.67576 11.2665 7.48708 10.7234 7.74015L9.75674 8.19073C9.25674 8.42386 8.63373 8.32391 8.29625 7.8875C7.86085 7.32455 8.03581 6.51576 8.65007 6.17856L11.0796 4.84469C11.8855 4.4022 12.8955 4.64205 13.4164 5.39961L13.6422 5.72792C13.976 6.21376 14.5277 6.5039 15.1172 6.5039H16.2104C16.9352 6.5039 17.5884 6.06699 17.8651 5.39723L18.5157 3.82249C18.8116 3.10612 18.7414 2.29075 18.3273 1.63559Z" fill="#98DB7C"/>
<path d="M10.9032 35.3733C11.6987 35.7322 12.5231 36.0355 13.3738 36.2804L12.7949 33.8603C11.8546 33.808 10.9381 33.6863 10.0406 33.4984L10.9032 35.3733Z" fill="#77CC7D"/>
</g>
<defs>
<clipPath id="clip0_70_18">
<rect width="37" height="37" fill="white"/>
</clipPath>
</defs>
</svg>
