<svg width="44" height="42" viewBox="0 0 44 42" fill="none" xmlns="http://www.w3.org/2000/svg">
<path d="M43.3555 35.2572C42.9994 35.2572 42.7109 35.5458 42.7109 35.9018V40.2084C42.7109 40.2682 42.6623 40.3169 42.6024 40.3169H40.1534V30.9001C40.1534 30.5442 39.8649 30.2556 39.5088 30.2556C39.1528 30.2556 38.8643 30.5442 38.8643 30.9001V40.317H34.1317L35.4126 38.9079C35.6105 38.6902 35.7037 38.3811 35.6622 38.0809C35.6612 38.0744 35.6603 38.0681 35.6592 38.0616L34.2193 29.5542L34.4842 29.1554L34.5533 29.2043C34.7895 29.3722 35.0908 29.4334 35.3823 29.3606C35.6685 29.289 35.9084 29.0964 36.0402 28.8324V28.8323L37.5054 25.8957L40.8522 27.1919C40.9843 27.2493 42.7106 28.0409 42.7106 30.1005V32.8938C42.7107 33.2498 42.9992 33.5384 43.3552 33.5384C43.7113 33.5384 43.9997 33.2498 43.9997 32.8939V30.1006C43.9997 27.1263 41.4487 26.0434 41.3402 25.9987C41.336 25.997 41.332 25.9953 41.3279 25.9938L35.6288 23.7866V22.6127C36.5184 21.897 37.1431 20.8655 37.3307 19.6896C37.7744 19.6339 38.1861 19.4563 38.5277 19.1625C39.0175 18.7412 39.2986 18.1282 39.2986 17.4809C39.2986 16.9641 39.1193 16.4696 38.7981 16.0769V14.3377C38.7981 10.9341 36.0291 8.16507 32.6256 8.16507C31.0975 8.16507 29.6985 8.72435 28.6194 9.64749C28.6054 9.15361 28.4287 8.68302 28.1206 8.30627V6.56715C28.1206 3.16352 25.3515 0.394531 21.9481 0.394531C18.5444 0.394531 15.7754 3.1636 15.7754 6.56715V8.35164C15.4656 8.72186 15.2923 9.16822 15.277 9.64199C14.5885 9.05358 13.7644 8.61057 12.846 8.36874C12.5012 8.27799 12.1491 8.48364 12.0585 8.82791C11.9678 9.17217 12.1734 9.52477 12.5176 9.61544C14.6586 10.1792 16.1539 12.1211 16.1539 14.3376V15.3016C16.1261 15.2958 16.0367 15.2804 16.0332 15.2799C16.0245 15.098 15.9784 14.9869 15.8792 14.8442C15.7142 14.6071 15.4179 14.3117 14.4649 13.2874C14.1253 12.9226 13.576 12.8556 13.159 13.1282C11.5266 14.1945 9.54343 14.738 7.70299 14.63C7.10349 14.5948 6.72907 14.8582 6.56948 15.2899C6.55521 15.2922 6.3958 15.3243 6.38695 15.3265V14.3376C6.38695 12.2004 7.81506 10.2778 9.85976 9.66184C10.2006 9.55923 10.3937 9.19967 10.2911 8.85876C10.1884 8.51784 9.82831 8.32474 9.48791 8.42752C8.2444 8.80204 7.12661 9.58183 6.34071 10.6231C5.52749 11.7002 5.09772 12.9847 5.09772 14.3377V16.1223C4.77305 16.5102 4.59748 16.9816 4.59748 17.4809C4.59748 18.5843 5.41044 19.5466 6.56871 19.6901C6.75846 20.8385 7.3815 21.9398 8.3648 22.6886V23.7869L2.67205 25.994C2.66801 25.9955 2.66397 25.9972 2.65993 25.9988C2.55114 26.0434 0 27.1262 0 30.1005V40.2084C0 40.9791 0.626999 41.606 1.39777 41.606H21.2468C21.5242 41.606 21.7823 41.5238 22 41.3839C22.2176 41.5238 22.4758 41.606 22.7533 41.606H42.6024C43.3731 41.606 44.0001 40.9791 44.0001 40.2084V35.9018C44 35.5458 43.7115 35.2572 43.3555 35.2572ZM6.50563 18.3584C6.12776 18.2212 5.88636 17.8717 5.88636 17.4807C5.88636 17.1014 6.16136 16.7898 6.50563 16.6419V18.3584ZM36.2981 25.4282L35.033 27.9638C35.0328 27.9637 33.6276 26.9657 33.6077 26.9515C34.2139 26.2031 33.9291 26.5547 35.1896 24.9989L36.2981 25.4282ZM32.676 26.0536L31.009 23.996V23.3777C31.5509 23.565 32.1345 23.6515 32.6839 23.6517C32.684 23.6517 32.6842 23.6517 32.6843 23.6517H32.6844C33.2524 23.6516 33.8275 23.5437 34.3397 23.351V24L32.676 26.0536ZM33.4327 28.4086L33.1956 28.7655H32.1565L31.9194 28.4086L32.6761 27.8712L33.4327 28.4086ZM21.9983 18.283L20.3314 16.2254V15.6071C20.8711 15.7936 21.4542 15.8809 22.0063 15.881C22.0064 15.881 22.0066 15.881 22.0067 15.881H22.0067C22.5738 15.881 23.1488 15.7735 23.6621 15.5804V16.2293L21.9983 18.283ZM22.755 20.6381L22.5179 20.995H21.4788L21.2417 20.6381L21.9984 20.1007L22.755 20.6381ZM16.9226 11.8577C17.028 11.8864 17.1362 11.9059 17.2462 11.9195C17.4359 13.0679 18.059 14.1692 19.0423 14.9179V16.0163L17.7273 16.526C17.6511 16.3659 17.5558 16.2151 17.4427 16.0768V14.3377C17.4427 13.463 17.2585 12.6222 16.9226 11.8577ZM25.4234 11.1752C25.4234 13.0618 23.8844 14.5917 22.0067 14.5917C19.8883 14.5917 18.4726 12.9499 18.4726 11.1752V8.15605C20.5078 8.23752 22.6221 7.63432 24.3508 6.55839C24.932 7.1816 25.2778 7.54366 25.4234 7.71175C25.4234 9.31646 25.4234 9.93607 25.4234 11.1752ZM26.6532 11.9191C26.7625 11.9053 26.8703 11.8857 26.975 11.8571C26.6402 12.6168 26.4529 13.4555 26.4529 14.3377V16.1222C26.3538 16.2405 26.2686 16.3666 26.198 16.4988L24.9512 16.016V14.8421C25.8408 14.1264 26.4656 13.0949 26.6532 11.9191ZM19.4824 17.2293L21.0647 19.1823L19.9857 19.9487C19.9851 19.9491 19.9846 19.9496 19.984 19.95L19.6416 20.1933L18.3763 17.6577L19.4824 17.2293ZM23.4818 18.4998L24.5119 17.2283L25.6204 17.6575L24.3553 20.1933L24.0121 19.9496C24.0118 19.9493 24.0114 19.949 24.0111 19.9487L22.9301 19.1809L23.4818 18.4998ZM23.8066 21.3848L23.8756 21.4338C24.1166 21.605 24.419 21.6615 24.7047 21.59C24.9909 21.5184 25.2308 21.3259 25.3626 21.0619V21.0618L26.4504 18.8816C26.8241 19.3423 27.3647 19.6224 27.9214 19.6919C28.118 20.9243 28.7841 21.976 29.72 22.6886V23.7868L24.2403 25.9113L23.5416 21.7837L23.8066 21.3848ZM30.1601 24.9999L31.7423 26.9529C31.0505 27.4443 30.355 27.9384 30.3192 27.9638L29.054 25.4282L30.1601 24.9999ZM36.1009 18.9458C36.1011 20.7863 34.6064 22.3623 32.6844 22.3623C30.4937 22.3623 29.1502 20.6465 29.1502 18.9458V15.9267C31.1709 16.0074 33.288 15.4122 35.0283 14.329C35.6095 14.9522 35.9553 15.3143 36.101 15.4824C36.1009 17.087 36.1009 17.7067 36.1009 18.9458ZM38.0096 17.4808C38.0096 17.8725 37.7674 18.2213 37.3903 18.3584V16.605C37.7801 16.7469 38.0096 17.1032 38.0096 17.4808ZM27.742 14.3376C27.742 11.6448 29.9328 9.45413 32.6255 9.45413C35.3183 9.45413 37.5089 11.6449 37.5089 14.3376V15.3016C37.4796 15.2955 37.399 15.2815 37.3882 15.2799C37.3795 15.0978 37.3332 14.9864 37.2342 14.8442C37.0649 14.6009 36.7718 14.3106 35.8199 13.2874C35.4875 12.9306 34.9394 12.8502 34.514 13.1282C32.9259 14.1656 30.9194 14.7517 29.0101 14.6276C28.4738 14.5925 28.0853 14.8551 27.9245 15.29C27.9101 15.2923 27.751 15.3244 27.7419 15.3266L27.742 14.3376ZM27.8611 16.642V18.3575C27.4821 18.2209 27.2418 17.8704 27.2418 17.4807C27.2417 17.1014 27.5165 16.79 27.8611 16.642ZM27.3318 9.71022C27.3318 9.98162 27.2143 10.2383 27.0095 10.4144C26.9216 10.49 26.8214 10.5481 26.7125 10.5877V8.83435C27.0979 8.97426 27.3318 9.32858 27.3318 9.71022ZM21.9478 1.68359C24.6406 1.68359 26.8313 3.87431 26.8313 6.56707V7.53103C26.8021 7.52501 26.7214 7.511 26.7106 7.50937C26.7011 7.31197 26.6442 7.19063 26.5281 7.03362C26.3555 6.80004 26.0374 6.4789 25.1423 5.51674C24.8043 5.15383 24.2553 5.08379 23.8364 5.35758C22.1592 6.45329 20.1246 6.98653 18.2805 6.85444C17.8293 6.82032 17.4045 7.09292 17.2469 7.51925C17.2326 7.52157 17.0733 7.55371 17.0644 7.55586V6.56715C17.0644 3.87431 19.2551 1.68359 21.9478 1.68359ZM17.1833 8.87139V10.5878C16.8054 10.4507 16.564 10.1012 16.564 9.71014C16.564 9.33305 16.8368 9.02032 17.1833 8.87139ZM16.0348 16.605C16.3954 16.7362 16.627 17.0508 16.6499 17.4247C16.6788 17.8405 16.4233 18.2165 16.0348 18.3576V16.605ZM15.9751 19.6918C16.583 19.6157 17.141 19.2953 17.5069 18.8025L18.6342 21.0618C18.6342 21.0618 18.6342 21.0618 18.6343 21.0619C18.7661 21.3259 19.0059 21.5184 19.2922 21.59C19.5751 21.6608 19.8779 21.6066 20.1212 21.4338L20.1902 21.3848L20.4551 21.7836L19.7567 25.9101L14.2736 23.7865V22.6131H14.2735C15.1864 21.8771 15.7918 20.837 15.9751 19.6918ZM11.3205 26.0536L9.6536 23.996V23.3777C10.1933 23.5643 10.7765 23.6515 11.3286 23.6516C11.3287 23.6516 11.3289 23.6516 11.3289 23.6516C11.9052 23.6516 12.4793 23.5409 12.9843 23.351V24L11.3205 26.0536ZM12.0773 28.4086L11.8402 28.7655H10.8011L10.564 28.4086L11.3207 27.8712L12.0773 28.4086ZM13.8341 24.9989L14.9427 25.4282L13.6775 27.9638L13.3343 27.7201C13.334 27.7199 13.3336 27.7195 13.3333 27.7193L12.2523 26.9515L13.8341 24.9989ZM7.79477 18.9458V15.9267C9.84086 16.0084 11.9565 15.3972 13.6729 14.329C14.2486 14.9464 14.5997 15.3141 14.7456 15.4824C14.7456 17.0871 14.7456 17.7068 14.7456 18.9458C14.7456 20.8204 13.2172 22.3623 11.3289 22.3623C9.22666 22.3623 7.79477 20.7393 7.79477 18.9458ZM8.80471 24.9999L10.387 26.9529L9.30796 27.7193C9.30736 27.7197 9.30693 27.7201 9.30633 27.7205L8.96387 27.9638L7.69861 25.4282L8.80471 24.9999ZM5.13587 40.3171V30.9001C5.13587 30.5442 4.84738 30.2556 4.49134 30.2556C4.1353 30.2556 3.84681 30.5442 3.84681 30.9001V40.317H1.39777C1.33779 40.317 1.28915 40.2683 1.28915 40.2084V30.1005C1.28915 28.0303 3.03342 27.2413 3.14634 27.1925L6.4911 25.8957L7.95642 28.8323C7.95642 28.8323 7.95642 28.8323 7.95651 28.8324C8.08825 29.0965 8.3281 29.289 8.61444 29.3606C8.89744 29.4313 9.20019 29.3772 9.44348 29.2043L9.51249 29.1554L9.77743 29.5542L8.33755 38.0616C8.33644 38.068 8.33549 38.0744 8.33455 38.0809C8.29313 38.3809 8.38637 38.69 8.58428 38.908L9.865 40.317H5.13587V40.3171ZM9.63126 38.1431L11.0002 30.0546H11.6412L13.0101 38.1431L11.3207 40.0017L9.63126 38.1431ZM21.3553 40.2084C21.3553 40.2683 21.3067 40.317 21.2468 40.317H18.7979V30.9001C18.7979 30.5442 18.5094 30.2556 18.1534 30.2556C17.7974 30.2556 17.5089 30.5442 17.5089 30.9001V40.317H12.7763L14.0572 38.9079C14.255 38.6902 14.3483 38.3811 14.3068 38.0809C14.3058 38.0744 14.3049 38.0681 14.3038 38.0616L12.8639 29.5542L13.1288 29.1554L13.1978 29.2043C13.3703 29.3269 13.5745 29.3908 13.7817 29.3908C14.1597 29.3908 14.5118 29.179 14.6849 28.8324V28.8323L16.15 25.8958L19.4969 27.192C20.4724 27.6164 21.3553 28.7108 21.3553 30.1005L21.3553 40.2084ZM22 27.7584C21.733 27.3282 21.3775 26.9301 20.949 26.5904L21.6779 22.2841H22.3189L23.0481 26.5926C22.6081 26.9419 22.2573 27.3436 22 27.7584ZM26.4912 40.3171V30.9001C26.4912 30.5442 26.2027 30.2556 25.8467 30.2556C25.4906 30.2556 25.2022 30.5442 25.2022 30.9001V40.317H22.7532C22.6933 40.317 22.6446 40.2683 22.6446 40.2084V30.1005C22.6446 29.3343 22.8849 28.6286 23.3967 28.0357C23.738 27.6442 24.1906 27.3273 24.5019 27.1925L27.8466 25.8957L29.3119 28.8323C29.3119 28.8323 29.3119 28.8323 29.312 28.8324C29.4438 29.0965 29.6836 29.289 29.9699 29.3606C30.2529 29.4313 30.5556 29.3772 30.7989 29.2043L30.8679 29.1554L31.1329 29.5542L29.693 38.0616C29.6919 38.068 29.6909 38.0744 29.69 38.0809C29.6486 38.3809 29.7418 38.69 29.9397 38.908L31.2204 40.317H26.4912V40.3171ZM30.9866 38.1432L32.3556 30.0547H32.9966L34.3656 38.1432L32.676 40.0018L30.9866 38.1432Z" fill="black"/>
</svg>
