<svg width="23" height="25" viewBox="0 0 23 25" fill="none" xmlns="http://www.w3.org/2000/svg">
<path d="M19.9193 15.0275C19.7358 14.9201 19.5009 14.9815 19.3941 15.1646L14.9935 22.6701C14.6756 23.2203 13.9704 23.4099 13.4372 23.102L12.5799 22.5465C12.4018 22.4309 12.1641 22.4816 12.049 22.6597C11.9334 22.8375 11.9844 23.0755 12.1622 23.1907L13.0363 23.7566C13.3377 23.9308 13.6674 24.0134 13.993 24.0134C14.6567 24.0134 15.3024 23.6698 15.6568 23.0563L20.0558 15.5526C20.163 15.3699 20.102 15.1346 19.9193 15.0275Z" fill="white"/>
<path d="M21.0805 0.986572H14.9382C13.7504 0.986572 12.8656 1.3647 11.9795 2.25073C11.8294 2.40086 11.8294 2.64348 11.9795 2.79356C12.1297 2.94368 12.3723 2.94368 12.5224 2.79356C13.2702 2.04572 13.9477 1.75434 14.9382 1.75434H21.0805C21.7155 1.75434 22.2322 2.27107 22.2322 2.90603V9.04841C22.2322 10.0393 21.9408 10.7164 21.1927 11.4643L9.79167 22.8814C9.35632 23.316 8.59774 23.3163 8.1632 22.8814L1.10522 15.8234C0.887567 15.6058 0.767764 15.3167 0.767764 15.0088C0.767764 14.7013 0.887522 14.4122 1.10481 14.1949L11.4094 3.90494C11.5679 3.94525 11.7269 3.98556 11.8916 4.02969C13.4533 4.44813 14.6856 4.88041 15.6043 5.26623C15.4234 5.60099 15.3221 5.97605 15.3221 6.3611C15.3221 7.63143 16.3551 8.66449 17.6255 8.66449C18.8958 8.66449 19.9289 7.63143 19.9289 6.3611C19.9289 5.09078 18.8958 4.05772 17.6255 4.05772C17.4132 4.05772 17.2416 4.22971 17.2416 4.4416C17.2416 4.6535 17.4132 4.82548 17.6255 4.82548C18.4724 4.82548 19.161 5.5142 19.161 6.36106C19.161 7.20796 18.4723 7.89663 17.6255 7.89663C16.7786 7.89663 16.0899 7.20791 16.0899 6.36106C16.0899 6.08465 16.1655 5.81477 16.3049 5.57984C16.9698 5.89809 17.3855 6.16644 17.5499 6.33766C17.4796 6.35764 17.371 6.37991 17.2071 6.39408C16.996 6.41288 16.8397 6.59909 16.8585 6.81022C16.8762 7.00983 17.0435 7.16072 17.2405 7.16072C17.2516 7.16072 17.2631 7.15995 17.2747 7.15919C17.5107 7.13809 18.229 7.07475 18.3672 6.55991C18.7454 5.14755 13.2046 3.58661 12.0901 3.28793C10.3852 2.83108 8.74791 2.51859 7.47911 2.40806C5.9201 2.27179 5.16075 2.44913 5.01796 2.98273C4.94962 3.2388 4.76728 3.91866 7.87991 5.14598C8.07687 5.2239 8.30028 5.12717 8.37784 4.92986C8.4554 4.73254 8.35863 4.50949 8.16131 4.43193C6.65759 3.83881 6.0345 3.40422 5.83489 3.19962C6.30826 3.06065 7.92715 3.10096 10.5342 3.69368L0.562394 13.6517C0.199612 14.0145 0 14.4963 0 15.0088C0 15.5217 0.199612 16.0038 0.562394 16.3662L7.62033 23.4242C7.98235 23.7866 8.46453 23.9862 8.97703 23.9862C9.48994 23.9862 9.97171 23.7866 10.3345 23.4238L21.7358 12.0071C22.6222 11.1211 23 10.2362 23 9.04841V2.90607C23 1.84764 22.139 0.986572 21.0805 0.986572Z" fill="white"/>
<path d="M12.5561 11.0804C12.406 10.9302 12.1633 10.9302 12.0133 11.0804L11.806 11.2877C11.5023 11.0865 11.1399 10.9679 10.7491 10.9679C9.69071 10.9679 8.8296 11.829 8.8296 12.8874C8.8296 13.4594 9.0657 13.9116 9.27147 14.2422C9.46343 14.5504 9.59741 14.9896 9.59741 15.1908C9.59741 15.8257 9.08068 16.3425 8.44572 16.3425C7.81076 16.3425 7.29403 15.8257 7.29403 15.1908C7.29403 14.9577 7.36349 14.7332 7.49481 14.5412C7.61456 14.3666 7.56967 14.1274 7.39498 14.0076C7.21993 13.8882 6.98113 13.9328 6.86138 14.1075C6.64215 14.4277 6.52622 14.8023 6.52622 15.1908C6.52622 15.5816 6.64485 15.944 6.84599 16.2477L6.63869 16.455C6.48856 16.6051 6.48856 16.8477 6.63869 16.9978C6.71355 17.0727 6.81184 17.1103 6.9101 17.1103C7.0084 17.1103 7.10665 17.0727 7.18151 16.9978L7.38882 16.7905C7.69248 16.9916 8.05486 17.1103 8.44567 17.1103C9.50406 17.1103 10.3652 16.2492 10.3652 15.1908C10.3652 14.8169 10.1794 14.2472 9.9233 13.836C9.6949 13.4694 9.59736 13.1857 9.59736 12.8874C9.59736 12.2524 10.1141 11.7357 10.7491 11.7357C11.057 11.7357 11.3352 11.8586 11.5418 12.0562C11.5483 12.0632 11.5506 12.0724 11.5571 12.0793C11.5641 12.0858 11.5732 12.0881 11.5802 12.0946C11.7779 12.3012 11.9007 12.5795 11.9007 12.8874C11.9007 13.1952 11.7805 13.4851 11.5625 13.7031C11.4124 13.8528 11.4124 14.0959 11.5621 14.2459C11.7114 14.3961 11.9548 14.3957 12.1049 14.2463C12.4681 13.8832 12.6685 13.4006 12.6685 12.8874C12.6685 12.4965 12.5498 12.1342 12.3487 11.8305L12.556 11.6232C12.7062 11.4731 12.7062 11.2304 12.5561 11.0804Z" fill="white"/>
</svg>
