<svg width="38" height="38" viewBox="0 0 38 38" fill="none" xmlns="http://www.w3.org/2000/svg">
<g id="Group 77">
<g id="Clip path group">
<mask id="mask0_115_5120" style="mask-type:luminance" maskUnits="userSpaceOnUse" x="0" y="0" width="38" height="38">
<g id="clip-path">
<path id="Vector" d="M0.14235 18.9411C0.14235 22.6491 1.2417 26.2737 3.30136 29.3568C5.36102 32.4398 8.28848 34.8428 11.7136 36.2618C15.1387 37.6807 18.9075 38.052 22.5436 37.3286C26.1796 36.6052 29.5196 34.8197 32.141 32.1977C34.7625 29.5758 36.5477 26.2353 37.2709 22.5986C37.9942 18.9619 37.623 15.1924 36.2043 11.7667C34.7856 8.34096 32.3831 5.41296 29.3006 3.35293C26.2181 1.29291 22.5941 0.193376 18.8868 0.193376C16.4243 0.19012 13.9854 0.672818 11.7098 1.61383C9.43415 2.55484 7.36649 3.93566 5.62526 5.6772C3.88404 7.41873 2.50346 9.48676 1.56262 11.7628C0.621782 14.0389 0.139095 16.4782 0.14235 18.9411Z" fill="white"/>
</g>
</mask>
<g mask="url(#mask0_115_5120)">
<g id="Group">
<path id="Vector_2" d="M18.8612 -18.5347L-18.6111 18.9443L18.8611 56.4232L56.3334 18.9442L18.8612 -18.5347Z" fill="url(#paint0_linear_115_5120)"/>
</g>
</g>
</g>
<path id="Vector_3" d="M24.7 11.8438C24.3589 11.8438 24.0319 11.9793 23.7908 12.2204C23.5496 12.4616 23.4142 12.7888 23.4142 13.1299C23.4142 13.471 23.5496 13.7981 23.7908 14.0393C24.0319 14.2805 24.3589 14.416 24.7 14.416C25.041 14.416 25.3682 14.2805 25.6093 14.0393C25.8505 13.7981 25.9859 13.471 25.9859 13.1299C25.9796 12.7908 25.842 12.4673 25.6022 12.2275C25.3625 11.9876 25.039 11.8501 24.7 11.8438Z" fill="white"/>
<path id="Vector_4" d="M18.9619 13.501C17.8908 13.501 16.8438 13.8187 15.9532 14.4138C15.0626 15.009 14.3685 15.855 13.9586 16.8447C13.5488 17.8345 13.4415 18.9235 13.6504 19.9743C13.8594 21.025 14.3752 21.9901 15.1326 22.7476C15.89 23.5051 16.8549 24.021 17.9054 24.23C18.9559 24.439 20.0448 24.3318 21.0343 23.9218C22.0239 23.5118 22.8697 22.8176 23.4648 21.9268C24.0599 21.0361 24.3775 19.9888 24.3775 18.9175C24.371 17.483 23.7983 16.109 22.7841 15.0946C21.7699 14.0802 20.3962 13.5075 18.9619 13.501ZM18.9619 22.3802C18.2772 22.3802 17.6079 22.1771 17.0386 21.7966C16.4692 21.4161 16.0255 20.8754 15.7635 20.2426C15.5015 19.6099 15.4329 18.9137 15.5665 18.242C15.7001 17.5703 16.0298 16.9533 16.5139 16.4691C16.9981 15.9848 17.6149 15.655 18.2865 15.5214C18.958 15.3878 19.6542 15.4564 20.2868 15.7185C20.9194 15.9806 21.4601 16.4244 21.8405 16.9938C22.2209 17.5632 22.424 18.2327 22.424 18.9175C22.424 19.8359 22.0593 20.7166 21.41 21.366C20.7608 22.0154 19.8801 22.3802 18.9619 22.3802Z" fill="white"/>
<path id="Vector_5" d="M23.2655 29.897H14.4867C12.7376 29.8904 11.062 29.1926 9.82514 27.9556C8.58833 26.7185 7.89067 25.0426 7.88416 23.2932V14.4882C7.8907 12.7411 8.58929 11.0677 9.8268 9.83462C11.0643 8.60152 12.7398 7.90917 14.4867 7.90918H23.2655C25.0123 7.90917 26.6879 8.60152 27.9254 9.83462C29.1629 11.0677 29.8615 12.7411 29.868 14.4882V23.2685C29.8615 25.0179 29.1637 26.6938 27.9269 27.9308C26.6901 29.1679 25.0146 29.8657 23.2655 29.8722M14.4867 9.96203C13.2865 9.96203 12.1354 10.4389 11.2868 11.2877C10.4381 12.1365 9.96144 13.2878 9.96144 14.4882V23.2685C9.96144 24.4689 10.4381 25.6201 11.2868 26.4689C12.1354 27.3178 13.2865 27.7946 14.4867 27.7946H23.2655C24.4657 27.7946 25.6167 27.3178 26.4654 26.4689C27.3141 25.6201 27.7908 24.4689 27.7908 23.2685V14.4882C27.7908 13.2878 27.3141 12.1365 26.4654 11.2877C25.6167 10.4389 24.4657 9.96203 23.2655 9.96203H14.4867Z" fill="white"/>
</g>
<defs>
<linearGradient id="paint0_linear_115_5120" x1="39.7414" y1="-7.23888" x2="13.156" y2="19.3418" gradientUnits="userSpaceOnUse">
<stop stop-color="#FFE080"/>
<stop offset="0.21" stop-color="#FCB720"/>
<stop offset="0.38" stop-color="#EE4971"/>
<stop offset="0.52" stop-color="#EC248F"/>
<stop offset="0.74" stop-color="#884A9C"/>
<stop offset="1" stop-color="#5858A6"/>
</linearGradient>
</defs>
</svg>
