<svg width="41" height="16" viewBox="0 0 41 16" fill="none" xmlns="http://www.w3.org/2000/svg">
<path d="M7.84965 12.689C8.00332 12.689 8.15707 12.6304 8.2743 12.5131L9.18207 11.6053C9.41662 11.3707 9.41662 10.9905 9.18207 10.756C8.94752 10.5214 8.56723 10.5214 8.33276 10.756L7.425 11.6638C7.19045 11.8984 7.19045 12.2786 7.425 12.5131C7.54231 12.6304 7.69598 12.689 7.84965 12.689Z" fill="white"/>
<path d="M33.3675 12.5131C33.4848 12.6304 33.6385 12.689 33.7922 12.689C33.9458 12.689 34.0996 12.6304 34.2168 12.5131C34.4514 12.2786 34.4514 11.8983 34.2168 11.6638L33.3091 10.756C33.0745 10.5214 32.6942 10.5214 32.4598 10.756C32.2252 10.9905 32.2252 11.3708 32.4598 11.6053L33.3675 12.5131Z" fill="white"/>
<path d="M39.1888 6.35645C35.7967 4.78116 30.6943 4.63045 29.664 4.61628L24.7983 1.5199C23.3605 0.604929 21.6999 0.121338 19.9957 0.121338H14.2766C12.796 0.121338 11.3133 0.471359 9.98901 1.13352L6.9426 2.65669C6.02483 3.11561 5.04315 3.41278 4.02488 3.54011L1.65073 3.83688C0.709651 3.95443 0 4.75833 0 5.7067V9.53995C0 10.6619 0.753454 11.6608 1.83226 11.969L4.66951 12.7797C5.15686 14.3227 6.60147 15.4446 8.30353 15.4446C9.71922 15.4446 10.9561 14.6679 11.613 13.5188H30.0288C30.6856 14.6679 31.9225 15.4446 33.3382 15.4446C35.4391 15.4446 37.1484 13.7353 37.1484 11.6344C37.1484 9.53346 35.4391 7.8242 33.3382 7.8242C31.2373 7.8242 29.528 9.53338 29.528 11.6344C29.528 11.8677 29.5502 12.0958 29.5906 12.3176H12.0511C12.0915 12.0957 12.1136 11.8677 12.1136 11.6344C12.1136 9.53346 10.4044 7.8242 8.30345 7.8242C6.25393 7.8242 4.57798 9.45106 4.49718 11.4811L2.16219 10.814C1.59643 10.6524 1.20117 10.1285 1.20117 9.53995V7.74164H1.88439C2.21608 7.74164 2.48498 7.47274 2.48498 7.14105C2.48498 6.80937 2.21608 6.54047 1.88439 6.54047H1.20117V5.7067C1.20117 5.36284 1.45846 5.07136 1.79967 5.02876L4.17382 4.73199C5.32759 4.58777 6.43979 4.25096 7.47976 3.73101L7.75371 3.59408L8.86463 4.69988C9.58429 5.41954 10.5411 5.81592 11.5589 5.81592H12.797C13.1287 5.81592 13.3976 5.54702 13.3976 5.21534C13.3976 4.88366 13.1287 4.61475 12.797 4.61475H11.5589C11.4539 4.61475 11.3501 4.60787 11.2474 4.5957L11.911 1.66452C12.6783 1.43934 13.4778 1.32243 14.2767 1.32243H17.3318V4.61467H15.3648C15.0331 4.61467 14.7642 4.88357 14.7642 5.21526C14.7642 5.54694 15.0331 5.81584 15.3648 5.81584H29.4868C29.5437 5.81584 35.2177 5.8365 38.6829 7.44575C38.8863 7.54016 39.0674 7.66949 39.2222 7.8242H38.4737C38.142 7.8242 37.8731 8.0931 37.8731 8.42478C37.8731 8.75647 38.142 9.02537 38.4737 9.02537H39.7879C39.7944 9.09039 39.7988 9.15574 39.7988 9.22204V11.3531C39.7988 11.9481 39.537 12.3176 39.1156 12.3176C38.7839 12.3176 38.515 12.5865 38.515 12.9182C38.515 13.2499 38.7839 13.5188 39.1156 13.5188C39.6475 13.5188 40.1308 13.2999 40.4765 12.9025C40.8189 12.5088 41 11.973 41 11.3531V9.22204C40.9999 7.9922 40.289 6.86735 39.1888 6.35645ZM33.3382 9.02545C34.7768 9.02545 35.9472 10.1959 35.9472 11.6345C35.9472 13.0731 34.7768 14.2435 33.3382 14.2435C31.8996 14.2435 30.7292 13.0731 30.7292 11.6345C30.7292 10.1959 31.8996 9.02545 33.3382 9.02545ZM8.30353 9.02545C9.74213 9.02545 10.9125 10.1959 10.9125 11.6345C10.9125 13.0731 9.74213 14.2435 8.30353 14.2435C6.86492 14.2435 5.69451 13.0731 5.69451 11.6345C5.69451 10.1959 6.86501 9.02545 8.30353 9.02545ZM10.1106 4.17681C9.96955 4.08231 9.8367 3.97333 9.71394 3.85057L8.88954 3.02617L10.5262 2.20785C10.5374 2.20224 10.5488 2.19704 10.56 2.19151L10.1106 4.17681ZM18.5329 1.32243H19.9957C21.471 1.32243 22.9087 1.74116 24.1534 2.53321L27.4244 4.61475H18.5329V1.32243Z" fill="white"/>
<path d="M14.0808 9.75012C13.7492 9.75012 13.4803 10.019 13.4803 10.3507C13.4803 10.6824 13.7492 10.9513 14.0808 10.9513H27.561C27.8927 10.9513 28.1616 10.6824 28.1616 10.3507C28.1616 10.019 27.8927 9.75012 27.561 9.75012H14.0808Z" fill="white"/>
</svg>
