<svg width="25" height="27" viewBox="0 0 25 27" fill="none" xmlns="http://www.w3.org/2000/svg">
<g id="Group">
<g id="Group_2">
<path id="Vector" d="M19.7684 16.4965C19.2559 15.9628 18.6376 15.6775 17.9824 15.6775C17.3325 15.6775 16.7089 15.9576 16.1752 16.4913L14.5055 18.1558C14.3681 18.0818 14.2307 18.0131 14.0986 17.9444C13.9084 17.8493 13.7287 17.7594 13.5755 17.6643C12.0114 16.6709 10.5899 15.3763 9.22665 13.7013C8.56614 12.8664 8.12227 12.1636 7.79994 11.4502C8.23324 11.0539 8.63483 10.6418 9.02585 10.2454C9.17381 10.0975 9.32176 9.94425 9.46972 9.7963C10.5794 8.68664 10.5794 7.24936 9.46972 6.1397L8.02716 4.69714C7.86335 4.53334 7.69426 4.36424 7.53574 4.19515C7.21869 3.86754 6.88579 3.52936 6.54233 3.21231C6.02977 2.70504 5.41681 2.43555 4.77215 2.43555C4.12749 2.43555 3.50397 2.70504 2.97556 3.21231C2.97027 3.21759 2.97027 3.21759 2.96499 3.22288L1.16839 5.03533C0.492028 5.71169 0.106289 6.53601 0.0217433 7.49243C-0.105075 9.03539 0.349358 10.4727 0.698108 11.4132C1.55413 13.7224 2.83289 15.8624 4.74045 18.1558C7.05488 20.9193 9.8396 23.1017 13.0206 24.6393C14.236 25.2153 15.8582 25.897 17.6706 26.0132C17.7816 26.0185 17.8979 26.0238 18.0035 26.0238C19.2242 26.0238 20.2493 25.5852 21.0525 24.7133C21.0578 24.7028 21.0683 24.6975 21.0736 24.6869C21.3484 24.354 21.6654 24.0528 21.9983 23.7305C22.2255 23.5138 22.458 23.2866 22.6853 23.0488C23.2084 22.5046 23.4832 21.8705 23.4832 21.2205C23.4832 20.5653 23.2031 19.9365 22.6694 19.4081L19.7684 16.4965ZM21.6601 22.0607C21.6549 22.0607 21.6549 22.066 21.6601 22.0607C21.4541 22.2826 21.2427 22.4834 21.0155 22.7054C20.672 23.033 20.3233 23.3764 19.9956 23.7622C19.462 24.3329 18.8331 24.6024 18.0088 24.6024C17.9296 24.6024 17.845 24.6024 17.7658 24.5971C16.1964 24.4967 14.738 23.8837 13.6442 23.3606C10.6534 21.9127 8.02716 19.8572 5.84482 17.2522C4.04294 15.0804 2.83817 13.0724 2.04027 10.9165C1.54885 9.60079 1.36919 8.57567 1.44845 7.60868C1.50129 6.99044 1.73908 6.47789 2.17766 6.0393L3.97954 4.23743C4.23846 3.99436 4.51323 3.86225 4.78272 3.86225C5.11562 3.86225 5.38511 4.06305 5.5542 4.23214C5.55948 4.23743 5.56477 4.24271 5.57005 4.24799C5.89238 4.54919 6.19886 4.86095 6.52119 5.19385C6.685 5.36294 6.85409 5.53203 7.02318 5.70641L8.46574 7.14897C9.02585 7.70908 9.02585 8.22692 8.46574 8.78704C8.3125 8.94028 8.16454 9.09351 8.0113 9.24147C7.56744 9.6959 7.14471 10.1186 6.685 10.5308C6.67443 10.5414 6.66386 10.5466 6.65858 10.5572C6.20414 11.0116 6.28869 11.4555 6.3838 11.7567C6.38909 11.7726 6.39437 11.7884 6.39965 11.8043C6.77483 12.7131 7.30324 13.5691 8.10642 14.589L8.1117 14.5943C9.57012 16.3909 11.1078 17.7911 12.804 18.8638C13.0206 19.0012 13.2426 19.1122 13.4539 19.2179C13.6442 19.313 13.8238 19.4028 13.9771 19.4979C13.9982 19.5085 14.0193 19.5243 14.0405 19.5349C14.2201 19.6247 14.3892 19.667 14.5636 19.667C15.0022 19.667 15.2769 19.3922 15.3668 19.3024L17.1739 17.4952C17.3536 17.3156 17.6389 17.0989 17.9718 17.0989C18.2995 17.0989 18.5689 17.305 18.7327 17.4847C18.738 17.49 18.738 17.49 18.7433 17.4952L21.6549 20.4068C22.1991 20.9458 22.1991 21.5006 21.6601 22.0607Z" fill="black"/>
<path id="Vector_2" d="M13.5121 6.94442C14.8966 7.17692 16.1542 7.83215 17.1582 8.83613C18.1621 9.84011 18.8121 11.0977 19.0499 12.4822C19.108 12.8309 19.4092 13.074 19.7527 13.074C19.7949 13.074 19.8319 13.0687 19.8742 13.0634C20.2652 13 20.5241 12.6301 20.4607 12.2391C20.1754 10.564 19.3828 9.03692 18.1727 7.82686C16.9627 6.6168 15.4356 5.82419 13.7605 5.53885C13.3695 5.47544 13.0049 5.73436 12.9362 6.1201C12.8675 6.50584 13.1211 6.88101 13.5121 6.94442Z" fill="black"/>
<path id="Vector_3" d="M24.9891 12.0324C24.5188 9.27406 23.2189 6.76411 21.2215 4.76672C19.2241 2.76933 16.7142 1.46944 13.9559 0.999157C13.5702 0.930463 13.2056 1.19467 13.1369 1.58041C13.0735 1.97143 13.3324 2.33603 13.7234 2.40473C16.1858 2.82217 18.4315 3.98996 20.2176 5.7707C22.0036 7.55673 23.1661 9.80247 23.5835 12.2649C23.6417 12.6136 23.9429 12.8567 24.2863 12.8567C24.3286 12.8567 24.3656 12.8514 24.4079 12.8461C24.7936 12.788 25.0578 12.4181 24.9891 12.0324Z" fill="black"/>
</g>
</g>
</svg>
