<svg width="26" height="35" viewBox="0 0 26 35" fill="none" xmlns="http://www.w3.org/2000/svg">
<g id="Group">
<g id="Group_2">
<g id="Group_3">
<path id="Vector" d="M12.9292 0C5.79987 0 0 5.79987 0 12.9292C0 15.2762 1.05259 17.8004 1.0967 17.9069C1.43666 18.7138 2.10745 19.9672 2.59116 20.7019L11.456 34.1337C11.8188 34.6844 12.3557 35 12.9292 35C13.5026 35 14.0395 34.6844 14.4023 34.1345L23.2679 20.7019C23.7524 19.9672 24.4224 18.7138 24.7624 17.9069C24.8065 17.8012 25.8583 15.2769 25.8583 12.9292C25.8583 5.79987 20.0585 0 12.9292 0ZM23.36 17.3167C23.0565 18.04 22.4321 19.2059 21.9978 19.8645L13.1322 33.2971C12.9573 33.5626 12.9018 33.5626 12.7269 33.2971L3.86126 19.8645C3.42699 19.2059 2.80259 18.0392 2.49913 17.3159C2.4862 17.2848 1.52108 14.9613 1.52108 12.9292C1.52108 6.63874 6.63874 1.52108 12.9292 1.52108C19.2196 1.52108 24.3372 6.63874 24.3372 12.9292C24.3372 14.9644 23.3698 17.2939 23.36 17.3167Z" fill="black"/>
<path id="Vector_2" d="M12.9292 6.08594C9.15462 6.08594 6.08432 9.15699 6.08432 12.9308C6.08432 16.7046 9.15462 19.7756 12.9292 19.7756C16.7037 19.7756 19.774 16.7046 19.774 12.9308C19.774 9.15699 16.7037 6.08594 12.9292 6.08594ZM12.9292 18.2546C9.99425 18.2546 7.6054 15.8665 7.6054 12.9308C7.6054 9.99511 9.99425 7.60702 12.9292 7.60702C15.8641 7.60702 18.2529 9.99511 18.2529 12.9308C18.2529 15.8665 15.8641 18.2546 12.9292 18.2546Z" fill="black"/>
</g>
</g>
</g>
</svg>
