<svg width="32" height="32" viewBox="0 0 32 32" fill="none" xmlns="http://www.w3.org/2000/svg">
<g id="fi_3670089" clip-path="url(#clip0_244_1076)">
<g id="Layer 2">
<g id="24.line">
<path id="background" d="M16 32C24.8366 32 32 24.8366 32 16C32 7.16344 24.8366 0 16 0C7.16344 0 0 7.16344 0 16C0 24.8366 7.16344 32 16 32Z" fill="#39CD00"/>
<g id="icon">
<path id="shade" d="M26 15.6371C25.9858 15.8402 25.9597 16.0424 25.9218 16.2425C25.7953 17.0087 25.5363 17.7471 25.1564 18.4243C24.9745 18.748 24.1 19.9771 23.8327 20.3007C22.3545 22.0807 19.8782 24.1353 15.74 26.1334C15.6527 26.1756 15.5557 26.1938 15.4591 26.186C15.3624 26.1782 15.2696 26.1448 15.1902 26.0893C15.1107 26.0337 15.0475 25.958 15.007 25.8699C14.9666 25.7818 14.9503 25.6845 14.96 25.588L15.1691 23.7098C15.1849 23.5661 15.1431 23.422 15.0527 23.3092C14.9624 23.1963 14.8309 23.124 14.6873 23.108C13.3106 22.9703 11.9696 22.5879 10.7273 21.9789C7.89091 20.5771 6 18.0734 6 15.2207C6 10.828 10.4764 7.27344 16 7.27344C18.7745 7.27344 21.2836 8.18253 23.0909 9.62435C24.7836 10.9789 25.8673 12.8171 25.9836 14.8571C26.003 15.1166 26.0085 15.377 26 15.6371Z" fill="white"/>
<g id="Group">
<path id="Vector" d="M13.2436 16.9806C13.292 17.0279 13.3303 17.0845 13.3562 17.147C13.3822 17.2095 13.3952 17.2766 13.3945 17.3443C13.3948 17.4115 13.3817 17.4782 13.3562 17.5403C13.3306 17.6025 13.293 17.6591 13.2455 17.7067C13.1981 17.7543 13.1417 17.7921 13.0796 17.8179C13.0175 17.8437 12.9509 17.857 12.8836 17.857H10.8382C10.7023 17.8565 10.5722 17.8023 10.4762 17.7063C10.3801 17.6102 10.3259 17.4801 10.3255 17.3443V13.4806C10.325 13.413 10.3381 13.346 10.364 13.2835C10.39 13.2211 10.4282 13.1644 10.4764 13.117C10.5479 13.0452 10.6392 12.9963 10.7386 12.9766C10.8381 12.9568 10.9411 12.9671 11.0347 13.0061C11.1283 13.0451 11.2081 13.111 11.2641 13.1955C11.3201 13.28 11.3497 13.3793 11.3491 13.4806V16.8315H12.8836C12.9506 16.831 13.0169 16.844 13.0788 16.8696C13.1406 16.8952 13.1967 16.933 13.2436 16.9806Z" fill="#00C200"/>
<path id="Vector_2" d="M14.909 13.3688V17.4542C14.9085 17.5602 14.8662 17.6616 14.7913 17.7365C14.7164 17.8114 14.6149 17.8537 14.509 17.8542H14.2799C14.1738 17.8542 14.0721 17.8121 13.997 17.7371C13.922 17.662 13.8799 17.5603 13.8799 17.4542V13.3688C13.8799 13.2627 13.922 13.1609 13.997 13.0859C14.0721 13.0109 14.1738 12.9688 14.2799 12.9688H14.5035C14.5564 12.9683 14.6089 12.9783 14.658 12.9981C14.707 13.018 14.7517 13.0474 14.7894 13.0845C14.827 13.1217 14.857 13.1659 14.8775 13.2147C14.898 13.2635 14.9087 13.3158 14.909 13.3688Z" fill="#00C200"/>
<path id="Vector_3" d="M19.6581 13.4797V17.3215C19.6582 17.4597 19.6045 17.5926 19.5085 17.692C19.4125 17.7914 19.2816 17.8496 19.1435 17.8543C19.0141 17.8522 18.8901 17.8016 18.7963 17.7125C18.7781 17.6979 18.0908 16.8034 17.5072 16.0506C17.0708 15.4888 16.6926 14.9979 16.6926 14.9979V17.3415C16.693 17.4409 16.6643 17.5382 16.6103 17.6215C16.5562 17.7048 16.479 17.7705 16.3881 17.8107C16.2972 17.8508 16.1966 17.8636 16.0986 17.8474C16.0006 17.8313 15.9094 17.7869 15.8363 17.7197C15.7835 17.6719 15.7413 17.6135 15.7125 17.5484C15.6837 17.4832 15.6689 17.4128 15.669 17.3415V13.5015C15.6673 13.3666 15.7175 13.2361 15.8091 13.1369C15.9008 13.0378 16.027 12.9777 16.1617 12.9688C16.238 12.9676 16.3135 12.9832 16.383 13.0147C16.4525 13.0461 16.5141 13.0925 16.5635 13.1506C16.5853 13.1761 17.6417 14.5506 18.2363 15.3325C18.4726 15.6379 18.6363 15.8525 18.6363 15.8525V13.4888C18.6372 13.3536 18.6913 13.2242 18.787 13.1286C18.8826 13.033 19.012 12.9789 19.1472 12.9779C19.2811 12.9779 19.4097 13.0305 19.5053 13.1243C19.6008 13.2182 19.6557 13.3458 19.6581 13.4797Z" fill="#00C200"/>
<path id="Vector_4" d="M21.4546 15.9224V16.8315H22.9874C23.0571 16.8273 23.127 16.8375 23.1927 16.8613C23.2585 16.8851 23.3186 16.9222 23.3695 16.9701C23.4204 17.018 23.4609 17.0759 23.4886 17.1401C23.5163 17.2042 23.5306 17.2734 23.5306 17.3433C23.5306 17.4132 23.5163 17.4824 23.4886 17.5465C23.4609 17.6107 23.4204 17.6685 23.3695 17.7165C23.3186 17.7644 23.2585 17.8014 23.1927 17.8253C23.127 17.8491 23.0571 17.8593 22.9874 17.8551H20.9364C20.8008 17.8546 20.6708 17.8004 20.5751 17.7043C20.4793 17.6082 20.4255 17.4781 20.4255 17.3424V13.4806C20.426 13.3452 20.48 13.2155 20.5757 13.1198C20.6714 13.0241 20.8011 12.9701 20.9364 12.9697H22.9819C23.0517 12.9655 23.1216 12.9756 23.1873 12.9995C23.253 13.0233 23.3131 13.0604 23.364 13.1083C23.4149 13.1562 23.4554 13.2141 23.4831 13.2782C23.5109 13.3424 23.5251 13.4116 23.5251 13.4815C23.5251 13.5514 23.5109 13.6205 23.4831 13.6847C23.4554 13.7489 23.4149 13.8067 23.364 13.8547C23.3131 13.9026 23.253 13.9396 23.1873 13.9635C23.1216 13.9873 23.0517 13.9975 22.9819 13.9933H21.4546V14.9024H22.9874C23.1229 14.9024 23.2528 14.9562 23.3486 15.052C23.4444 15.1478 23.4983 15.2778 23.4983 15.4133C23.4983 15.5488 23.4444 15.6787 23.3486 15.7746C23.2528 15.8704 23.1229 15.9242 22.9874 15.9242L21.4546 15.9224Z" fill="#00C200"/>
</g>
</g>
</g>
</g>
</g>
<defs>
<clipPath id="clip0_244_1076">
<rect width="32" height="32" fill="white"/>
</clipPath>
</defs>
</svg>
