<svg width="39" height="38" viewBox="0 0 39 38" fill="none" xmlns="http://www.w3.org/2000/svg">
<g id="Group 78">
<g id="Clip path group">
<mask id="mask0_115_5135" style="mask-type:luminance" maskUnits="userSpaceOnUse" x="0" y="0" width="39" height="38">
<g id="clip-path-3">
<path id="Vector" d="M0.848527 18.9411C0.84853 22.6501 1.94844 26.2758 4.0092 29.3594C6.06995 32.4429 8.9988 34.8459 12.4253 36.2641C15.8519 37.6823 19.6221 38.0522 23.2588 37.3268C26.8955 36.6014 30.2353 34.8134 32.8558 32.189C35.4763 29.5646 37.2596 26.2218 37.9801 22.5834C38.7006 18.9451 38.3257 15.1748 36.9032 11.7495C35.4807 8.32423 33.0745 5.39795 29.9887 3.3409C26.903 1.28385 23.2764 0.188483 19.568 0.193376C17.1077 0.193374 14.6714 0.678475 12.3986 1.62094C10.1258 2.56341 8.06114 3.94474 6.32254 5.68595C4.58393 7.42716 3.20553 9.4941 2.26623 11.7685C1.32694 14.043 0.845277 16.4803 0.848527 18.9411Z" fill="white"/>
</g>
</mask>
<g mask="url(#mask0_115_5135)">
<g id="Group">
<path id="Vector_2" d="M19.5768 -18.5336L-17.8954 18.9453L19.5768 56.4242L57.049 18.9453L19.5768 -18.5336Z" fill="#0066C7"/>
</g>
</g>
</g>
<path id="Vector_3" d="M11.7297 15.4536H15.3649V27.1029H11.7297V15.4536ZM13.5349 9.66602C13.9517 9.66604 14.359 9.78999 14.7052 10.0221C15.0514 10.2542 15.3209 10.584 15.4792 10.9696C15.6375 11.3552 15.6776 11.7792 15.5945 12.1877C15.5114 12.5961 15.3087 12.9707 15.0122 13.2637C14.7158 13.5567 14.3391 13.7549 13.9297 13.8332C13.5204 13.9115 13.097 13.8664 12.7134 13.7034C12.3297 13.5405 12.0031 13.2672 11.7752 12.9183C11.5472 12.5693 11.4281 12.1604 11.433 11.7436C11.4395 11.1903 11.6638 10.6619 12.0573 10.273C12.4507 9.88408 12.9817 9.66598 13.5349 9.66602Z" fill="white"/>
<path id="Vector_4" d="M17.6153 15.4567H21.102V16.9654C21.4489 16.3682 21.9526 15.8773 22.5585 15.5459C23.1644 15.2146 23.8494 15.0554 24.5393 15.0857C28.1992 15.0857 28.8668 17.559 28.8668 20.6506V27.106H25.2565V21.4421C25.2565 20.0818 25.2565 18.3504 23.3771 18.3504C21.4978 18.3504 21.201 19.8097 21.201 21.3432V27.106H17.5658L17.6153 15.4567Z" fill="white"/>
</g>
</svg>
