<svg width="35" height="35" viewBox="0 0 35 35" fill="none" xmlns="http://www.w3.org/2000/svg">
<g id="fi_927667">
<g id="Group">
<g id="Group_2">
<g id="Group_3">
<path id="Vector" d="M17.5 0C10.3707 0 4.5708 5.79987 4.5708 12.9292C4.5708 15.2762 5.62339 17.8004 5.6675 17.9069C6.00746 18.7138 6.67825 19.9672 7.16196 20.7019L16.0268 34.1337C16.3896 34.6844 16.9265 35 17.5 35C18.0734 35 18.6103 34.6844 18.9731 34.1345L27.8387 20.7019C28.3232 19.9672 28.9932 18.7138 29.3332 17.9069C29.3773 17.8012 30.4291 15.2769 30.4291 12.9292C30.4291 5.79987 24.6293 0 17.5 0ZM27.9308 17.3167C27.6273 18.04 27.0029 19.2059 26.5686 19.8645L17.703 33.2971C17.5281 33.5626 17.4726 33.5626 17.2977 33.2971L8.43206 19.8645C7.99779 19.2059 7.37339 18.0392 7.06993 17.3159C7.057 17.2848 6.09188 14.9613 6.09188 12.9292C6.09188 6.63874 11.2095 1.52108 17.5 1.52108C23.7904 1.52108 28.908 6.63874 28.908 12.9292C28.908 14.9644 27.9406 17.2939 27.9308 17.3167Z" fill="white"/>
<path id="Vector_2" d="M17.4999 6.08496C13.7254 6.08496 10.6551 9.15602 10.6551 12.9298C10.6551 16.7036 13.7254 19.7747 17.4999 19.7747C21.2745 19.7747 24.3448 16.7036 24.3448 12.9298C24.3448 9.15602 21.2745 6.08496 17.4999 6.08496ZM17.4999 18.2536C14.565 18.2536 12.1762 15.8655 12.1762 12.9298C12.1762 9.99413 14.565 7.60604 17.4999 7.60604C20.4349 7.60604 22.8237 9.99413 22.8237 12.9298C22.8237 15.8655 20.4349 18.2536 17.4999 18.2536Z" fill="white"/>
</g>
</g>
</g>
</g>
</svg>
