<svg width="170" height="49" viewBox="0 0 170 49" fill="none" xmlns="http://www.w3.org/2000/svg">
<path d="M113.379 13.7018L111.755 22.8824C111.478 24.4423 110.84 25.6328 109.846 26.4596C108.851 27.2865 107.605 27.697 106.115 27.697C104.743 27.697 103.662 27.3628 102.871 26.6942C102.08 26.0257 101.685 25.0551 101.685 23.7855C101.685 23.419 101.723 23.0202 101.803 22.5862H105.663C105.625 22.7974 105.604 22.9938 105.604 23.1756C105.604 23.8705 105.926 24.2165 106.572 24.2165C107.257 24.2165 107.694 23.7708 107.877 22.8795L109.5 13.6988H113.379V13.7018Z" fill="black"/>
<path d="M122.46 25.2985H117.514L116.365 27.5592H112.289L119.831 13.7018H124.302L126.914 27.5592H122.817L122.46 25.2985ZM122.006 22.3693L121.312 17.8684L119.016 22.3693H122.006Z" fill="black"/>
<path d="M139.842 20.61C139.334 21.299 138.652 21.8473 137.793 22.2608C136.934 22.6742 135.94 22.8795 134.806 22.8795H132.888L132.056 27.5563H128.157L130.63 13.6988H136.427C137.891 13.6988 139.006 14.0302 139.771 14.6928C140.535 15.3555 140.919 16.2439 140.919 17.3552C140.919 17.6309 140.886 17.9505 140.819 18.317C140.677 19.1585 140.349 19.9238 139.842 20.61ZM136.884 18.3199C136.911 18.1381 136.923 18.0062 136.923 17.927C136.923 17.5722 136.808 17.2937 136.577 17.0913C136.347 16.889 135.993 16.7864 135.518 16.7864H133.974L133.44 19.8329H134.984C136.079 19.8329 136.713 19.3315 136.884 18.3199Z" fill="black"/>
<path d="M148.903 25.2985H143.956L142.808 27.5592H138.732L146.27 13.7018H150.742L153.354 27.5592H149.257L148.903 25.2985ZM148.448 22.3693L147.758 17.8684L145.461 22.3693H148.448Z" fill="black"/>
<path d="M167.541 27.5592H163.642L159.882 19.8153L158.498 27.5592H154.599L157.072 13.7018H160.951L164.729 21.5453L166.113 13.7018H169.991L167.541 27.5592Z" fill="black"/>
<path d="M15.7964 33.3473C17.8772 32.6905 20.5188 32.1275 23.848 31.7874V17.5077L39.2194 0.27533H29.1548L23.2696 7.39172C22.3398 8.52061 21.6315 9.39146 21.1386 10.0072C20.6486 10.623 20.2738 11.1097 20.017 11.4674C19.8871 11.2886 19.6687 11.0188 19.3588 10.6611C19.0489 10.3034 18.7125 9.91632 18.3524 9.50582C17.9923 9.09531 17.6411 8.70533 17.3075 8.33295C16.9711 7.96056 16.6995 7.65855 16.4929 7.42984L10.2978 0.27533H0L15.7964 17.4696V33.3473Z" fill="black"/>
<path d="M60.9011 6.96948C62.2942 6.96948 63.3803 7.21872 64.1536 7.72012C64.9269 8.21859 65.3135 8.96923 65.3135 9.9691C65.3135 10.8663 64.8885 11.573 64.0356 12.0832C63.1826 12.5963 62.1377 12.8514 60.8981 12.8514H38.3694V27.7381C40.8427 26.4098 43.5168 25.3513 46.3827 24.5596V19.1996H58.6934L61.76 22.8179C66.6919 22.9264 70.3045 23.3721 73.2767 24.0025L70.4226 21.0058C69.5194 20.1086 68.7963 19.4048 68.2532 18.8917C67.7102 18.3786 67.2202 17.9563 66.7834 17.6221C67.84 17.4168 68.7904 17.065 69.6286 16.5636C70.4669 16.0651 71.1782 15.4552 71.7596 14.7368C72.341 14.0184 72.7867 13.2121 73.0966 12.3148C73.4065 11.4176 73.56 10.4676 73.56 9.4677C73.56 7.62043 73.1409 6.11036 72.3027 4.92869C71.4645 3.74996 70.399 2.81166 69.1092 2.11967C67.8194 1.42767 66.3849 0.946797 64.8118 0.677037C63.2357 0.41021 61.7127 0.27533 60.2429 0.27533H43.5965L38.3694 6.96948H60.9011Z" fill="black"/>
<path d="M80.8 0.27533L75.6113 6.96948H87.7685V28.4007C89.9703 28.9432 92.5499 29.4094 95.7818 29.7349V6.96948H105.035L110.223 0.27533H80.8Z" fill="black"/>
<path d="M61.2995 24.1755C41.5954 23.8265 33.7237 32.8342 33.1836 32.8225C12.4789 32.3973 9.47427 38.8569 9.47427 38.8569C13.9015 37.47 18.6711 36.775 22.8977 36.4466C28.3314 36.0244 33.7946 36.2032 39.1928 36.9334C47.6754 38.0769 68.5041 40.0884 78.9406 34.0862C78.9406 34.0862 52.3004 37.2178 41.4802 32.8166C54.9745 25.9142 64.8826 28.518 79.6607 32.497C96.5462 37.0419 99.8135 31.4121 99.8135 31.4121C79.6371 30.3389 81.0037 24.5244 61.2995 24.1755Z" fill="#D60000"/>
<path d="M12.7121 43.4164L11.3721 45.9938V47.2664H10.4276V45.9938L9.08765 43.4164H10.159L10.9087 45.0291L11.6525 43.4164H12.7121Z" fill="black"/>
<path d="M14.2321 47.1168C13.9901 46.9878 13.8012 46.806 13.6624 46.5685C13.5237 46.331 13.4558 46.0524 13.4558 45.7357C13.4558 45.422 13.5267 45.1434 13.6654 44.9059C13.8041 44.6655 13.996 44.4837 14.238 44.3547C14.48 44.2257 14.7545 44.1641 15.0555 44.1641C15.3566 44.1641 15.6281 44.2286 15.8731 44.3547C16.1151 44.4837 16.307 44.6655 16.4457 44.9059C16.5844 45.1464 16.6553 45.422 16.6553 45.7357C16.6553 46.0495 16.5844 46.328 16.4428 46.5655C16.3011 46.806 16.1092 46.9878 15.8643 47.1168C15.6193 47.2458 15.3477 47.3074 15.0437 47.3074C14.7427 47.3103 14.4741 47.2458 14.2321 47.1168ZM15.5071 46.3017C15.634 46.1697 15.699 45.982 15.699 45.7357C15.699 45.4894 15.637 45.3018 15.513 45.1698C15.3891 45.0379 15.2385 44.9734 15.0585 44.9734C14.8755 44.9734 14.722 45.0379 14.601 45.1669C14.48 45.2959 14.418 45.4865 14.418 45.7357C14.418 45.982 14.4771 46.1697 14.5981 46.3017C14.7191 46.4336 14.8667 46.4981 15.0467 46.4981C15.2267 46.4981 15.3802 46.4336 15.5071 46.3017Z" fill="black"/>
<path d="M20.7519 44.2052V47.2664H19.8074V46.85C19.713 46.9849 19.5831 47.0934 19.4179 47.1755C19.2555 47.2576 19.0725 47.2986 18.8748 47.2986C18.6387 47.2986 18.4321 47.2458 18.252 47.1432C18.072 47.0376 17.9332 46.8881 17.8329 46.6917C17.7325 46.4952 17.6824 46.2606 17.6824 45.9938V44.2052H18.6209V45.8677C18.6209 46.073 18.6741 46.2313 18.7803 46.3457C18.8866 46.46 19.0312 46.5157 19.2112 46.5157C19.3942 46.5157 19.5418 46.46 19.6481 46.3457C19.7543 46.2313 19.8074 46.073 19.8074 45.8677V44.2052H20.7519Z" fill="black"/>
<path d="M23.3404 44.3195C23.5057 44.2227 23.6887 44.1729 23.8923 44.1729V45.164H23.6326C23.3965 45.164 23.2194 45.2138 23.1013 45.3135C22.9833 45.4132 22.9242 45.5891 22.9242 45.8413V47.2605H21.9798V44.1993H22.9242V44.7095C23.0394 44.5482 23.1751 44.4163 23.3404 44.3195Z" fill="black"/>
<path d="M29.1932 44.6332C29.1224 44.5042 29.022 44.4075 28.8921 44.34C28.7623 44.2726 28.6088 44.2374 28.4317 44.2374C28.1248 44.2374 27.8827 44.3371 27.6968 44.5365C27.5138 44.7359 27.4193 45.0027 27.4193 45.334C27.4193 45.6888 27.5167 45.9645 27.7086 46.1638C27.9004 46.3632 28.169 46.4629 28.5055 46.4629C28.7387 46.4629 28.9335 46.4043 29.0928 46.287C29.2522 46.1697 29.3703 46.0026 29.4441 45.7827H28.2458V45.0907H30.3V45.9615C30.2292 46.1961 30.1111 46.4131 29.9429 46.6154C29.7746 46.8177 29.5621 46.979 29.3054 47.1021C29.0486 47.2253 28.7564 47.2898 28.4347 47.2898C28.051 47.2898 27.7115 47.2077 27.4105 47.0406C27.1094 46.8734 26.8763 46.6418 26.711 46.3456C26.5428 46.0495 26.4601 45.7123 26.4601 45.3311C26.4601 44.9499 26.5428 44.6127 26.711 44.3136C26.8792 44.0146 27.1124 43.7829 27.4105 43.6187C27.7086 43.4516 28.048 43.3695 28.4317 43.3695C28.8951 43.3695 29.2876 43.4809 29.6035 43.7037C29.9222 43.9266 30.1318 44.2345 30.2351 44.6303H29.1932V44.6332Z" fill="black"/>
<path d="M31.3685 44.903C31.4895 44.6655 31.6518 44.4837 31.8555 44.3547C32.0621 44.2257 32.2923 44.1641 32.5461 44.1641C32.7645 44.1641 32.9534 44.2081 33.1187 44.296C33.281 44.384 33.4079 44.4984 33.4965 44.642V44.2081H34.441V47.2693H33.4965V46.8353C33.405 46.979 33.2751 47.0933 33.1128 47.1813C32.9505 47.2693 32.7586 47.3132 32.5402 47.3132C32.2893 47.3132 32.0621 47.2487 31.8555 47.1197C31.6488 46.9907 31.4865 46.806 31.3685 46.5655C31.2474 46.3251 31.1884 46.0495 31.1884 45.7357C31.1914 45.4161 31.2504 45.1405 31.3685 44.903ZM33.3017 45.1816C33.1718 45.0467 33.0124 44.9792 32.8235 44.9792C32.6346 44.9792 32.4753 45.0467 32.3454 45.1786C32.2155 45.3135 32.1506 45.4953 32.1506 45.7299C32.1506 45.9645 32.2155 46.1492 32.3454 46.287C32.4753 46.4248 32.6346 46.4922 32.8235 46.4922C33.0124 46.4922 33.1689 46.4248 33.3017 46.2899C33.4316 46.155 33.4965 45.9703 33.4965 45.7357C33.4965 45.5012 33.4316 45.3164 33.3017 45.1816Z" fill="black"/>
<path d="M37.3954 46.4717V47.2663H36.9143C36.5719 47.2663 36.3063 47.1843 36.1144 47.0171C35.9226 46.85 35.8281 46.5802 35.8281 46.202V44.9851H35.4533V44.2052H35.8281V43.4604H36.7726V44.2052H37.3895V44.9851H36.7726V46.2137C36.7726 46.3046 36.7933 46.372 36.8376 46.4102C36.8818 46.4512 36.9556 46.4717 37.0589 46.4717H37.3954Z" fill="black"/>
<path d="M41.3563 45.9615H39.2194C39.2342 46.1521 39.2961 46.2958 39.4053 46.3984C39.5146 46.4981 39.6474 46.5479 39.8067 46.5479C40.0429 46.5479 40.2052 46.4483 40.2967 46.2518H41.3002C41.25 46.4541 41.1556 46.633 41.0228 46.7942C40.887 46.9555 40.7188 47.0816 40.5181 47.1725C40.3144 47.2634 40.0901 47.3103 39.8392 47.3103C39.5382 47.3103 39.2696 47.2458 39.0335 47.1197C38.7973 46.9907 38.6143 46.8089 38.4815 46.5714C38.3487 46.3339 38.2838 46.0553 38.2838 45.7387C38.2838 45.422 38.3487 45.1434 38.4786 44.9059C38.6084 44.6684 38.7914 44.4866 39.0276 44.3576C39.2637 44.2286 39.5323 44.167 39.8392 44.167C40.1373 44.167 40.403 44.2286 40.6332 44.3547C40.8663 44.4778 41.0464 44.6567 41.1762 44.8854C41.3061 45.117 41.371 45.3839 41.371 45.6918C41.374 45.7739 41.3681 45.8648 41.3563 45.9615ZM40.4089 45.4396C40.4089 45.2783 40.3528 45.1522 40.2436 45.0555C40.1344 44.9616 39.9956 44.9118 39.8304 44.9118C39.671 44.9118 39.5382 44.9587 39.429 45.0496C39.3198 45.1405 39.2519 45.2695 39.2283 45.4396H40.4089Z" fill="black"/>
<path d="M46.8431 44.2052L46.0108 47.2664H44.9689L44.4819 45.2813L43.9801 47.2664H42.9412L42.103 44.2052H43.0475L43.4843 46.3926L44.0038 44.2052H45.0043L45.5297 46.3808L45.9606 44.2052H46.8431Z" fill="black"/>
<path d="M47.7463 44.903C47.8673 44.6655 48.0296 44.4837 48.2333 44.3547C48.4399 44.2257 48.6701 44.1641 48.9239 44.1641C49.1423 44.1641 49.3312 44.2081 49.4965 44.296C49.6588 44.384 49.7857 44.4984 49.8743 44.642V44.2081H50.8188V47.2693H49.8743V46.8353C49.7828 46.979 49.6529 47.0933 49.4906 47.1813C49.3283 47.2693 49.1364 47.3132 48.918 47.3132C48.6671 47.3132 48.4399 47.2487 48.2333 47.1197C48.0267 46.9907 47.8643 46.806 47.7463 46.5655C47.6253 46.3251 47.5662 46.0495 47.5662 45.7357C47.5662 45.4161 47.6253 45.1405 47.7463 44.903ZM49.6765 45.1816C49.5467 45.0467 49.3873 44.9792 49.1984 44.9792C49.0095 44.9792 48.8501 45.0467 48.7203 45.1786C48.5904 45.3135 48.5255 45.4953 48.5255 45.7299C48.5255 45.9645 48.5904 46.1492 48.7203 46.287C48.8501 46.4248 49.0095 46.4922 49.1984 46.4922C49.3873 46.4922 49.5437 46.4248 49.6765 46.2899C49.8064 46.155 49.8713 45.9703 49.8713 45.7357C49.8743 45.5012 49.8094 45.3164 49.6765 45.1816Z" fill="black"/>
<path d="M55.2017 44.2052L53.2685 48.7178H52.2532L52.9586 47.1608L51.7042 44.2052H52.7579L53.4692 46.1199L54.1746 44.2052H55.2017Z" fill="black"/>
<path d="M60.603 43.4164V44.167H59.5758V47.2664H58.6314V44.167H57.6042V43.4164H60.603Z" fill="black"/>
<path d="M62.2174 47.1168C61.9754 46.9878 61.7865 46.806 61.6478 46.5685C61.5091 46.331 61.4412 46.0524 61.4412 45.7357C61.4412 45.422 61.512 45.1434 61.6508 44.9059C61.7895 44.6655 61.9813 44.4837 62.2233 44.3547C62.4654 44.2257 62.7398 44.1641 63.0409 44.1641C63.342 44.1641 63.6135 44.2286 63.8585 44.3547C64.1005 44.4837 64.2923 44.6655 64.4311 44.9059C64.5698 45.1464 64.6406 45.422 64.6406 45.7357C64.6406 46.0495 64.5698 46.328 64.4281 46.5655C64.2864 46.806 64.0946 46.9878 63.8496 47.1168C63.6046 47.2458 63.3331 47.3074 63.0291 47.3074C62.731 47.3103 62.4595 47.2458 62.2174 47.1168ZM63.4925 46.3017C63.6194 46.1697 63.6843 45.982 63.6843 45.7357C63.6843 45.4894 63.6223 45.3018 63.4984 45.1698C63.3744 45.0379 63.2239 44.9734 63.0439 44.9734C62.8609 44.9734 62.7074 45.0379 62.5864 45.1669C62.4654 45.2959 62.4034 45.4865 62.4034 45.7357C62.4034 45.982 62.4624 46.1697 62.5834 46.3017C62.7044 46.4336 62.852 46.4981 63.032 46.4981C63.2121 46.4981 63.3656 46.4336 63.4925 46.3017Z" fill="black"/>
<path d="M70.2071 43.4164V44.167H69.18V47.2664H68.2356V44.167H67.2084V43.4164H70.2071Z" fill="black"/>
<path d="M73.9761 44.5218C74.1887 44.7535 74.2949 45.0731 74.2949 45.4777V47.2663H73.3563V45.6038C73.3563 45.3986 73.3032 45.2402 73.197 45.1259C73.0907 45.0115 72.9461 44.9558 72.766 44.9558C72.586 44.9558 72.4414 45.0115 72.3351 45.1259C72.2289 45.2402 72.1757 45.3986 72.1757 45.6038V47.2663H71.2313V43.2082H72.1757V44.6186C72.2702 44.4837 72.403 44.3752 72.5683 44.2961C72.7336 44.2169 72.9195 44.1758 73.1261 44.1758C73.4803 44.1729 73.7636 44.2902 73.9761 44.5218Z" fill="black"/>
<path d="M78.3916 45.9615H76.2547C76.2695 46.1521 76.3314 46.2958 76.4407 46.3984C76.5499 46.4981 76.6827 46.5479 76.8421 46.5479C77.0782 46.5479 77.2405 46.4483 77.332 46.2518H78.3355C78.2853 46.4541 78.1909 46.633 78.0581 46.7942C77.9223 46.9555 77.7541 47.0816 77.5534 47.1725C77.3497 47.2634 77.1254 47.3103 76.8745 47.3103C76.5735 47.3103 76.3049 47.2458 76.0688 47.1197C75.8327 46.9907 75.6497 46.8089 75.5168 46.5714C75.384 46.3339 75.3191 46.0553 75.3191 45.7387C75.3191 45.422 75.384 45.1434 75.5139 44.9059C75.6438 44.6684 75.8267 44.4866 76.0629 44.3576C76.299 44.2286 76.5676 44.167 76.8745 44.167C77.1726 44.167 77.4383 44.2286 77.6685 44.3547C77.9016 44.4778 78.0817 44.6567 78.2115 44.8854C78.3414 45.1141 78.4063 45.3839 78.4063 45.6918C78.4093 45.7739 78.4034 45.8648 78.3916 45.9615ZM77.4442 45.4396C77.4442 45.2783 77.3881 45.1522 77.2789 45.0555C77.1697 44.9616 77.031 44.9118 76.8657 44.9118C76.7063 44.9118 76.5735 44.9587 76.4643 45.0496C76.3551 45.1405 76.2872 45.2695 76.2636 45.4396H77.4442Z" fill="black"/>
<path d="M83.7013 43.4164V44.167H82.1223V44.9793H83.3029V45.7094H82.1223V47.2664H81.1778V43.4164H83.7013Z" fill="black"/>
<path d="M84.8199 43.7419C84.7137 43.6451 84.6635 43.5249 84.6635 43.3812C84.6635 43.2346 84.7166 43.1144 84.8199 43.0176C84.9262 42.9208 85.059 42.871 85.2243 42.871C85.3866 42.871 85.5194 42.9208 85.6257 43.0176C85.7319 43.1144 85.7821 43.2375 85.7821 43.3812C85.7821 43.5249 85.729 43.6422 85.6257 43.7419C85.5194 43.8386 85.3866 43.8885 85.2243 43.8885C85.062 43.8885 84.9262 43.8386 84.8199 43.7419ZM85.6965 44.2051V47.2663H84.7521V44.2051H85.6965Z" fill="black"/>
<path d="M89.6722 44.5218C89.8877 44.7534 89.9969 45.0731 89.9969 45.4777V47.2663H89.0583V45.6038C89.0583 45.3985 89.0052 45.2402 88.8989 45.1258C88.7927 45.0115 88.648 44.9558 88.468 44.9558C88.288 44.9558 88.1433 45.0115 88.0371 45.1258C87.9308 45.2402 87.8777 45.3985 87.8777 45.6038V47.2663H86.9332V44.2051H87.8777V44.6098C87.9721 44.4749 88.102 44.3664 88.2643 44.2902C88.4267 44.211 88.6097 44.1729 88.8104 44.1729C89.1675 44.1729 89.4568 44.2902 89.6722 44.5218Z" fill="black"/>
<path d="M94.0906 45.9615H91.9537C91.9684 46.1521 92.0304 46.2958 92.1396 46.3984C92.2488 46.4981 92.3817 46.5479 92.541 46.5479C92.7772 46.5479 92.9395 46.4483 93.031 46.2518H94.0345C93.9843 46.4541 93.8899 46.633 93.7571 46.7942C93.6213 46.9555 93.453 47.0816 93.2523 47.1725C93.0487 47.2634 92.8244 47.3103 92.5735 47.3103C92.2724 47.3103 92.0039 47.2458 91.7677 47.1197C91.5316 46.9907 91.3486 46.8089 91.2158 46.5714C91.083 46.3339 91.0181 46.0553 91.0181 45.7387C91.0181 45.422 91.083 45.1434 91.2129 44.9059C91.3427 44.6684 91.5257 44.4866 91.7618 44.3576C91.998 44.2286 92.2665 44.167 92.5735 44.167C92.8716 44.167 93.1372 44.2286 93.3675 44.3547C93.6006 44.4778 93.7807 44.6567 93.9105 44.8854C94.0404 45.117 94.1053 45.3839 94.1053 45.6918C94.1083 45.7739 94.1024 45.8648 94.0906 45.9615ZM93.1402 45.4396C93.1402 45.2783 93.0841 45.1522 92.9749 45.0555C92.8657 44.9616 92.727 44.9118 92.5617 44.9118C92.4023 44.9118 92.2695 44.9587 92.1603 45.0496C92.0511 45.1405 91.9832 45.2695 91.9596 45.4396H93.1402Z" fill="black"/>
<path d="M95.6903 47.1725C95.4807 47.0816 95.3154 46.9555 95.1944 46.7972C95.0734 46.6389 95.0055 46.46 94.9908 46.2635H95.9235C95.9353 46.3691 95.9854 46.4541 96.071 46.5216C96.1596 46.5861 96.2688 46.6213 96.3957 46.6213C96.5138 46.6213 96.6053 46.5978 96.6702 46.5538C96.7351 46.5069 96.7676 46.4483 96.7676 46.375C96.7676 46.287 96.7204 46.2225 96.6289 46.1814C96.5374 46.1404 96.3868 46.0935 96.1832 46.0407C95.9618 45.9908 95.7788 45.9351 95.6313 45.8794C95.4837 45.8237 95.3568 45.7328 95.2505 45.6097C95.1443 45.4865 95.0911 45.3223 95.0911 45.1141C95.0911 44.9382 95.1384 44.7799 95.2387 44.6332C95.3361 44.4896 95.4807 44.3752 95.6696 44.2902C95.8585 44.2051 96.0858 44.1641 96.3455 44.1641C96.7322 44.1641 97.0362 44.2579 97.2605 44.4485C97.4818 44.6391 97.6117 44.8913 97.6442 45.205H96.7735C96.7587 45.0995 96.7115 45.0144 96.6318 44.9528C96.5521 44.8913 96.4488 44.859 96.319 44.859C96.2097 44.859 96.1242 44.8795 96.0651 44.9206C96.0061 44.9616 95.9766 45.0203 95.9766 45.0936C95.9766 45.1816 96.0238 45.2461 96.1183 45.2901C96.2127 45.334 96.3573 45.378 96.558 45.422C96.7853 45.4806 96.9712 45.5393 97.1159 45.595C97.2605 45.6507 97.3844 45.7445 97.4937 45.8706C97.6029 45.9967 97.6589 46.1668 97.6619 46.3779C97.6619 46.5567 97.6117 46.718 97.5114 46.8588C97.411 46.9995 97.2634 47.1109 97.0745 47.1901C96.8856 47.2693 96.6643 47.3103 96.4164 47.3103C96.1389 47.3103 95.8998 47.2634 95.6903 47.1725Z" fill="black"/>
<path d="M100.504 46.4717V47.2663H100.023C99.6807 47.2663 99.4151 47.1843 99.2232 47.0171C99.0314 46.85 98.9369 46.5802 98.9369 46.202V44.9851H98.5621V44.2052H98.9369V43.4604H99.8814V44.2052H100.498V44.9851H99.8814V46.2137C99.8814 46.3046 99.905 46.372 99.9464 46.4102C99.9906 46.4512 100.064 46.4717 100.168 46.4717H100.504Z" fill="black"/>
<path d="M105.731 43.4164V46.0378C105.731 46.4424 105.616 46.7562 105.386 46.9761C105.156 47.196 104.846 47.3045 104.456 47.3045C104.049 47.3045 103.721 47.1901 103.473 46.9585C103.225 46.7268 103.104 46.4014 103.104 45.9762H104.043C104.043 46.1375 104.075 46.2577 104.143 46.3398C104.208 46.4219 104.306 46.4629 104.43 46.4629C104.545 46.4629 104.633 46.4278 104.695 46.3544C104.757 46.2811 104.79 46.1756 104.79 46.0378V43.4164H105.731Z" fill="black"/>
<path d="M107.036 44.903C107.157 44.6655 107.319 44.4837 107.526 44.3547C107.732 44.2257 107.963 44.1641 108.216 44.1641C108.435 44.1641 108.624 44.2081 108.789 44.296C108.954 44.384 109.078 44.4984 109.167 44.642V44.2081H110.111V47.2693H109.167V46.8353C109.075 46.979 108.945 47.0933 108.783 47.1813C108.621 47.2693 108.429 47.3132 108.211 47.3132C107.96 47.3132 107.732 47.2487 107.526 47.1197C107.319 46.9907 107.157 46.806 107.036 46.5655C106.915 46.3251 106.856 46.0495 106.856 45.7357C106.856 45.4161 106.918 45.1405 107.036 44.903ZM108.969 45.1816C108.839 45.0467 108.68 44.9792 108.491 44.9792C108.302 44.9792 108.143 45.0467 108.013 45.1786C107.883 45.3135 107.818 45.4953 107.818 45.7299C107.818 45.9645 107.883 46.1492 108.013 46.287C108.143 46.4248 108.302 46.4922 108.491 46.4922C108.68 46.4922 108.839 46.4248 108.969 46.2899C109.099 46.155 109.164 45.9703 109.164 45.7357C109.164 45.5012 109.099 45.3164 108.969 45.1816Z" fill="black"/>
<path d="M112.67 44.2931C112.833 44.2051 113.021 44.1612 113.24 44.1612C113.494 44.1612 113.724 44.2257 113.931 44.3518C114.137 44.4808 114.299 44.6626 114.42 44.9001C114.541 45.1376 114.6 45.4132 114.6 45.7269C114.6 46.0407 114.541 46.3192 114.42 46.5567C114.299 46.7972 114.137 46.9819 113.931 47.1109C113.724 47.2399 113.494 47.3045 113.24 47.3045C113.027 47.3045 112.838 47.2605 112.673 47.1725C112.508 47.0845 112.381 46.9702 112.289 46.8324V48.7178H111.345V44.1993H112.289V44.6332C112.381 44.4984 112.508 44.3811 112.67 44.2931ZM113.441 45.1786C113.311 45.0467 113.148 44.9792 112.957 44.9792C112.768 44.9792 112.608 45.0467 112.478 45.1816C112.349 45.3164 112.284 45.5012 112.284 45.7357C112.284 45.9703 112.349 46.155 112.478 46.2899C112.608 46.4248 112.768 46.4922 112.957 46.4922C113.145 46.4922 113.305 46.4248 113.438 46.287C113.57 46.1492 113.635 45.9645 113.635 45.7299C113.635 45.4982 113.57 45.3135 113.441 45.1786Z" fill="black"/>
<path d="M115.636 44.903C115.757 44.6655 115.92 44.4837 116.126 44.3547C116.333 44.2257 116.563 44.1641 116.817 44.1641C117.035 44.1641 117.224 44.2081 117.39 44.296C117.555 44.384 117.679 44.4984 117.767 44.642V44.2081H118.712V47.2693H117.765V46.8353C117.673 46.979 117.543 47.0933 117.381 47.1813C117.218 47.2693 117.027 47.3132 116.808 47.3132C116.557 47.3132 116.33 47.2487 116.123 47.1197C115.917 46.9907 115.755 46.806 115.634 46.5655C115.513 46.3251 115.453 46.0495 115.453 45.7357C115.456 45.4161 115.515 45.1405 115.636 44.903ZM117.567 45.1816C117.437 45.0467 117.278 44.9792 117.089 44.9792C116.9 44.9792 116.74 45.0467 116.61 45.1786C116.481 45.3135 116.416 45.4953 116.416 45.7299C116.416 45.9645 116.481 46.1492 116.61 46.287C116.74 46.4248 116.9 46.4922 117.089 46.4922C117.278 46.4922 117.437 46.4248 117.567 46.2899C117.697 46.155 117.762 45.9703 117.762 45.7357C117.765 45.5012 117.7 45.3164 117.567 45.1816Z" fill="black"/>
<path d="M122.685 44.5218C122.9 44.7534 123.006 45.0731 123.006 45.4777V47.2663H122.068V45.6038C122.068 45.3985 122.015 45.2402 121.908 45.1258C121.802 45.0115 121.657 44.9558 121.477 44.9558C121.297 44.9558 121.153 45.0115 121.047 45.1258C120.94 45.2402 120.887 45.3985 120.887 45.6038V47.2663H119.943V44.2051H120.887V44.6098C120.982 44.4749 121.111 44.3664 121.274 44.2902C121.436 44.211 121.619 44.1729 121.82 44.1729C122.18 44.1729 122.469 44.2902 122.685 44.5218Z" fill="black"/>
<path d="M127.103 45.9615H124.966C124.981 46.1521 125.043 46.2958 125.152 46.3984C125.261 46.4981 125.394 46.5479 125.553 46.5479C125.79 46.5479 125.952 46.4483 126.043 46.2518H127.047C126.997 46.4541 126.902 46.633 126.77 46.7942C126.634 46.9555 126.465 47.0816 126.265 47.1725C126.061 47.2634 125.837 47.3103 125.586 47.3103C125.285 47.3103 125.016 47.2458 124.78 47.1197C124.544 46.9907 124.361 46.8089 124.228 46.5714C124.095 46.3339 124.031 46.0553 124.031 45.7387C124.031 45.422 124.095 45.1434 124.225 44.9059C124.355 44.6684 124.538 44.4866 124.774 44.3576C125.01 44.2286 125.279 44.167 125.586 44.167C125.884 44.167 126.15 44.2286 126.38 44.3547C126.613 44.4778 126.793 44.6567 126.923 44.8854C127.053 45.117 127.118 45.3839 127.118 45.6918C127.118 45.7739 127.115 45.8648 127.103 45.9615ZM126.153 45.4396C126.153 45.2783 126.097 45.1522 125.987 45.0555C125.878 44.9616 125.739 44.9118 125.574 44.9118C125.415 44.9118 125.282 44.9587 125.173 45.0496C125.064 45.1405 124.996 45.2695 124.972 45.4396H126.153Z" fill="black"/>
<path d="M128.703 47.1725C128.493 47.0816 128.328 46.9555 128.207 46.7972C128.086 46.6389 128.018 46.46 128.003 46.2635H128.936C128.948 46.3691 128.998 46.4541 129.083 46.5216C129.172 46.5861 129.281 46.6213 129.408 46.6213C129.526 46.6213 129.618 46.5978 129.683 46.5538C129.748 46.5069 129.78 46.4483 129.78 46.375C129.78 46.287 129.733 46.2225 129.641 46.1814C129.55 46.1404 129.399 46.0935 129.196 46.0407C128.974 45.9908 128.791 45.9351 128.644 45.8794C128.496 45.8237 128.369 45.7328 128.263 45.6097C128.157 45.4865 128.104 45.3223 128.104 45.1141C128.104 44.9382 128.151 44.7799 128.251 44.6332C128.349 44.4896 128.493 44.3752 128.682 44.2902C128.871 44.2051 129.098 44.1641 129.358 44.1641C129.745 44.1641 130.049 44.2579 130.273 44.4485C130.494 44.6391 130.624 44.8913 130.657 45.205H129.786C129.771 45.0995 129.724 45.0144 129.644 44.9528C129.565 44.8913 129.461 44.859 129.331 44.859C129.222 44.859 129.137 44.8795 129.078 44.9206C129.019 44.9616 128.989 45.0203 128.989 45.0936C128.989 45.1816 129.036 45.2461 129.131 45.2901C129.225 45.334 129.37 45.378 129.57 45.422C129.798 45.4806 129.984 45.5393 130.128 45.595C130.273 45.6507 130.397 45.7445 130.506 45.8706C130.615 45.9967 130.671 46.1668 130.674 46.3779C130.674 46.5567 130.624 46.718 130.524 46.8588C130.423 46.9995 130.276 47.1109 130.087 47.1901C129.898 47.2693 129.677 47.3103 129.429 47.3103C129.151 47.3103 128.912 47.2634 128.703 47.1725Z" fill="black"/>
<path d="M134.685 45.9615H132.549C132.563 46.1521 132.625 46.2958 132.734 46.3984C132.844 46.501 132.976 46.5479 133.136 46.5479C133.372 46.5479 133.534 46.4483 133.626 46.2518H134.629C134.579 46.4541 134.485 46.633 134.352 46.7942C134.216 46.9555 134.048 47.0816 133.847 47.1725C133.644 47.2634 133.419 47.3103 133.168 47.3103C132.867 47.3103 132.599 47.2458 132.363 47.1197C132.126 46.9907 131.943 46.8089 131.811 46.5714C131.678 46.3339 131.613 46.0553 131.613 45.7387C131.613 45.422 131.678 45.1434 131.808 44.9059C131.938 44.6684 132.121 44.4866 132.357 44.3576C132.593 44.2286 132.861 44.167 133.168 44.167C133.466 44.167 133.732 44.2286 133.962 44.3547C134.195 44.4778 134.375 44.6567 134.505 44.8854C134.635 45.1141 134.7 45.3839 134.7 45.6918C134.703 45.7739 134.697 45.8648 134.685 45.9615ZM133.738 45.4396C133.738 45.2783 133.682 45.1522 133.573 45.0555C133.463 44.9616 133.325 44.9118 133.159 44.9118C133 44.9118 132.867 44.9587 132.758 45.0496C132.649 45.1405 132.581 45.2695 132.557 45.4396H133.738Z" fill="black"/>
<path d="M138.401 43.4164V45.7182C138.401 45.9498 138.457 46.1257 138.573 46.2489C138.688 46.372 138.853 46.4365 139.074 46.4365C139.296 46.4365 139.464 46.375 139.582 46.2489C139.7 46.1257 139.759 45.9469 139.759 45.7182V43.4164H140.703V45.7152C140.703 46.0583 140.63 46.3486 140.482 46.5861C140.335 46.8236 140.137 47.0025 139.889 47.1227C139.641 47.2429 139.364 47.3045 139.057 47.3045C138.75 47.3045 138.478 47.2458 138.236 47.1256C137.994 47.0054 137.805 46.8265 137.663 46.589C137.525 46.3486 137.454 46.0583 137.454 45.7152V43.4164H138.401Z" fill="black"/>
<path d="M142.451 47.1725C142.241 47.0816 142.076 46.9555 141.955 46.7972C141.834 46.6389 141.766 46.46 141.751 46.2635H142.684C142.696 46.3691 142.746 46.4541 142.831 46.5216C142.92 46.5861 143.029 46.6213 143.156 46.6213C143.274 46.6213 143.366 46.5978 143.431 46.5538C143.496 46.5069 143.528 46.4483 143.528 46.375C143.528 46.287 143.481 46.2225 143.389 46.1814C143.298 46.1404 143.147 46.0935 142.944 46.0407C142.722 45.9908 142.539 45.9351 142.392 45.8794C142.244 45.8237 142.117 45.7328 142.011 45.6097C141.905 45.4865 141.852 45.3223 141.852 45.1141C141.852 44.9382 141.899 44.7799 141.999 44.6332C142.097 44.4896 142.241 44.3752 142.43 44.2902C142.619 44.2051 142.846 44.1641 143.106 44.1641C143.493 44.1641 143.797 44.2579 144.021 44.4485C144.242 44.6391 144.372 44.8913 144.405 45.205H143.534C143.519 45.0995 143.472 45.0144 143.392 44.9528C143.313 44.8913 143.209 44.859 143.079 44.859C142.97 44.859 142.885 44.8795 142.826 44.9206C142.767 44.9616 142.737 45.0203 142.737 45.0936C142.737 45.1816 142.784 45.2461 142.879 45.2901C142.973 45.334 143.118 45.378 143.318 45.422C143.546 45.4806 143.732 45.5393 143.876 45.595C144.021 45.6507 144.145 45.7445 144.254 45.8706C144.363 45.9967 144.419 46.1668 144.422 46.3779C144.422 46.5567 144.372 46.718 144.272 46.8588C144.171 46.9995 144.024 47.1109 143.835 47.1901C143.646 47.2693 143.425 47.3103 143.177 47.3103C142.902 47.3103 142.663 47.2634 142.451 47.1725Z" fill="black"/>
<path d="M148.436 45.9615H146.3C146.314 46.1521 146.376 46.2958 146.485 46.3984C146.595 46.4981 146.727 46.5479 146.887 46.5479C147.123 46.5479 147.285 46.4483 147.377 46.2518H148.38C148.33 46.4541 148.236 46.633 148.103 46.7942C147.967 46.9555 147.799 47.0816 147.598 47.1725C147.395 47.2634 147.17 47.3103 146.919 47.3103C146.618 47.3103 146.35 47.2458 146.114 47.1197C145.877 46.9907 145.694 46.8089 145.562 46.5714C145.429 46.3339 145.364 46.0553 145.364 45.7387C145.364 45.422 145.429 45.1434 145.559 44.9059C145.689 44.6684 145.872 44.4866 146.108 44.3576C146.344 44.2286 146.612 44.167 146.919 44.167C147.217 44.167 147.483 44.2286 147.713 44.3547C147.946 44.4778 148.126 44.6567 148.256 44.8854C148.386 45.117 148.451 45.3839 148.451 45.6918C148.451 45.7739 148.445 45.8648 148.436 45.9615ZM147.486 45.4396C147.486 45.2783 147.43 45.1522 147.321 45.0555C147.212 44.9616 147.073 44.9118 146.908 44.9118C146.748 44.9118 146.615 44.9587 146.506 45.0496C146.397 45.1405 146.329 45.2695 146.305 45.4396H147.486Z" fill="black"/>
<path d="M149.493 44.903C149.614 44.6655 149.776 44.4837 149.983 44.3547C150.19 44.2257 150.42 44.1641 150.674 44.1641C150.877 44.1641 151.06 44.2052 151.229 44.2902C151.397 44.3752 151.527 44.4867 151.624 44.6303V43.2112H152.568V47.2693H151.624V46.8295C151.535 46.9761 151.409 47.0934 151.246 47.1813C151.084 47.2693 150.892 47.3133 150.674 47.3133C150.42 47.3133 150.19 47.2488 149.983 47.1197C149.776 46.9907 149.614 46.806 149.493 46.5656C149.372 46.3251 149.313 46.0495 149.313 45.7358C149.313 45.4161 149.372 45.1405 149.493 44.903ZM151.423 45.1816C151.293 45.0467 151.134 44.9793 150.945 44.9793C150.756 44.9793 150.597 45.0467 150.467 45.1786C150.337 45.3135 150.272 45.4953 150.272 45.7299C150.272 45.9645 150.337 46.1492 150.467 46.287C150.597 46.4248 150.756 46.4923 150.945 46.4923C151.134 46.4923 151.293 46.4248 151.423 46.2899C151.553 46.1551 151.618 45.9703 151.618 45.7358C151.621 45.5012 151.556 45.3165 151.423 45.1816Z" fill="black"/>
<path d="M155.611 44.3195C155.777 44.0204 156.007 43.7888 156.305 43.6246C156.6 43.4574 156.937 43.3753 157.312 43.3753C157.772 43.3753 158.164 43.4956 158.492 43.736C158.82 43.9764 159.038 44.3048 159.15 44.7241H158.111C158.035 44.5629 157.925 44.4397 157.784 44.3576C157.642 44.2726 157.483 44.2315 157.3 44.2315C157.01 44.2315 156.774 44.3312 156.594 44.5335C156.414 44.7359 156.323 45.0027 156.323 45.3399C156.323 45.6771 156.414 45.9439 156.594 46.1462C156.774 46.3486 157.01 46.4483 157.3 46.4483C157.48 46.4483 157.642 46.4072 157.784 46.3222C157.925 46.2371 158.035 46.1169 158.111 45.9556H159.15C159.041 46.372 158.82 46.7004 158.492 46.9409C158.164 47.1813 157.772 47.3015 157.312 47.3015C156.937 47.3015 156.6 47.2194 156.305 47.0523C156.01 46.8851 155.777 46.6535 155.611 46.3574C155.446 46.0612 155.364 45.724 155.364 45.3428C155.364 44.9558 155.446 44.6156 155.611 44.3195Z" fill="black"/>
<path d="M160.272 44.903C160.393 44.6655 160.555 44.4837 160.762 44.3547C160.968 44.2257 161.199 44.1641 161.452 44.1641C161.671 44.1641 161.86 44.2081 162.025 44.296C162.19 44.384 162.314 44.4984 162.403 44.642V44.2081H163.347V47.2693H162.403V46.8353C162.311 46.979 162.181 47.0933 162.019 47.1813C161.857 47.2693 161.665 47.3132 161.447 47.3132C161.196 47.3132 160.968 47.2487 160.762 47.1197C160.555 46.9907 160.393 46.806 160.272 46.5655C160.151 46.3251 160.092 46.0495 160.092 45.7357C160.092 45.4161 160.151 45.1405 160.272 44.903ZM162.205 45.1816C162.075 45.0467 161.916 44.9792 161.727 44.9792C161.538 44.9792 161.379 45.0467 161.249 45.1786C161.119 45.3135 161.054 45.4953 161.054 45.7299C161.054 45.9645 161.119 46.1492 161.249 46.287C161.379 46.4248 161.538 46.4922 161.727 46.4922C161.916 46.4922 162.075 46.4248 162.205 46.2899C162.335 46.155 162.4 45.9703 162.4 45.7357C162.4 45.5012 162.335 45.3164 162.205 45.1816Z" fill="black"/>
<path d="M165.939 44.3195C166.104 44.2227 166.287 44.1729 166.491 44.1729V45.164H166.231C165.995 45.164 165.818 45.2138 165.7 45.3135C165.582 45.4132 165.523 45.5891 165.523 45.8413V47.2605H164.578V44.1993H165.523V44.7095C165.635 44.5482 165.773 44.4163 165.939 44.3195Z" fill="black"/>
<path d="M168.028 47.1725C167.819 47.0816 167.654 46.9555 167.533 46.7972C167.412 46.6389 167.344 46.46 167.329 46.2635H168.262C168.273 46.3691 168.324 46.4541 168.409 46.5216C168.498 46.5861 168.607 46.6213 168.734 46.6213C168.852 46.6213 168.943 46.5978 169.008 46.5538C169.073 46.5069 169.106 46.4483 169.106 46.375C169.106 46.287 169.058 46.2225 168.967 46.1814C168.875 46.1404 168.725 46.0935 168.521 46.0407C168.3 45.9908 168.117 45.9351 167.969 45.8794C167.822 45.8237 167.695 45.7328 167.589 45.6097C167.482 45.4865 167.429 45.3223 167.429 45.1141C167.429 44.9382 167.477 44.7799 167.577 44.6332C167.674 44.4896 167.819 44.3752 168.008 44.2902C168.197 44.2051 168.424 44.1641 168.684 44.1641C169.07 44.1641 169.374 44.2579 169.599 44.4485C169.82 44.6391 169.95 44.8913 169.982 45.205H169.112C169.097 45.0995 169.05 45.0144 168.97 44.9528C168.89 44.8913 168.787 44.859 168.657 44.859C168.548 44.859 168.462 44.8795 168.403 44.9206C168.344 44.9616 168.315 45.0203 168.315 45.0936C168.315 45.1816 168.362 45.2461 168.456 45.2901C168.551 45.334 168.695 45.378 168.896 45.422C169.123 45.4806 169.309 45.5393 169.454 45.595C169.599 45.6507 169.723 45.7445 169.832 45.8706C169.941 45.9967 169.997 46.1668 170 46.3779C170 46.5567 169.95 46.718 169.849 46.8588C169.749 46.9995 169.602 47.1109 169.413 47.1901C169.224 47.2693 169.002 47.3103 168.754 47.3103C168.477 47.3103 168.238 47.2634 168.028 47.1725Z" fill="black"/>
</svg>
