<svg width="42" height="42" viewBox="0 0 42 42" fill="none" xmlns="http://www.w3.org/2000/svg">
<g clip-path="url(#clip0_82_3359)">
<path d="M16.7754 37.702V41.9558L15.7468 41.1249C15.5879 40.9964 11.8064 37.9263 7.97177 33.5239C2.68204 27.4507 0 21.9991 0 17.3211V16.8574C0 7.60744 7.52541 0.0820312 16.7754 0.0820312C26.0254 0.0820312 33.5508 7.60744 33.5508 16.8574V17.3211C33.5508 17.7139 33.53 18.1129 33.4921 18.5166L30.2115 15.5238C29.5396 8.70236 23.7705 3.35527 16.7754 3.35527C9.33041 3.35527 3.27324 9.41245 3.27324 16.8574V17.3211C3.27324 25.2262 13.4586 34.796 16.7754 37.702ZM26.8406 35.351H31.7503V30.4413H26.8406V35.351ZM16.7754 9.90175C20.6107 9.90175 23.7311 13.0221 23.7311 16.8574C23.7311 20.6927 20.6107 23.8131 16.7754 23.8131C12.9401 23.8131 9.81972 20.6927 9.81972 16.8574C9.81972 13.0221 12.9401 9.90175 16.7754 9.90175ZM16.7754 13.175C14.7448 13.175 13.093 14.8268 13.093 16.8574C13.093 18.8877 14.7448 20.5399 16.7754 20.5399C18.8057 20.5399 20.4578 18.8877 20.4578 16.8574C20.4578 14.8268 18.8057 13.175 16.7754 13.175ZM39.7941 33.1268L38.8738 32.2873V37.5421C38.8738 39.989 36.883 41.9795 34.4361 41.9795H24.073C21.6261 41.9795 19.6353 39.989 19.6353 37.5421V32.2873L18.715 33.1268L16.5091 30.7088L29.2544 19.0812L42 30.7088L39.7941 33.1268ZM35.6006 29.3012L29.2544 23.5119L22.9085 29.3012V37.5418C22.9085 38.1839 23.4308 38.7063 24.073 38.7063H34.4361C35.0783 38.7063 35.6006 38.1839 35.6006 37.5418V29.3012Z" fill="black"/>
</g>
<defs>
<clipPath id="clip0_82_3359">
<rect width="42" height="42" fill="white"/>
</clipPath>
</defs>
</svg>
