<svg width="63" height="63" viewBox="0 0 63 63" fill="none" xmlns="http://www.w3.org/2000/svg">
<g id="fi_1165670" clip-path="url(#clip0_109_239)">
<path id="Vector" d="M21.3928 35.6134C20.9203 35.4211 20.3839 35.6442 20.1921 36.1166C20.1546 36.2032 19.2404 38.2421 16.1681 38.2421C13.0607 38.2421 11.9518 36.1671 11.898 36.0619C11.6721 35.6076 11.1222 35.4207 10.6666 35.6432C10.2085 35.8672 10.0187 36.4195 10.2422 36.8775C10.3061 37.0083 11.8591 40.0878 16.1681 40.0878C20.5214 40.0878 21.8441 36.9535 21.8984 36.8198C22.0902 36.3478 21.8648 35.8052 21.3928 35.6134Z" fill="white"/>
<path id="Vector_2" d="M12.7747 31.4519C12.9132 31.5264 13.0627 31.5615 13.2097 31.5615C13.5361 31.5615 13.8528 31.388 14.0201 31.0813C14.2648 30.6343 14.1009 30.0739 13.6534 29.8292C13.577 29.7869 11.7524 28.8141 9.35732 29.6206C8.87379 29.7831 8.61424 30.3065 8.7767 30.7895C8.93964 31.2726 9.46306 31.5317 9.94612 31.3697C11.5385 30.8333 12.7108 31.4192 12.7747 31.4519Z" fill="white"/>
<path id="Vector_3" d="M22.7583 29.6206C20.3622 28.8141 18.5381 29.7869 18.4617 29.8292C18.0147 30.0734 17.846 30.6367 18.0907 31.0837C18.2589 31.3908 18.5742 31.5653 18.9001 31.5653C19.0486 31.5653 19.199 31.5293 19.3394 31.4528C19.3884 31.4274 20.566 30.8299 22.1695 31.3697C22.6525 31.5317 23.1759 31.2726 23.3384 30.7895C23.5009 30.3065 23.2413 29.7831 22.7583 29.6206Z" fill="white"/>
<path id="Vector_4" d="M35.2313 11.6204C33.7216 11.6204 32.4839 12.7778 32.4138 14.2553C32.3782 15.0046 32.6479 15.7078 33.1184 16.2346C32.6479 16.7614 32.3782 17.4646 32.4138 18.2139C32.4628 19.2478 33.0838 20.1255 33.9701 20.559C33.7678 20.946 33.6625 21.3886 33.6639 21.8722C33.6678 23.0176 34.4085 23.9967 35.4419 24.374C35.2799 24.7114 35.191 25.0848 35.1823 25.4857C35.1665 26.2004 35.438 26.8806 35.947 27.4006C36.4637 27.9289 37.1814 28.2317 37.9158 28.2317H50.9895C53.1986 28.2317 54.9952 26.4345 54.9952 24.2254V17.9299C54.9952 15.8381 52.8804 13.916 50.5954 12.15C49.4529 11.2676 48.567 10.0962 48.034 8.76242L46.4944 4.91289C45.984 3.58821 44.2128 4.04675 43.6293 4.19768C42.9727 4.36783 42.4277 4.79176 42.0936 5.3921C41.5803 6.31543 41.5658 7.57666 42.0499 9.14069L42.5632 11.1224C41.351 11.4752 39.7918 11.5886 38.6651 11.6209H35.2313V11.6204ZM38.7036 13.4661C40.0153 13.4295 41.8836 13.2873 43.3337 12.8162C44.1479 12.5519 44.618 11.6963 44.4036 10.8686L43.8312 8.65668C43.8273 8.64178 43.823 8.62736 43.8187 8.61294C43.5601 7.7843 43.2664 6.19815 44.0921 5.98426C44.4949 5.87996 44.7381 5.84727 44.8771 5.8391L46.32 9.44783C46.9756 11.0873 48.0633 12.5269 49.4663 13.6107C50.4738 14.3889 53.1495 16.4567 53.1495 17.9299V24.2259C53.1495 25.417 52.1805 26.3864 50.9895 26.3864H37.9158C37.4438 26.3864 37.017 26.001 37.0275 25.5266C37.0309 25.3718 37.041 24.8998 37.8504 24.6028C38.2989 24.4374 38.5632 23.9765 38.4796 23.5069C38.3955 23.0363 37.9879 22.695 37.5101 22.695H36.3849C35.9201 22.695 35.5096 22.3076 35.5096 21.8659C35.5096 21.4223 35.7779 20.8484 36.4133 20.8484C36.419 20.8484 37.749 20.8493 37.749 20.8493C38.259 20.8493 38.6718 20.436 38.6718 19.9265C38.6718 19.4165 38.259 19.0036 37.749 19.0036C36.8295 19.0036 36.1653 19.0036 35.2313 19.0036C34.7175 19.0036 34.2806 18.6105 34.2576 18.1269C34.2354 17.6636 34.5608 17.2536 35.0141 17.1724C35.1751 17.1435 35.4154 17.1656 37.4303 17.158C37.9403 17.158 38.3532 16.7446 38.3532 16.2351C38.3532 15.7251 37.9403 15.3123 37.4303 15.3123H35.1794C34.6435 15.3123 34.233 14.8614 34.2576 14.3433C34.2806 13.8597 34.7175 13.4666 35.2313 13.4666H38.6781C38.6867 13.4661 38.6954 13.4661 38.7036 13.4661Z" fill="white"/>
<path id="Vector_5" d="M53.5546 0H39.3749C38.8654 0 38.4521 0.41336 38.4521 0.92285C38.4521 1.43282 38.8654 1.8457 39.3749 1.8457H53.5546C57.7449 1.8457 61.1542 5.24438 61.1542 9.42172V29.8883C61.1542 34.0652 57.7449 37.4639 53.5546 37.4639H42.8818C42.3723 37.4639 41.9589 37.8772 41.9589 38.3867C41.9589 40.1339 41.5628 42.3434 38.6588 43.1442C39.6672 41.585 39.5705 39.4364 39.2557 38.1646C39.1533 37.7532 38.7837 37.4639 38.3598 37.4639H27.5509C27.7667 36.7434 27.9176 35.995 27.9946 35.2255C30.6564 35.7061 32.1152 32.8727 32.1152 30.0234C32.1152 28.0354 31.4346 26.5233 30.2762 25.7941C30.8366 24.605 31.075 23.0184 30.1205 21.1549C30.2618 16.705 28.4459 14.4032 26.8804 13.2515C25.5918 12.3037 24.269 11.9749 23.636 11.8653C23.1222 11.3626 21.8744 10.3609 19.6875 9.82787V9.42172C19.6875 5.24438 23.0962 1.8457 27.287 1.8457H35.4374C35.9469 1.8457 36.3603 1.43282 36.3603 0.92285C36.3603 0.41336 35.9469 0 35.4374 0H27.287C22.0787 0 17.8418 4.22684 17.8418 9.42172V9.5289C16.2657 9.39144 14.3465 9.50055 12.0384 10.0567C10.5854 10.4071 9.26022 10.8598 8.10041 11.4034C7.6385 11.6197 7.44 12.1691 7.65629 12.6305C7.8721 13.0925 8.42148 13.291 8.88339 13.0747C9.93121 12.5839 11.1381 12.172 12.471 11.8509C15.0155 11.2381 16.991 11.2189 18.4892 11.4582C18.5627 11.4813 18.6406 11.4938 18.7214 11.4977C21.3236 11.9745 22.3959 13.227 22.4608 13.3054C22.6209 13.5082 22.8583 13.6351 23.1164 13.6543C23.1294 13.6558 24.4868 13.7822 25.7864 14.7382C27.5783 16.0561 28.4127 18.2724 28.2666 21.325C28.2584 21.4976 28.2988 21.6692 28.3834 21.8201C29.1375 23.1669 29.0938 24.4089 28.2507 25.6182C27.6605 26.4642 26.8617 27.0092 26.6458 27.1472C26.5516 27.177 26.3176 27.2342 26.133 27.1486C25.9244 27.0515 25.7927 26.7617 25.7192 26.5348C25.1376 24.742 24.3565 24.0205 23.6677 23.3841C22.9842 22.7526 22.394 22.207 21.8566 20.433C21.7495 20.0792 21.4414 19.823 21.0741 19.7831C20.706 19.7423 20.3503 19.9259 20.1691 20.2484C19.8172 20.8747 18.7454 22.7795 14.185 22.6161C10.3624 22.4767 7.22226 23.8297 5.98891 26.1436C5.64476 26.7886 5.34484 27.0179 5.20833 27.0746C2.17062 25.2995 3.41647 22.5877 3.56931 22.2839C3.67265 22.0835 3.69909 21.8528 3.64381 21.6341C3.63468 21.5985 2.78153 18.0456 5.86538 15.0847C6.23308 14.732 6.2451 14.1475 5.8923 13.7798C5.53902 13.4121 4.95503 13.4001 4.58733 13.7533C1.29535 16.9136 1.60057 20.6257 1.78754 21.7519C1.60922 22.1945 1.33381 23.0506 1.35447 24.0864C1.36553 24.6209 1.45733 25.2385 1.71304 25.8754C0.623404 26.6324 0 28.1022 0 30.0234C0 32.9198 1.49819 35.6979 4.11966 35.2255C4.39171 37.9767 5.5943 40.527 7.5741 42.5054C8.86128 43.7935 10.3902 44.752 12.0586 45.3398V47.0341L8.66037 48.1747C8.42197 48.2549 8.23355 48.4261 8.12685 48.6424C3.74764 50.1516 0.73828 54.7255 0.73828 59.9977V62.077C0.73828 62.587 1.15164 62.9999 1.66113 62.9999H30.454C30.9635 62.9999 31.3769 62.587 31.3769 62.077V59.9977C31.3769 58.5851 31.1611 57.2027 30.7357 55.8891C30.5785 55.4042 30.0585 55.1384 29.5735 55.2955C29.0885 55.4527 28.8227 55.9732 28.9799 56.4582C29.3457 57.5877 29.5312 58.7783 29.5312 59.9977V61.1542H18.8968L21.9037 58.9687C22.1426 58.7951 22.2839 58.5178 22.2839 58.2222V56.327L23.7028 55.2984C23.9422 55.1244 24.084 54.8471 24.084 54.551V50.6659C25.3072 51.2263 26.4055 52.1098 27.3053 53.2677C27.487 53.5013 27.7595 53.6238 28.0344 53.6238C28.2325 53.6238 28.4319 53.5604 28.6002 53.4296C29.0025 53.1167 29.0751 52.5371 28.7626 52.1348C27.4726 50.4756 25.8311 49.2787 23.9878 48.6419C23.8816 48.4261 23.6932 48.2549 23.4543 48.1747L20.0566 47.0341V45.3336C23.0222 44.2819 25.4553 42.0949 26.8304 39.298C26.9833 39.3052 27.1356 39.3096 27.2866 39.3096H37.5763C37.6172 39.6907 37.6407 40.1867 37.5816 40.6986C37.4336 41.9911 36.8529 42.7616 35.8071 43.0543C35.2452 43.2115 34.8818 43.7686 34.9616 44.3497C35.037 44.8986 35.4941 45.297 36.0479 45.297C38.3209 45.297 40.13 44.8082 41.4254 43.8435C42.7986 42.8202 43.583 41.298 43.7642 39.3096H53.5551C58.7629 39.3096 62.9999 35.0832 62.9999 29.8883V9.42172C62.9999 4.22684 58.7629 0 53.5546 0ZM28.0546 33.3341V28.4137C28.3824 28.169 28.8169 27.8047 29.2418 27.3303C29.9902 27.7624 30.2695 28.9443 30.2695 30.0234C30.2695 31.6643 29.5605 33.9219 28.0546 33.3341ZM1.8457 30.0234C1.8457 29.0376 2.08314 27.9398 2.71327 27.4384C3.06896 27.822 3.51115 28.1935 4.06054 28.5372V33.3341C2.55081 33.9234 1.8457 31.6643 1.8457 30.0234ZM9.8769 49.7132L12.0014 49L14.5834 59.8646L11.6769 57.7521V55.8564C11.6769 55.5608 11.5351 55.283 11.2958 55.1095L9.8769 54.0804V49.7132ZM14.1292 49.9718H17.986L16.0576 58.0852L14.1292 49.9718ZM2.58398 59.9977C2.58398 55.8065 4.7719 52.1482 8.0312 50.6645V54.551C8.0312 54.8466 8.17299 55.1244 8.41235 55.2979L9.83123 56.327V58.2222C9.83123 58.5173 9.97255 58.7951 10.2114 58.9687L13.2184 61.1542H2.58398V59.9977ZM22.2383 49.7132V54.0804L20.8194 55.1095C20.58 55.283 20.4382 55.5608 20.4382 55.8564V57.7521L17.5317 59.8646L20.1138 49L22.2383 49.7132ZM18.2109 48.1261H13.9043V45.8272C15.3256 46.0834 16.7887 46.0843 18.2109 45.8253V48.1261ZM8.87906 41.2004C6.96223 39.2846 5.90624 36.7352 5.90624 34.0224V28.7867C6.43447 28.5713 7.05067 28.0753 7.61736 27.0116C8.50272 25.351 11.055 24.3498 14.1182 24.4608C17.04 24.5661 19.2443 23.9225 20.6988 22.544C21.251 23.6639 21.86 24.2267 22.4156 24.7396C23.0386 25.3154 23.5307 25.7701 23.9638 27.1049C24.3089 28.1685 24.9309 28.6353 25.3923 28.8395C25.6735 28.964 25.9518 29.0188 26.2089 29.0337V34.0224C26.2089 43.0067 15.2544 47.5796 8.87906 41.2004Z" fill="white"/>
</g>
<defs>
<clipPath id="clip0_109_239">
<rect width="63" height="63" fill="white"/>
</clipPath>
</defs>
</svg>
