<svg width="26" height="19" viewBox="0 0 26 19" fill="none" xmlns="http://www.w3.org/2000/svg">
<g id="Group">
<g id="Group_2">
<path id="Vector" d="M23.7148 0H2.28516C1.02258 0 0 1.02893 0 2.28516V15.9961C0 17.2598 1.0301 18.2812 2.28516 18.2812H23.7148C24.9669 18.2812 26 17.2641 26 15.9961V2.28516C26 1.03116 24.9815 0 23.7148 0ZM23.3948 1.52344C22.9279 1.98783 14.8933 9.98019 14.6159 10.2561C14.1842 10.6878 13.6104 10.9254 13 10.9254C12.3896 10.9254 11.8158 10.6877 11.3827 10.2547C11.1961 10.0691 3.25015 2.16501 2.60518 1.52344H23.3948ZM1.52344 15.686V2.59619L8.10662 9.14469L1.52344 15.686ZM2.60614 16.7578L9.18673 10.2191L10.3069 11.3334C11.0263 12.0527 11.9827 12.4489 13 12.4489C14.0173 12.4489 14.9737 12.0527 15.6917 11.3348L16.8133 10.2191L23.3939 16.7578H2.60614ZM24.4766 15.686L17.8934 9.14469L24.4766 2.59619V15.686Z" fill="white"/>
</g>
</g>
</svg>
