<svg width="28" height="15" viewBox="0 0 28 15" fill="none" xmlns="http://www.w3.org/2000/svg">
<path d="M21.6377 15H2.56704C1.88622 15 1.23328 14.696 0.751868 14.155C0.270455 13.6139 0 12.88 0 12.1149V2.88515C0 2.11996 0.270455 1.38611 0.751868 0.84504C1.23328 0.30397 1.88622 0 2.56704 0H21.6377C21.9918 4.14344e-06 22.342 0.0823422 22.6664 0.241837C22.9908 0.401333 23.2824 0.634536 23.5227 0.926785L27.3181 5.54164C27.7565 6.07476 28 6.77404 28 7.5C28 8.22596 27.7565 8.92525 27.3181 9.45836L23.5227 14.0732C23.2824 14.3655 22.9908 14.5987 22.6664 14.7582C22.342 14.9177 21.9918 15 21.6377 15Z" fill="black"/>
<path d="M5.93873 5.30669L8.09795 8.57405V5.27645C8.09795 5.06214 8.144 4.90135 8.2361 4.79407C8.28205 4.74093 8.33943 4.69888 8.40394 4.67105C8.46845 4.64323 8.53841 4.63036 8.6086 4.6334C8.6802 4.63001 8.75165 4.64267 8.81772 4.67047C8.88378 4.69828 8.94279 4.74051 8.99042 4.79407C9.08379 4.90139 9.13058 5.06219 9.1308 5.27645V9.63662C9.1308 10.1233 8.9291 10.3665 8.52572 10.3664C8.43314 10.3678 8.34103 10.3531 8.25345 10.3231C8.16958 10.2922 8.09251 10.2452 8.02656 10.1849C7.95293 10.1188 7.88697 10.0446 7.8299 9.96376C7.76933 9.87928 7.70882 9.79288 7.64837 9.70458L5.54141 6.47519V9.72372C5.54141 9.93551 5.49232 10.0956 5.39414 10.2041C5.34671 10.257 5.28829 10.299 5.22298 10.327C5.15766 10.355 5.08701 10.3685 5.01596 10.3664C4.94404 10.3693 4.8724 10.356 4.80628 10.3275C4.74016 10.2991 4.68123 10.2562 4.63382 10.2021C4.53794 10.0925 4.49009 9.93294 4.49026 9.72353V5.44656C4.48454 5.30158 4.50503 5.15676 4.55074 5.01905C4.59971 4.90409 4.68293 4.80701 4.78906 4.74105C4.89549 4.67046 5.0204 4.63292 5.1481 4.63315C5.2314 4.62985 5.31445 4.64434 5.39172 4.67564C5.46898 4.70694 5.5387 4.75434 5.59622 4.81468C5.65881 4.88087 5.71456 4.95321 5.76263 5.0306C5.81942 5.11891 5.87812 5.21094 5.93873 5.30669Z" fill="white"/>
<path d="M13.8963 5.59418H11.3664V6.95563H13.696C13.8675 6.95563 13.9954 6.99406 14.0798 7.07092C14.1218 7.10938 14.1549 7.15652 14.1767 7.20906C14.1986 7.2616 14.2088 7.31828 14.2065 7.37515C14.2086 7.43242 14.1986 7.48947 14.1771 7.54259C14.1556 7.59571 14.1231 7.64369 14.0818 7.68341C13.9985 7.76304 13.8699 7.80281 13.696 7.80272H11.3664V9.37958H13.9833C14.1597 9.37958 14.2927 9.42059 14.3823 9.5026C14.4269 9.54421 14.462 9.59499 14.4852 9.65145C14.5083 9.70792 14.5189 9.76871 14.5163 9.82967C14.5184 9.88944 14.5075 9.94894 14.4844 10.0041C14.4612 10.0592 14.4264 10.1087 14.3823 10.1491C14.2927 10.2313 14.1597 10.2723 13.9833 10.272H10.9315C10.6868 10.272 10.511 10.2178 10.404 10.1094C10.2969 10.001 10.2434 9.82572 10.2433 9.58363V5.41641C10.2383 5.28089 10.2629 5.14591 10.3152 5.02081C10.3603 4.92146 10.4404 4.84214 10.5401 4.79793C10.6641 4.74699 10.7975 4.72307 10.9315 4.72775H13.8963C14.0752 4.72775 14.2082 4.76741 14.2953 4.84675C14.3384 4.88617 14.3723 4.93449 14.3949 4.98836C14.4174 5.04223 14.4279 5.10035 14.4257 5.1587C14.4282 5.21763 14.4178 5.27639 14.3952 5.33091C14.3727 5.38542 14.3386 5.43439 14.2953 5.47441C14.2083 5.55439 14.0753 5.59431 13.8963 5.59418Z" fill="white"/>
<path d="M19.2182 9.39833L18.3218 6.074L17.4142 9.39833C17.3437 9.65067 17.2877 9.83162 17.2461 9.9412C17.2002 10.0566 17.1253 10.1581 17.0286 10.2361C16.9113 10.3276 16.765 10.3739 16.6165 10.3665C16.4976 10.3712 16.3796 10.3445 16.2743 10.2891C16.1837 10.2364 16.1086 10.1607 16.0568 10.0696C15.9966 9.96408 15.9508 9.85092 15.9206 9.73319C15.8852 9.60332 15.8536 9.48288 15.8259 9.37185L14.9032 5.63954C14.8566 5.47811 14.8288 5.31187 14.8202 5.14408C14.8189 5.07639 14.8316 5.00915 14.8577 4.94666C14.8837 4.88416 14.9225 4.82778 14.9715 4.78108C15.0208 4.73257 15.0793 4.69449 15.1437 4.66913C15.208 4.64377 15.2768 4.63165 15.3459 4.6335C15.5501 4.6335 15.6875 4.69905 15.7581 4.83015C15.8453 5.01127 15.9075 5.20337 15.9431 5.40122L16.6692 8.63839L17.4823 5.60929C17.5265 5.42982 17.5808 5.253 17.645 5.0797C17.6944 4.95639 17.7752 4.84815 17.8793 4.7657C18.0069 4.67143 18.1634 4.62461 18.3218 4.6333C18.4806 4.62351 18.6375 4.6727 18.7624 4.77145C18.8589 4.85188 18.9336 4.9552 18.9799 5.07198C19.0201 5.18045 19.0743 5.35949 19.1426 5.6091L19.9631 8.6382L20.6892 5.40103C20.7156 5.26703 20.7491 5.13452 20.7894 5.00402C20.8219 4.90637 20.8778 4.81812 20.9521 4.74688C20.9975 4.70672 21.0505 4.67599 21.1079 4.65649C21.1654 4.63699 21.2261 4.62911 21.2866 4.6333C21.3552 4.63181 21.4235 4.6439 21.4875 4.66888C21.5514 4.69385 21.6098 4.73123 21.6593 4.77885C21.7091 4.82546 21.7485 4.88208 21.7749 4.94499C21.8013 5.0079 21.8141 5.07568 21.8124 5.14389C21.8024 5.31151 21.7746 5.47759 21.7295 5.63935L20.8068 9.37166C20.7436 9.62404 20.6913 9.8088 20.6498 9.92595C20.6067 10.0451 20.5338 10.1512 20.438 10.2342C20.3186 10.3289 20.1683 10.376 20.0162 10.3663C19.8679 10.3738 19.7219 10.3283 19.6041 10.2379C19.508 10.1621 19.4336 10.0623 19.3885 9.94847C19.3481 9.84158 19.2914 9.6582 19.2182 9.39833Z" fill="white"/>
</svg>
