<svg width="27" height="28" viewBox="0 0 27 28" fill="none" xmlns="http://www.w3.org/2000/svg">
<g id="Group 215">
<g id="_x31_2.Viber">
<path id="Icon_36_" d="M16.2999 0H10.6999C5.2959 0 0.899902 4.396 0.899902 9.8V14C0.899902 17.7975 3.0874 21.238 6.4999 22.8585V27.538C6.4999 27.944 7.0074 28.154 7.2944 27.867L11.3614 23.8035H16.2999C21.7039 23.8035 26.0999 19.4075 26.0999 14V9.8C26.0999 4.396 21.7039 0 16.2999 0ZM19.9679 18.3683L18.5504 19.7544C17.0594 21.2139 13.1674 19.5478 9.7374 16.0443C6.3074 12.5373 4.8024 8.61035 6.2199 7.15085L7.6374 5.76485C8.1589 5.25385 9.0444 5.26435 9.6289 5.78585L11.6729 7.87535C12.4009 8.62085 12.0929 9.87035 11.1304 10.1573C10.4654 10.3708 10.0139 11.1023 10.2274 11.7673C10.5809 13.3213 12.5514 15.2638 14.0214 15.6488C14.6829 15.8028 15.4249 15.4423 15.6559 14.7808C15.9604 13.8253 17.2169 13.5419 17.9484 14.2909L19.9889 16.3769C20.4999 16.898 20.4929 17.7838 19.9679 18.3683ZM14.7739 6.65C14.6339 6.65 14.4939 6.657 14.3574 6.6745C14.1019 6.7025 13.8709 6.517 13.8429 6.2615C13.8149 6.006 14.0004 5.775 14.2559 5.747C14.4274 5.726 14.6024 5.719 14.7739 5.719C17.3464 5.719 19.4394 7.812 19.4394 10.3845C19.4394 10.556 19.4324 10.731 19.4114 10.9025C19.3834 11.1545 19.1489 11.3435 18.8969 11.3155C18.6449 11.2875 18.4559 11.053 18.4839 10.801C18.4979 10.6645 18.5084 10.5245 18.5084 10.3845C18.5084 8.3265 16.8319 6.65 14.7739 6.65ZM17.5739 10.3845C17.5739 10.64 17.3604 10.85 17.1049 10.85C16.8529 10.85 16.6394 10.64 16.6394 10.3845C16.6394 9.3555 15.8029 8.519 14.7739 8.519C14.5149 8.519 14.3049 8.309 14.3049 8.05C14.3049 7.7945 14.5149 7.5845 14.7739 7.5845C16.3174 7.5845 17.5739 8.841 17.5739 10.3845ZM21.1334 11.893C21.0739 12.145 20.8044 12.3025 20.5559 12.236C20.3144 12.1695 20.1674 11.9175 20.2234 11.676C20.3249 11.256 20.3739 10.822 20.3739 10.3845C20.3739 7.2975 17.8609 4.7845 14.7739 4.7845C14.6304 4.7845 14.4834 4.788 14.3399 4.802C14.0844 4.8195 13.8604 4.627 13.8394 4.3715C13.8219 4.1125 14.0144 3.8885 14.2699 3.871C14.4379 3.857 14.6059 3.85 14.7739 3.85C18.3754 3.85 21.3084 6.783 21.3084 10.3845C21.3084 10.892 21.2489 11.3995 21.1334 11.893Z" fill="#665CAC"/>
</g>
</g>
</svg>
