<svg width="43" height="43" viewBox="0 0 43 43" fill="none" xmlns="http://www.w3.org/2000/svg">
<g clip-path="url(#clip0_82_3370)">
<path d="M33.9835 26.6371C33.1032 25.7204 32.0414 25.2304 30.916 25.2304C29.7997 25.2304 28.7288 25.7114 27.8122 26.628L24.9444 29.4868C24.7084 29.3597 24.4725 29.2417 24.2456 29.1237C23.9189 28.9604 23.6103 28.8061 23.3471 28.6427C20.6608 26.9366 18.2195 24.7131 15.878 21.8362C14.7436 20.4022 13.9812 19.1952 13.4276 17.97C14.1718 17.2894 14.8616 16.5815 15.5332 15.9008C15.7873 15.6467 16.0414 15.3835 16.2955 15.1294C18.2013 13.2236 18.2013 10.755 16.2955 8.84919L13.8179 6.3716C13.5366 6.09026 13.2461 5.79984 12.9739 5.50943C12.4293 4.94675 11.8576 4.36592 11.2677 3.82139C10.3874 2.95015 9.33462 2.4873 8.22742 2.4873C7.12021 2.4873 6.04931 2.95015 5.14177 3.82139C5.13269 3.83047 5.13269 3.83047 5.12362 3.83955L2.03797 6.95242C0.876309 8.11408 0.213801 9.52985 0.0685941 11.1725C-0.149217 13.8225 0.631272 16.2911 1.23025 17.9065C2.70047 21.8725 4.89673 25.548 8.17297 29.4868C12.148 34.2332 16.9308 37.9814 22.3942 40.6223C24.4815 41.6115 27.2677 42.7823 30.3806 42.9819C30.5712 42.991 30.7708 43.0001 30.9523 43.0001C33.0488 43.0001 34.8094 42.2468 36.1889 40.7494C36.1979 40.7312 36.2161 40.7222 36.2252 40.704C36.6971 40.1322 37.2416 39.6149 37.8134 39.0613C38.2036 38.6893 38.6029 38.299 38.9932 37.8906C39.8916 36.9558 40.3636 35.8668 40.3636 34.7505C40.3636 33.6252 39.8826 32.5452 38.9659 31.6376L33.9835 26.6371ZM37.2325 36.1935C37.2235 36.1935 37.2235 36.2026 37.2325 36.1935C36.8786 36.5747 36.5156 36.9195 36.1253 37.3007C35.5354 37.8634 34.9365 38.4533 34.3738 39.1158C33.4572 40.0959 32.3772 40.5588 30.9614 40.5588C30.8253 40.5588 30.6801 40.5588 30.5439 40.5497C27.8485 40.3773 25.3437 39.3245 23.4651 38.4261C18.3284 35.9394 13.8179 32.409 10.0697 27.9348C6.97501 24.2048 4.90581 20.7562 3.53541 17.0534C2.6914 14.7936 2.38283 13.033 2.51896 11.3722C2.60972 10.3103 3.01811 9.43002 3.77138 8.67676L6.8661 5.58203C7.3108 5.16456 7.78272 4.93767 8.24557 4.93767C8.81732 4.93767 9.28017 5.28254 9.57058 5.57296C9.57966 5.58203 9.58873 5.59111 9.59781 5.60018C10.1514 6.11748 10.6778 6.65293 11.2314 7.22469C11.5127 7.5151 11.8031 7.80552 12.0936 8.105L14.5712 10.5826C15.5332 11.5446 15.5332 12.434 14.5712 13.396C14.308 13.6592 14.0539 13.9224 13.7907 14.1765C13.0283 14.957 12.3023 15.683 11.5127 16.3909C11.4946 16.409 11.4764 16.4181 11.4674 16.4363C10.6869 17.2168 10.8321 17.9791 10.9954 18.4964C11.0045 18.5236 11.0136 18.5508 11.0227 18.5781C11.667 20.139 12.5746 21.6093 13.954 23.3608L13.9631 23.3699C16.4679 26.4556 19.1089 28.8605 22.0221 30.7029C22.3942 30.9388 22.7754 31.1294 23.1384 31.3109C23.4651 31.4743 23.7737 31.6286 24.0368 31.7919C24.0731 31.8101 24.1094 31.8373 24.1457 31.8554C24.4543 32.0097 24.7447 32.0823 25.0442 32.0823C25.7975 32.0823 26.2694 31.6104 26.4237 31.4561L29.5275 28.3523C29.8361 28.0438 30.3261 27.6717 30.8979 27.6717C31.4606 27.6717 31.9234 28.0256 32.2047 28.3342C32.2138 28.3432 32.2138 28.3432 32.2229 28.3523L37.2235 33.3529C38.1582 34.2786 38.1582 35.2315 37.2325 36.1935Z" fill="black"/>
<path d="M23.2382 10.2283C25.616 10.6276 27.7759 11.753 29.5003 13.4773C31.2246 15.2017 32.3409 17.3616 32.7493 19.7394C32.8491 20.3384 33.3664 20.7558 33.9563 20.7558C34.0289 20.7558 34.0925 20.7468 34.1651 20.7377C34.8366 20.6288 35.2813 19.9935 35.1724 19.3219C34.6824 16.445 33.321 13.8222 31.2428 11.7439C29.1645 9.66565 26.5417 8.30433 23.6648 7.81425C22.9932 7.70535 22.367 8.15005 22.249 8.81255C22.131 9.47506 22.5666 10.1194 23.2382 10.2283Z" fill="black"/>
<path d="M42.9501 18.9682C42.1424 14.2308 39.9098 9.91999 36.4793 6.48947C33.0488 3.05895 28.7379 0.826393 24.0005 0.0186786C23.338 -0.0993022 22.7118 0.35447 22.5938 1.01698C22.4849 1.68856 22.9296 2.31477 23.6012 2.43275C27.8304 3.14971 31.6874 5.15538 34.7549 8.2138C37.8224 11.2813 39.819 15.1384 40.536 19.3675C40.6358 19.9665 41.1531 20.384 41.743 20.384C41.8156 20.384 41.8792 20.3749 41.9518 20.3658C42.6143 20.266 43.0681 19.6307 42.9501 18.9682Z" fill="black"/>
</g>
<defs>
<clipPath id="clip0_82_3370">
<rect width="43" height="43" fill="white"/>
</clipPath>
</defs>
</svg>
