<svg width="54" height="54" viewBox="0 0 54 54" fill="none" xmlns="http://www.w3.org/2000/svg">
<path d="M27 17.1818C28.9529 17.1818 30.8259 16.4196 32.2069 15.0629C33.5878 13.7062 34.3636 11.8661 34.3636 9.94737V4.73856C34.3612 3.48255 33.8523 2.27867 32.9483 1.39053C32.0443 0.502398 30.8189 0.00239013 29.5404 0H24.4595C23.1811 0.00239013 21.9557 0.502398 21.0517 1.39053C20.1477 2.27867 19.6388 3.48255 19.6364 4.73856V9.94737C19.6364 11.8661 20.4122 13.7062 21.7931 15.0629C23.1741 16.4196 25.047 17.1818 27 17.1818ZM24.4595 1.80861H28.6752C28.4543 4.86517 24.9014 6.37536 21.4773 6.47483V4.73856C21.4773 3.96149 21.7915 3.21625 22.3507 2.66678C22.91 2.1173 23.6686 1.80861 24.4595 1.80861ZM21.4773 8.28345C24.6989 8.2111 29.881 6.98124 30.5161 1.9533C31.1048 2.15351 31.6148 2.5298 31.9747 3.02933C32.3346 3.52886 32.5262 4.12657 32.5227 4.73856V9.94737C32.5227 11.3864 31.9409 12.7665 30.9051 13.784C29.8694 14.8016 28.4647 15.3732 27 15.3732C25.5353 15.3732 24.1305 14.8016 23.0948 13.784C22.0591 12.7665 21.4773 11.3864 21.4773 9.94737V8.28345Z" fill="black"/>
<path d="M53.069 32.8295H43.7586V20.8636C43.7586 18.9107 42.9739 17.0377 41.5771 15.6568C40.1802 14.2758 38.2858 13.5 36.3103 13.5C36.0634 13.5 35.8266 13.597 35.652 13.7696C35.4774 13.9422 35.3793 14.1763 35.3793 14.4205C35.3793 14.6646 35.4774 14.8987 35.652 15.0713C35.8266 15.2439 36.0634 15.3409 36.3103 15.3409C37.7919 15.3409 39.2128 15.9228 40.2604 16.9585C41.308 17.9942 41.8966 19.3989 41.8966 20.8636V32.8295H40.0345V27.9603C40.0494 25.855 39.2202 23.8295 37.7284 22.3271C36.2366 20.8246 34.2036 19.9675 32.0741 19.9432H21.9259C19.7964 19.9675 17.7634 20.8246 16.2716 22.3271C14.7798 23.8295 13.9506 25.855 13.9655 27.9603V32.8295H12.1034V20.8636C12.1034 19.3989 12.692 17.9942 13.7396 16.9585C14.7872 15.9228 16.2081 15.3409 17.6897 15.3409C17.9366 15.3409 18.1734 15.2439 18.348 15.0713C18.5226 14.8987 18.6207 14.6646 18.6207 14.4205C18.6207 14.1763 18.5226 13.9422 18.348 13.7696C18.1734 13.597 17.9366 13.5 17.6897 13.5C15.7142 13.5 13.8198 14.2758 12.4229 15.6568C11.0261 17.0377 10.2414 18.9107 10.2414 20.8636V32.8295H0.931035C0.684109 32.8295 0.447296 32.9265 0.272694 33.0991C0.0980908 33.2718 0 33.5059 0 33.75V53.0795C0 53.3237 0.0980908 53.5578 0.272694 53.7304C0.447296 53.903 0.684109 54 0.931035 54H53.069C53.3159 54 53.5527 53.903 53.7273 53.7304C53.9019 53.5578 54 53.3237 54 53.0795V33.75C54 33.5059 53.9019 33.2718 53.7273 33.0991C53.5527 32.9265 53.3159 32.8295 53.069 32.8295ZM29.039 25.1253L28.8621 24.3245C28.8111 24.1203 28.6909 23.9395 28.5215 23.8122C28.3521 23.685 28.1437 23.6189 27.931 23.625H26.069C25.8563 23.6189 25.6479 23.685 25.4785 23.8122C25.3091 23.9395 25.1889 24.1203 25.1379 24.3245L24.9331 25.1253L23.2107 21.7841H30.7893L29.039 25.1253ZM27.7448 27.583L27 28.9913L26.2552 27.583L26.7952 25.4659H27.2048L27.7448 27.583ZM15.8276 27.9603C15.8142 26.4782 16.3444 25.0414 17.3201 23.9161C18.2958 22.7907 19.6509 22.0529 21.1345 21.8393L24.4676 28.172L26.1714 31.4028C26.2495 31.5536 26.3682 31.6801 26.5144 31.7685C26.6606 31.8569 26.8286 31.9036 27 31.9036C27.1714 31.9036 27.3394 31.8569 27.4856 31.7685C27.6318 31.6801 27.7505 31.5536 27.8286 31.4028L29.5324 28.2273L32.8655 21.8945C34.3396 22.1068 35.687 22.8366 36.6615 23.9504C37.636 25.0643 38.1723 26.4877 38.1724 27.9603V32.8295H36.3103V30.9886C36.3103 30.7445 36.2123 30.5104 36.0377 30.3378C35.863 30.1652 35.6262 30.0682 35.3793 30.0682C35.1324 30.0682 34.8956 30.1652 34.721 30.3378C34.5464 30.5104 34.4483 30.7445 34.4483 30.9886V32.8295H19.5517V30.9886C19.5517 30.7445 19.4536 30.5104 19.279 30.3378C19.1044 30.1652 18.8676 30.0682 18.6207 30.0682C18.3738 30.0682 18.137 30.1652 17.9623 30.3378C17.7877 30.5104 17.6897 30.7445 17.6897 30.9886V32.8295H15.8276V27.9603ZM1.86207 34.6705H52.1379V36.5114H1.86207V34.6705ZM13.9655 52.1591V45.7159H40.0345V52.1591H13.9655ZM52.1379 52.1591H41.8966V44.7955C41.8966 44.5513 41.7985 44.3172 41.6239 44.1446C41.4493 43.972 41.2124 43.875 40.9655 43.875H13.0345C12.7876 43.875 12.5507 43.972 12.3761 44.1446C12.2015 44.3172 12.1034 44.5513 12.1034 44.7955V52.1591H1.86207V38.3523H52.1379V52.1591Z" fill="black"/>
</svg>
