<svg width="22" height="22" viewBox="0 0 22 22" fill="none" xmlns="http://www.w3.org/2000/svg">
<g clip-path="url(#clip0_4_278)">
<path d="M18.9083 20.3067L16.5953 19.6865L15.9756 22L13.83 18.2829L13.3715 17.4891L15.0578 15.3634L16.143 15.5167L16.6014 16.3113L18.9083 20.3067Z" fill="#F07281"/>
<path d="M14.7003 17.4891L16.3968 20.4276L15.9756 22L13.3715 17.4891L15.0578 15.8064L14.7003 17.4891Z" fill="#EB5569"/>
<path d="M8.63826 17.5121L8.17935 18.3067L6.04702 22L5.4269 19.6865L3.11389 20.3066L5.42071 16.31L5.87915 15.5158L6.92763 15.355L8.63826 17.5121Z" fill="#F07281"/>
<path d="M7.002 15.8723L4.68586 19.8849L3.11389 20.3066L5.87915 15.5157L6.92763 15.7979L7.002 15.8723Z" fill="#EB5569"/>
<path d="M6.92763 15.355L8.63826 17.5121L8.17935 18.3067L6.46829 16.5917L5.42072 16.31L5.87915 15.5158L6.92763 15.355Z" fill="#EB5569"/>
<path d="M16.6014 16.3113L15.5154 16.601L13.83 18.2829L13.3715 17.4891L15.0578 15.3634L16.143 15.5167L16.6014 16.3113Z" fill="#EB5569"/>
<path d="M15.7487 18.5521C15.6339 18.5521 15.5222 18.4925 15.4607 18.386L14.3303 16.4281C14.2386 16.2692 14.293 16.0661 14.4519 15.9743C14.6107 15.8827 14.814 15.937 14.9057 16.0959L16.0361 18.0538C16.1278 18.2127 16.0734 18.4158 15.9145 18.5076C15.8622 18.5377 15.8051 18.5521 15.7487 18.5521Z" fill="#EB5569"/>
<path d="M6.27357 18.5522C6.2172 18.5522 6.16009 18.5379 6.10775 18.5077C5.94886 18.4159 5.89441 18.2127 5.98615 18.0539L7.11168 16.1045C7.20341 15.9456 7.40661 15.8912 7.56547 15.9829C7.72437 16.0747 7.77881 16.2779 7.68707 16.4367L6.56155 18.3861C6.50002 18.4927 6.38838 18.5522 6.27357 18.5522Z" fill="#EB5569"/>
<path d="M13.3716 17.4891L10.9916 16.8914L8.63834 17.5122L6.92779 15.7979L4.58153 15.1666L3.95513 12.8191L2.23883 11.0992L2.87013 8.75294L2.24369 6.40539L3.96355 4.68909L4.59485 2.34282L6.9424 1.71642L8.66223 0.00012207L11.0085 0.631419L13.3561 0.00497754L15.0724 1.72484L17.4187 2.3561L18.0451 4.7037L19.7614 6.42352L19.1301 8.76979L19.7565 11.1174L18.0366 12.8336L17.4053 15.1799L15.0578 15.8063L13.3716 17.4891Z" fill="#FEE97D"/>
<path d="M5.29231 4.68896L3.57235 6.40535L4.19867 8.75295L3.5675 11.0992L5.28389 12.8192L5.9102 15.1668L8.25646 15.7979L9.69334 17.2379L8.63828 17.5121L6.92766 15.7979L4.58139 15.1668L3.95508 12.8192L2.23865 11.0992L2.86986 8.75295L2.24355 6.40535L3.96346 4.68896L4.59467 2.3427L6.94226 1.71639L8.66218 0L9.70885 0.281703L8.27107 1.71639L5.92348 2.3427L5.29231 4.68896Z" fill="#FBD94F"/>
<path d="M11.0002 14.9508C9.63204 14.9508 8.27809 14.4821 7.18785 13.631C6.06813 12.7569 5.30393 11.5647 4.97779 10.1832C4.59889 8.57824 4.86964 6.91865 5.74006 5.51022C6.61052 4.1018 7.97383 3.11747 9.57876 2.73861C10.0471 2.62805 10.5256 2.57202 11.0009 2.57202C12.3691 2.57202 13.7231 3.04072 14.8133 3.89185C15.933 4.76596 16.6973 5.95817 17.0234 7.33966C17.8074 10.6606 15.7434 14.0002 12.4223 14.7842C11.9541 14.8947 11.4757 14.9508 11.0002 14.9508Z" fill="#FFB850"/>
<path d="M11.0002 13.5731C9.93768 13.5731 8.88478 13.208 8.03546 12.545C7.16555 11.8659 6.57177 10.9397 6.31847 9.86665C6.02413 8.61978 6.23485 7.32977 6.91187 6.23437C7.58888 5.13897 8.64836 4.37356 9.89523 4.07923C10.26 3.99312 10.632 3.94946 11.0009 3.94946C12.0634 3.94946 13.1163 4.31457 13.9655 4.97758C14.8356 5.6567 15.4293 6.58293 15.6826 7.65603C16.2921 10.2377 14.6875 12.8339 12.1058 13.4434C11.7412 13.5295 11.3692 13.5731 11.0002 13.5731Z" fill="#FEE97D"/>
<path d="M11.6684 13.5256C11.446 13.5571 11.2224 13.573 11 13.573C9.93784 13.573 8.88498 13.2081 8.03545 12.545C7.1655 11.8659 6.57197 10.9397 6.31859 9.8665C6.02404 8.61964 6.23488 7.3298 6.91168 6.2344C7.58896 5.139 8.64844 4.37359 9.89535 4.07904C10.2599 3.99311 10.632 3.94971 11.0009 3.94971C11.2224 3.94971 11.443 3.96565 11.6618 3.99667C11.5152 4.01751 11.369 4.04497 11.2242 4.07904C9.97729 4.37359 8.91777 5.139 8.24049 6.2344C7.56369 7.3298 7.35284 8.61964 7.6474 9.8665C7.90074 10.9397 8.49431 11.8659 9.36425 12.545C10.0371 13.0698 10.837 13.4082 11.6684 13.5256Z" fill="#FBD94F"/>
<path d="M11.2753 5.86457L12.0636 7.46181L13.8263 7.71794C14.078 7.75451 14.1785 8.06388 13.9964 8.24147L12.7209 9.48478L13.022 11.2403C13.065 11.491 12.8018 11.6822 12.5766 11.5639L11.0001 10.735L9.42351 11.5639C9.19835 11.6822 8.93517 11.491 8.97818 11.2403L9.27926 9.48478L8.00378 8.24147C7.82163 8.06393 7.92214 7.75455 8.17389 7.71794L9.93656 7.46181L10.7249 5.86457C10.8374 5.63645 11.1627 5.63645 11.2753 5.86457Z" fill="#FFB850"/>
<path d="M10.175 8.24117L11.4506 9.48469L11.2167 10.8487L11.0001 10.7347L9.42334 11.5636C9.19862 11.6824 8.93539 11.4908 8.97827 11.24L9.27953 9.48469L8.00396 8.24117C7.8216 8.06367 7.92201 7.75429 8.17385 7.71794L9.93682 7.46176L10.725 5.86435C10.8373 5.63636 11.163 5.63636 11.2753 5.86435L12.0635 7.46176L12.0857 7.46503L10.345 7.71798C10.0931 7.75429 9.99264 8.06371 10.175 8.24117Z" fill="#F5A30F"/>
</g>
<defs>
<clipPath id="clip0_4_278">
<rect width="22" height="22" fill="white"/>
</clipPath>
</defs>
</svg>
