<svg width="24" height="24" viewBox="0 0 24 24" fill="none" xmlns="http://www.w3.org/2000/svg">
<path d="M11.6915 0.153799C11.8464 -0.0517304 12.1546 -0.0508018 12.3087 0.153799L14.2403 2.71982C14.347 2.86167 14.5366 2.91251 14.6999 2.84302L17.6558 1.5867C17.8916 1.48634 18.1592 1.6401 18.1902 1.89523L18.5803 5.08334C18.6016 5.25946 18.7404 5.39829 18.9166 5.4198L22.1048 5.80973C22.3599 5.841 22.5137 6.10805 22.4134 6.34422L21.1569 9.3001C21.0876 9.46346 21.1384 9.65305 21.2802 9.75976L23.8462 11.6914C24.0511 11.846 24.0514 12.1541 23.8462 12.3085L21.2802 14.2402C21.1384 14.3471 21.0877 14.5366 21.1569 14.7L22.4134 17.6558C22.5138 17.8926 22.3594 18.1591 22.1048 18.1903L18.9166 18.5801C18.7405 18.6017 18.6017 18.7405 18.5803 18.9167C18.1915 20.612 18.524 22.7826 17.6558 22.4134L14.6999 21.157C14.5366 21.0876 14.3469 21.1384 14.2403 21.2802L12.3087 23.8462C12.1545 24.051 11.8462 24.0515 11.6915 23.8462L9.75982 21.2802C9.65287 21.1384 9.46343 21.0876 9.30015 21.157L6.34409 22.4134C6.10768 22.5139 5.84087 22.3594 5.80976 22.1048L5.41982 18.9167C5.39838 18.7406 5.25956 18.6019 5.08343 18.5802L1.89529 18.1904C1.64008 18.1592 1.48648 17.8921 1.58661 17.6559L2.84317 14.7001C2.91251 14.5367 2.86166 14.3471 2.7199 14.2403L0.153771 12.3086C-0.0509088 12.1546 -0.0516052 11.8461 0.153771 11.6915L2.7199 9.75983C2.86166 9.65312 2.91243 9.46346 2.84317 9.30018L1.58661 6.3443C1.48624 6.10766 1.64055 5.841 1.89529 5.80981L5.08343 5.41988C5.25948 5.39837 5.39831 5.25954 5.41982 5.08342L5.80976 1.89531C5.84087 1.64018 6.10815 1.48641 6.34409 1.58678L9.30015 2.8431C9.46343 2.91259 9.65295 2.86182 9.75982 2.7199L11.6915 0.153799Z" fill="black"/>
<path d="M8.37308 13.8013C8.29979 13.5345 8.15844 13.314 7.94903 13.1394C7.77246 12.9923 7.5795 12.9036 7.38109 12.8516C6.85582 12.7141 6.2918 12.8351 5.88843 12.8267C5.61842 12.821 5.42008 12.7575 5.35479 12.5185C5.27827 12.2404 5.45423 12.0425 5.88282 11.9247C6.28434 11.8145 6.59735 11.9254 6.82206 12.2577L7.69801 11.6785C7.54351 11.4736 7.38324 11.3212 7.21582 11.2098C6.74846 10.8994 6.22428 10.9192 5.60912 11.0882C5.09631 11.2289 4.72917 11.4818 4.5076 11.8465C4.28581 12.2114 4.23151 12.5994 4.34457 13.0109C4.41701 13.2747 4.53168 13.482 4.68679 13.6347C5.07547 14.017 5.78469 14.0268 6.37263 13.9893C6.70663 13.9682 6.93919 13.9796 7.07039 14.0237C7.2352 14.0795 7.32271 14.212 7.33602 14.3707C7.34502 14.4778 7.31172 14.5836 7.23466 14.6881C7.04401 14.9469 6.50283 15.0827 6.1786 15.025C6.12876 15.0162 6.08101 15.0032 6.03563 14.986C5.85775 14.919 5.7124 14.7892 5.6005 14.5954L4.65926 15.0983C4.66226 15.1038 4.66587 15.1087 4.66903 15.1142C4.89098 15.5008 5.19521 15.7562 5.58228 15.8787C5.9748 16.0031 6.40816 16.0001 6.88251 15.8699C7.51505 15.6961 7.95018 15.4125 8.18828 15.0189C8.42623 14.6253 8.4879 14.2195 8.37308 13.8013Z" fill="#F0FAFF"/>
<path d="M10.4279 9.84106L9.17259 10.1859L8.96033 15.2226L9.91095 14.9614C9.91626 14.9447 9.82774 13.9594 10.7317 13.7112L11.4361 13.5176L11.7191 13.9703L11.983 14.3922L13.1484 14.0722L10.4279 9.84106ZM9.96478 13.0027L10.0134 11.2424L10.5478 12.0971L10.9456 12.7332L10.527 12.8482L9.96478 13.0027Z" fill="#F0FAFF"/>
<path d="M16.3355 12.2118L15.1987 12.5241C15.0942 12.5528 14.9889 12.5566 14.8884 12.5404C14.6152 12.4959 14.3787 12.2977 14.3006 12.0132L13.4741 9.00427L12.3752 9.30613L13.6469 13.9353L16.587 13.1276L16.3355 12.2118Z" fill="#F0FAFF"/>
<path d="M20.1984 11.1509C19.8251 11.2534 18.4961 11.619 18.4445 11.6319C17.8209 11.7879 17.7924 10.8945 17.7163 10.7459L19.4492 10.2698L19.2099 9.39827C18.5015 9.56839 18.1554 9.70874 17.924 9.74996C17.7844 9.7748 17.6863 9.76349 17.5759 9.70059C17.3097 9.54908 17.3409 9.28276 17.2161 8.92477L19.4205 8.31922L19.1784 7.4375L15.8718 8.34575L17.1434 12.9748L20.4497 12.0665L20.1984 11.1509Z" fill="#F0FAFF"/>
</svg>
