<svg width="49" height="49" viewBox="0 0 49 49" fill="none" xmlns="http://www.w3.org/2000/svg">
<g id="fi_1528669">
<path id="Vector" d="M41.6404 28.5389L41.4134 28.6614C40.4964 27.5486 38.9076 27.1173 37.6972 27.7308C37.6929 27.7329 37.6885 27.7352 37.6843 27.7374L37.1484 28.0259C36.5092 27.4847 35.7187 27.1539 34.8846 27.0785C34.0505 27.0032 33.2135 27.187 32.4877 27.6048L29.6017 29.1744H25.7615C24.93 29.1733 24.1094 28.9852 23.3604 28.6242L22.8321 28.3686C21.3281 27.6368 19.6509 27.3356 17.9862 27.4981C16.3215 27.6607 14.7343 28.2808 13.4003 29.2898C13.3878 29.2993 13.3756 29.3089 13.3639 29.3197L12.0884 30.4552C11.6064 30.8833 11.0367 31.2008 10.4191 31.3857L9.69471 29.0078C9.65883 28.8901 9.58608 28.7871 9.4872 28.7139C9.38831 28.6406 9.26852 28.6011 9.14547 28.6011H2.97712C2.89585 28.6011 2.8155 28.6183 2.74139 28.6517C2.66728 28.6851 2.6011 28.7338 2.54722 28.7946C2.49334 28.8555 2.45299 28.9271 2.42883 29.0047C2.40468 29.0823 2.39728 29.1641 2.40711 29.2448L4.4632 46.1039C4.48017 46.2431 4.54751 46.3713 4.65252 46.4643C4.75753 46.5573 4.89294 46.6086 5.03321 46.6086H14.2852C14.3749 46.6086 14.4634 46.5876 14.5436 46.5472C14.6237 46.5068 14.6933 46.4482 14.7467 46.3761C14.8001 46.304 14.8358 46.2204 14.8511 46.1319C14.8663 46.0435 14.8606 45.9527 14.8345 45.8669L13.619 41.8786L17.4045 39.486C17.911 39.2057 18.5052 39.1288 19.0663 39.2709C19.0782 39.2739 19.0902 39.2766 19.1022 39.2787L26.8024 40.6966C28.895 41.0711 31.0525 40.7664 32.9597 39.8273C32.984 39.8153 33.0075 39.8015 33.0299 39.7861L46.3483 30.6415C46.469 30.5586 46.5535 30.4329 46.5845 30.2898C46.6155 30.1468 46.5907 29.9973 46.5152 29.8719C46.0306 29.0648 45.2533 28.4758 44.3453 28.2274C43.4372 27.9791 42.4683 28.0907 41.6404 28.5389ZM38.2222 28.7521C38.9223 28.4016 39.8036 28.689 40.3665 29.2261L35.3161 31.9508L35.0194 32.1071C34.8595 31.653 34.6257 31.2284 34.3276 30.8504L38.2222 28.7521ZM33.0434 28.61C33.0479 28.6074 33.053 28.6049 33.057 28.6022C33.5093 28.3408 34.0235 28.2055 34.546 28.2104C35.0684 28.2153 35.58 28.3603 36.0273 28.6302L33.4595 30.0127C32.97 29.6554 32.4114 29.404 31.8194 29.2746L33.0434 28.61ZM5.5412 45.4602L3.6257 29.7495H8.71988L13.5098 45.4602H5.5412ZM32.4131 38.8154C30.7363 39.6316 28.8437 39.8946 27.0079 39.5665L19.3267 38.152C18.4818 37.9434 17.5891 38.0644 16.8302 38.4903C16.8213 38.4952 16.8124 38.5005 16.8037 38.5061L13.2709 40.7395L10.7539 32.485C11.53 32.2511 12.2458 31.8508 12.8514 31.312L14.1088 30.1923C15.2738 29.3164 16.658 28.7791 18.1088 28.6395C19.5596 28.5 21.0208 28.7636 22.3315 29.4013L22.8596 29.6568C23.7647 30.093 24.7562 30.3202 25.7609 30.3216H30.8834C31.6362 30.3226 32.3651 30.5858 32.9449 31.0659C33.5247 31.546 33.9193 32.213 34.0607 32.9524L30.3479 32.7845C28.9982 32.7238 27.6457 32.7863 26.3073 32.9712C26.1577 32.9934 26.0228 33.0738 25.9321 33.1949C25.8414 33.316 25.8021 33.4681 25.8229 33.618C25.8436 33.7678 25.9227 33.9035 26.0429 33.9954C26.1631 34.0873 26.3148 34.128 26.4649 34.1087C27.7339 33.9333 29.0162 33.8741 30.296 33.9319L34.6654 34.1295C34.6741 34.1295 34.6828 34.1301 34.6914 34.1301C34.8437 34.1301 34.9898 34.0696 35.0974 33.9619C35.2051 33.8542 35.2656 33.7081 35.2656 33.5558C35.2656 33.4629 35.2617 33.3708 35.2561 33.2793L35.8553 32.9634L42.1859 29.5491C42.6721 29.2859 43.2317 29.1906 43.7776 29.2781C44.3235 29.3656 44.8252 29.631 45.2048 30.033L32.4131 38.8154Z" fill="white"/>
<path id="Vector_2" d="M7.36664 43.0842C7.36664 43.4418 7.47267 43.7913 7.67131 44.0886C7.86996 44.3859 8.1523 44.6176 8.48264 44.7544C8.81298 44.8912 9.17648 44.927 9.52716 44.8573C9.87785 44.7875 10.2 44.6154 10.4528 44.3625C10.7056 44.1097 10.8778 43.7876 10.9476 43.4369C11.0173 43.0862 10.9815 42.7227 10.8447 42.3924C10.7079 42.062 10.4761 41.7797 10.1788 41.581C9.88155 41.3824 9.53203 41.2764 9.17447 41.2764C8.69517 41.2769 8.23565 41.4675 7.89673 41.8065C7.55781 42.1454 7.36717 42.6049 7.36664 43.0842ZM9.17447 42.4248C9.30489 42.4248 9.43237 42.4635 9.54081 42.5359C9.64925 42.6084 9.73376 42.7114 9.78367 42.8319C9.83358 42.9523 9.84664 43.0849 9.8212 43.2128C9.79575 43.3407 9.73295 43.4582 9.64073 43.5505C9.54851 43.6427 9.43102 43.7055 9.30311 43.7309C9.1752 43.7564 9.04262 43.7433 8.92213 43.6934C8.80164 43.6435 8.69866 43.559 8.6262 43.4505C8.55375 43.3421 8.51508 43.2146 8.51508 43.0842C8.51538 42.9094 8.58495 42.7419 8.70855 42.6183C8.83216 42.4948 8.9997 42.4252 9.17447 42.425V42.4248Z" fill="white"/>
<path id="Vector_3" d="M28.8662 8.64263V6.75039C28.8608 5.59794 28.3992 4.49453 27.5824 3.68153C26.7655 2.86853 25.66 2.41211 24.5075 2.41211C23.3551 2.41211 22.2495 2.86853 21.4327 3.68153C20.6159 4.49453 20.1543 5.59794 20.1489 6.75039V8.64263C20.1543 9.79508 20.6159 10.8985 21.4327 11.7115C22.2495 12.5245 23.3551 12.9809 24.5075 12.9809C25.66 12.9809 26.7655 12.5245 27.5824 11.7115C28.3992 10.8985 28.8608 9.79508 28.8662 8.64263ZM21.2973 8.64263V6.75039C21.3019 5.90202 21.6422 5.08998 22.2437 4.49173C22.8453 3.89347 23.6591 3.55765 24.5075 3.55765C25.3559 3.55765 26.1698 3.89347 26.7713 4.49173C27.3728 5.08998 27.7131 5.90202 27.7177 6.75039V8.64263C27.7131 9.491 27.3728 10.303 26.7713 10.9013C26.1698 11.4995 25.3559 11.8354 24.5075 11.8354C23.6591 11.8354 22.8453 11.4995 22.2437 10.9013C21.6422 10.303 21.3019 9.491 21.2973 8.64263Z" fill="white"/>
<path id="Vector_4" d="M17.4819 24.8278H31.5332C31.6855 24.8278 31.8316 24.7674 31.9393 24.6597C32.0469 24.552 32.1074 24.4059 32.1074 24.2536V22.9356H41.7266C41.8789 22.9356 42.0249 22.8751 42.1326 22.7674C42.2403 22.6597 42.3008 22.5137 42.3008 22.3614V18.6343C42.3002 17.5407 41.8833 16.4883 41.1348 15.691C40.3863 14.8936 39.3623 14.4111 38.2709 14.3415C37.9647 14.319 37.8072 14.5129 37.6796 14.6686C37.4255 14.979 37.104 15.2273 36.7394 15.3946C36.3749 15.5619 35.977 15.6437 35.576 15.6339C35.175 15.6241 34.7815 15.5229 34.4256 15.3381C34.0697 15.1532 33.7606 14.8895 33.522 14.567C33.4672 14.4928 33.3953 14.4329 33.3124 14.3924C33.2296 14.3519 33.1381 14.3319 33.0459 14.3342C32.3 14.3509 31.5716 14.5635 30.9336 14.9504C30.5125 14.4607 29.9973 14.0605 29.4187 13.7735C28.84 13.4864 28.2096 13.3185 27.5649 13.2795C27.2682 13.2675 27.1182 13.4476 26.9728 13.6241C26.6747 13.9884 26.2974 14.2798 25.8696 14.4761C25.4418 14.6725 24.9749 14.7685 24.5043 14.7571C24.0338 14.7456 23.5721 14.6268 23.1544 14.4098C22.7367 14.1928 22.3741 13.8833 22.0941 13.5049C22.0394 13.4306 21.9675 13.3707 21.8846 13.3301C21.8017 13.2896 21.7102 13.2697 21.618 13.2722C20.3587 13.3013 19.1612 13.8237 18.2832 14.7269C18.2107 14.801 18.1419 14.8779 18.0748 14.9559C17.4818 14.5949 16.8098 14.3839 16.117 14.3413C15.8118 14.3188 15.6532 14.5127 15.5256 14.6684C15.2716 14.9788 14.9501 15.2271 14.5855 15.3944C14.221 15.5617 13.8231 15.6435 13.4221 15.6337C13.0211 15.624 12.6277 15.5228 12.2717 15.3379C11.9158 15.153 11.6068 14.8893 11.3682 14.5668C11.3133 14.4927 11.2414 14.4329 11.1585 14.3924C11.0757 14.3518 10.9843 14.3318 10.8921 14.334C9.77045 14.3626 8.70435 14.8281 7.92109 15.6315C7.13783 16.4348 6.69938 17.5123 6.69922 18.6343V22.3614C6.69922 22.5137 6.75972 22.6597 6.8674 22.7674C6.97509 22.8751 7.12115 22.9356 7.27344 22.9356H16.9077V24.2536C16.9077 24.4059 16.9682 24.552 17.0759 24.6597C17.1836 24.7674 17.3296 24.8278 17.4819 24.8278ZM32.8007 15.5008C33.1547 15.9026 33.59 16.2247 34.0778 16.4458C34.5655 16.6669 35.0947 16.782 35.6302 16.7834C36.1657 16.7848 36.6954 16.6725 37.1844 16.454C37.6733 16.2354 38.1102 15.9156 38.4663 15.5156C39.213 15.6283 39.8946 16.0049 40.3875 16.5771C40.8803 17.1493 41.1516 17.8792 41.1523 18.6343V21.7872H32.1074V18.1035C32.108 17.3388 31.9261 16.585 31.5768 15.9048C31.952 15.686 32.369 15.5483 32.8007 15.5008ZM21.3705 14.438C21.7675 14.8977 22.2586 15.2667 22.8106 15.52C23.3626 15.7734 23.9626 15.9053 24.5699 15.9068C25.1773 15.9082 25.7779 15.7792 26.3311 15.5284C26.8842 15.2776 27.3771 14.911 27.7763 14.4532C28.658 14.5752 29.4659 15.0119 30.0509 15.6827C30.6359 16.3536 30.9586 17.2134 30.9594 18.1035V23.6794H18.0561V18.1035C18.0618 17.192 18.4028 16.3146 19.0142 15.6385C19.6255 14.9625 20.4642 14.5351 21.3705 14.438ZM7.84766 21.7872V18.6343C7.85251 17.8607 8.13966 17.1154 8.65518 16.5385C9.17069 15.9616 9.8791 15.5927 10.6474 15.5012C11.0014 15.9029 11.4366 16.2249 11.9243 16.4459C12.412 16.6669 12.9411 16.7819 13.4765 16.7832C14.0119 16.7846 14.5415 16.6723 15.0304 16.4538C15.5192 16.2353 15.9561 15.9155 16.3121 15.5156C16.7075 15.5748 17.0879 15.709 17.4328 15.9111C17.0866 16.59 16.9066 17.3414 16.9077 18.1035V21.7872H7.84766Z" fill="white"/>
<path id="Vector_5" d="M39.4636 10.3531V8.69675C39.4636 7.66594 39.0541 6.67734 38.3252 5.94845C37.5963 5.21955 36.6077 4.81006 35.5769 4.81006C34.5461 4.81006 33.5575 5.21955 32.8286 5.94845C32.0997 6.67734 31.6902 7.66594 31.6902 8.69675V10.3531C31.6902 11.3839 32.0997 12.3725 32.8286 13.1014C33.5575 13.8303 34.5461 14.2398 35.5769 14.2398C36.6077 14.2398 37.5963 13.8303 38.3252 13.1014C39.0541 12.3725 39.4636 11.3839 39.4636 10.3531ZM32.8386 10.3531V8.69675C32.8386 7.97052 33.1271 7.27404 33.6406 6.76051C34.1542 6.24699 34.8506 5.9585 35.5769 5.9585C36.3031 5.9585 36.9996 6.24699 37.5131 6.76051C38.0266 7.27404 38.3151 7.97052 38.3151 8.69675V10.3531C38.3151 11.0793 38.0266 11.7758 37.5131 12.2893C36.9996 12.8029 36.3031 13.0913 35.5769 13.0913C34.8506 13.0913 34.1542 12.8029 33.6406 12.2893C33.1271 11.7758 32.8386 11.0793 32.8386 10.3531Z" fill="white"/>
<path id="Vector_6" d="M17.3098 10.3531V8.69675C17.3098 8.18635 17.2093 7.68094 17.014 7.20938C16.8186 6.73782 16.5324 6.30936 16.1714 5.94845C15.8105 5.58753 15.3821 5.30124 14.9105 5.10592C14.439 4.91059 13.9335 4.81006 13.4231 4.81006C12.9127 4.81006 12.4073 4.91059 11.9358 5.10592C11.4642 5.30124 11.0357 5.58753 10.6748 5.94845C10.3139 6.30936 10.0276 6.73782 9.83229 7.20938C9.63697 7.68094 9.53644 8.18635 9.53644 8.69675V10.3531C9.53644 10.8635 9.63697 11.3689 9.83229 11.8405C10.0276 12.312 10.3139 12.7405 10.6748 13.1014C11.0357 13.4623 11.4642 13.7486 11.9358 13.9439C12.4073 14.1393 12.9127 14.2398 13.4231 14.2398C13.9335 14.2398 14.439 14.1393 14.9105 13.9439C15.3821 13.7486 15.8105 13.4623 16.1714 13.1014C16.5324 12.7405 16.8186 12.312 17.014 11.8405C17.2093 11.3689 17.3098 10.8635 17.3098 10.3531ZM10.6849 10.3531V8.69675C10.6849 7.97052 10.9734 7.27404 11.4869 6.76051C12.0004 6.24699 12.6969 5.9585 13.4231 5.9585C14.1494 5.9585 14.8459 6.24699 15.3594 6.76051C15.8729 7.27404 16.1614 7.97052 16.1614 8.69675V10.3531C16.1614 10.7127 16.0906 11.0688 15.953 11.401C15.8153 11.7332 15.6136 12.0351 15.3594 12.2893C15.1051 12.5436 14.8032 12.7453 14.471 12.8829C14.1388 13.0205 13.7827 13.0913 13.4231 13.0913C13.0635 13.0913 12.7075 13.0205 12.3752 12.8829C12.043 12.7453 11.7412 12.5436 11.4869 12.2893C11.2326 12.0351 11.0309 11.7332 10.8933 11.401C10.7557 11.0688 10.6849 10.7127 10.6849 10.3531Z" fill="white"/>
</g>
</svg>
