<svg width="27" height="28" viewBox="0 0 27 28" fill="none" xmlns="http://www.w3.org/2000/svg">
<g id="Group">
<path id="Vector" d="M26.8297 11.2697L26.1903 12.8514C25.9884 13.3898 25.9884 13.9619 26.1903 14.5004L26.8297 16.082C27.1999 17.0243 26.897 18.1012 26.0557 18.707L24.6422 19.6829C24.1711 20.0194 23.8682 20.5242 23.7336 21.0627L23.4307 22.7453C23.2288 23.7549 22.3875 24.4952 21.3779 24.5289L19.6616 24.5962C19.0895 24.6298 18.5511 24.8654 18.1473 25.2692L16.9694 26.5144C16.2627 27.2548 15.1522 27.423 14.2772 26.9182L12.7965 26.0433C12.2917 25.7404 11.7196 25.6731 11.1475 25.8077L9.46484 26.2115C8.48891 26.4471 7.44568 25.976 6.97454 25.0673L6.20052 23.5193C5.9313 23.0145 5.49382 22.6107 4.95537 22.4424L3.34004 21.904C2.36411 21.5674 1.75836 20.6252 1.85932 19.6156L2.02758 17.8993C2.09488 17.3272 1.92662 16.7551 1.55644 16.3176L0.479552 14.9715C-0.159851 14.1638 -0.159851 13.0533 0.479552 12.2456L1.55644 10.8995C1.92662 10.462 2.09488 9.88993 2.02758 9.31783L1.85932 7.60154C1.75836 6.59196 2.36411 5.64968 3.34004 5.31315L4.95537 4.77471C5.49382 4.60644 5.9313 4.20261 6.20052 3.69782L6.97454 2.14979C7.44568 1.24117 8.45526 0.770028 9.46484 1.0056L11.1475 1.40943C11.6859 1.54404 12.2917 1.47674 12.7965 1.17386L14.2772 0.29889C15.1522 -0.205902 16.2627 -0.071291 16.9694 0.702723L18.1473 1.94788C18.5511 2.35171 19.0895 2.62093 19.6616 2.62093L21.3779 2.68824C22.3875 2.72189 23.2625 3.46225 23.4307 4.47183L23.7336 6.15447C23.8346 6.72657 24.1711 7.23136 24.6422 7.53424L26.0557 8.51017C26.897 9.25053 27.2335 10.3274 26.8297 11.2697Z" fill="#00D566"/>
<g id="Group_2" opacity="0.15">
<path id="Vector_2" d="M7.95047 24.9664L7.17645 23.4184C6.90723 22.9136 6.46975 22.5098 5.9313 22.3415L4.31597 21.8031C3.34004 21.4665 2.73429 20.5243 2.83525 19.5147L3.00351 17.7984C3.07082 17.2263 2.90255 16.6542 2.53237 16.2167L1.45548 14.8706C0.81608 14.0629 0.81608 12.9524 1.45548 12.1447L2.53237 10.7986C2.90255 10.3611 3.07082 9.78901 3.00351 9.21692L2.83525 7.50063C2.73429 6.49104 3.34004 5.54876 4.31597 5.21224L5.9313 4.67379C6.46975 4.50553 6.90723 4.1017 7.17645 3.5969L7.95047 2.04888C8.21969 1.51043 8.69083 1.14025 9.19562 0.971988C8.28699 0.837377 7.37837 1.30852 6.97454 2.14984L6.20052 3.69786C5.9313 4.20265 5.49381 4.60649 4.95537 4.77475L3.34004 5.3132C2.36411 5.64972 1.75836 6.592 1.85932 7.60158L2.02758 9.31788C2.09488 9.88997 1.92662 10.4621 1.55644 10.8996L0.479552 12.2457C-0.159851 13.0533 -0.159851 14.1639 0.479552 14.9715L1.55644 16.3177C1.92662 16.7551 2.09488 17.3272 2.02758 17.8993L1.85932 19.6156C1.75836 20.6252 2.36411 21.5675 3.34004 21.904L4.95537 22.4425C5.49381 22.6107 5.9313 23.0146 6.20052 23.5193L6.97454 25.0674C7.44568 25.976 8.45526 26.4471 9.46484 26.2116L9.66676 26.1779C8.9264 26.0433 8.287 25.6395 7.95047 24.9664Z" fill="black"/>
<path id="Vector_3" d="M13.7386 1.07298L15.2194 0.19801C15.354 0.130705 15.4886 0.0633994 15.6232 0.0297466C15.1521 -0.0375589 14.6473 0.0633998 14.2434 0.298969L12.7627 1.17394C12.6281 1.24125 12.4935 1.30855 12.3589 1.3422C12.83 1.40951 13.3012 1.34221 13.7386 1.07298Z" fill="black"/>
<path id="Vector_4" d="M20.604 24.4613C20.4357 24.4613 20.2674 24.495 20.1328 24.5287L21.3443 24.4613C21.5126 24.4613 21.6472 24.4277 21.8155 24.394L20.604 24.4613Z" fill="black"/>
<path id="Vector_5" d="M15.2193 26.7836L13.7386 25.9086C13.2338 25.6057 12.6617 25.5384 12.0896 25.673L11.8877 25.7067C12.1906 25.7403 12.4598 25.8413 12.729 25.9759L14.2097 26.8509C14.7818 27.1874 15.4212 27.2211 16.027 27.0192C15.7578 27.0192 15.4885 26.9518 15.2193 26.7836Z" fill="black"/>
</g>
<path id="Vector_6" d="M8.15234 11.5386L12.3589 16.3509L20.974 9.41846" fill="#00D566"/>
<path id="Vector_7" d="M11.3494 18.8417C10.8782 18.8417 10.4071 18.6398 10.0706 18.2696L5.86396 13.4573C5.25821 12.7506 5.32552 11.7074 5.99857 11.068C6.70528 10.4622 7.74852 10.5295 8.38792 11.2026L11.5513 14.8034L18.9212 8.88052C19.6279 8.30842 20.7048 8.40938 21.2769 9.14974C21.849 9.8901 21.7481 10.9333 21.0077 11.5054L12.3926 18.4716C12.0897 18.7071 11.7195 18.8417 11.3494 18.8417Z" fill="white"/>
</g>
</svg>
