<svg width="80" height="80" viewBox="0 0 80 80" fill="none" xmlns="http://www.w3.org/2000/svg">
<g id="fi_11544937" clip-path="url(#clip0_109_144)">
<g id="Group">
<path id="Vector" d="M13.697 44.4644C13.0498 44.4644 12.5251 44.989 12.5251 45.6362C12.5251 46.2836 13.0498 46.8081 13.697 46.8081H13.7095C14.3567 46.8081 14.8751 46.2836 14.8751 45.6362C14.8751 44.9892 14.3442 44.4644 13.697 44.4644Z" fill="white"/>
<path id="Vector_2" d="M57.5354 44.4644C56.8882 44.4644 56.3635 44.989 56.3635 45.6362C56.3635 46.2836 56.8882 46.8081 57.5354 46.8081H57.5481C58.1952 46.8081 58.7135 46.2836 58.7135 45.6362C58.7135 44.9892 58.1826 44.4644 57.5354 44.4644Z" fill="white"/>
<path id="Vector_3" d="M78.923 39.0638L78.2522 38.3932C77.7639 37.9049 77.4948 37.2554 77.4948 36.5648V31.8587C77.4948 31.2113 76.9702 30.6868 76.323 30.6868C72.7072 30.6868 70.4777 33.5277 70.3845 33.6487C69.9909 34.1596 70.0861 34.8902 70.5952 35.2863C71.1039 35.6823 71.8392 35.5902 72.238 35.0832C72.2513 35.0662 73.3734 33.6637 75.1512 33.187V36.5648C75.1512 37.7412 75.5617 38.8541 76.313 39.7421L62.0505 41.4201C60.9214 40.2118 59.3155 39.4543 57.5352 39.4543C54.9866 39.4543 52.7936 41.0048 51.8491 43.212H27.4748C26.8277 43.212 26.303 43.7365 26.303 44.3838C26.303 45.031 26.8277 45.5557 27.4748 45.5557H51.3553C51.355 45.5826 51.3533 45.6093 51.3533 45.6363C51.3533 46.5593 51.558 47.4348 51.9222 48.2221H19.3102C19.6742 47.4348 19.8791 46.5593 19.8791 45.6363C19.8791 45.6093 19.8773 45.5827 19.877 45.5557H22.4648C23.112 45.5557 23.6367 45.031 23.6367 44.3838C23.6367 43.7365 23.112 43.212 22.4648 43.212H19.3833C18.4386 41.0049 16.2458 39.4543 13.6972 39.4543C11.1486 39.4543 8.95562 41.0048 8.01109 43.212H2.34375V42.7191C2.34375 41.0498 3.39016 39.5891 4.9475 39.0843C8.14484 38.048 13.7231 36.8155 22.1906 36.7893L23.1234 37.2557C24.1503 37.7691 25.3 38.0405 26.4481 38.0405H51.7025C53.3537 38.0405 54.9062 37.3974 56.0738 36.2298L58.7122 33.5915L61.5711 34.7351C62.8991 35.2662 64.2975 35.5355 65.7277 35.5355H66.303C66.9502 35.5355 67.4748 35.0109 67.4748 34.3637C67.4748 33.7163 66.9502 33.1918 66.303 33.1918H65.7277C64.597 33.1918 63.4914 32.9788 62.4416 32.5588L55.0673 29.6091C52.6992 28.662 50.2052 28.1816 47.6545 28.1816H35.3587C33.2589 28.1816 31.2077 28.7699 29.4269 29.8829L22.1277 34.4448C13.3869 34.4773 7.57469 35.769 4.22484 36.8548C1.69781 37.6738 0 40.0304 0 42.719V48.1412C0 49.478 1.0875 50.5657 2.42438 50.5657H9.93953C9.94969 50.5657 9.95953 50.5645 9.96969 50.5641C11.0067 51.3505 12.2981 51.8182 13.697 51.8182C15.095 51.8182 16.3858 51.3512 17.4225 50.5657H53.8098C54.8466 51.3512 56.1372 51.8182 57.5353 51.8182C59.84 51.8182 61.8528 50.5496 62.9158 48.6749L77.857 46.9296C79.0788 46.787 80.0002 45.7516 80.0002 44.5216V41.6638C80 40.6816 79.6175 39.7582 78.923 39.0638ZM54.1969 31.7854L56.3447 32.6445L54.4166 34.5726C53.6916 35.2976 52.7278 35.6968 51.7025 35.6968H43.6769V30.5254H47.6545C49.9056 30.5254 52.1067 30.9493 54.1969 31.7854ZM30.6691 31.8704C32.0769 30.9905 33.6986 30.5254 35.3587 30.5254H41.3333V35.6968H26.4483C25.9325 35.6968 25.4169 35.6152 24.9242 35.461L30.6691 31.8704ZM2.34375 48.1412V45.5555H7.51719C7.51688 45.5824 7.51516 45.6091 7.51516 45.6362C7.51516 46.5591 7.71984 47.4346 8.08406 48.222H2.42438C2.37984 48.222 2.34375 48.1859 2.34375 48.1412ZM9.85891 45.6362C9.85891 43.5198 11.5808 41.798 13.697 41.798C15.8133 41.798 17.5352 43.5199 17.5352 45.6362C17.5352 47.7524 15.8133 49.4745 13.697 49.4745C11.5808 49.4745 9.85891 47.7526 9.85891 45.6362ZM57.5353 49.4745C55.4189 49.4745 53.6972 47.7526 53.6972 45.6362C53.6972 43.5198 55.4191 41.798 57.5353 41.798C59.6516 41.798 61.3736 43.5199 61.3736 45.6362C61.3736 47.7524 59.6517 49.4745 57.5353 49.4745ZM77.585 44.6016L63.6886 46.2249C63.707 46.031 63.7173 45.8348 63.7173 45.6362C63.7173 44.9316 63.5972 44.2551 63.3792 43.6237L77.6562 41.944V44.5215C77.6562 44.5624 77.6256 44.597 77.585 44.6016Z" fill="white"/>
</g>
</g>
<defs>
<clipPath id="clip0_109_144">
<rect width="80" height="80" fill="white"/>
</clipPath>
</defs>
</svg>
