<svg width="168" height="168" viewBox="0 0 168 168" fill="none" xmlns="http://www.w3.org/2000/svg">
<g filter="url(#filter0_d_73_93)">
<path d="M82 153C121.764 153 154 120.765 154 81C154 41.2355 121.764 9 82 9C42.2355 9 10 41.2355 10 81C10 120.765 42.2355 153 82 153Z" fill="white"/>
</g>
<path d="M109 13.7983C126.789 21.2809 141.013 35.8154 148.328 54L154 51.7801C146.064 31.9553 130.565 16.1121 111.172 8L109 13.7983Z" fill="#E30613"/>
<path d="M15.6723 54C22.9922 35.8154 37.2107 21.2754 55 13.7983L52.8284 8C33.4346 16.1121 17.9358 31.9553 10 51.7801L15.6723 54Z" fill="black"/>
<path d="M148.328 108C141.008 126.185 126.789 140.725 109 148.202L111.172 154C130.565 145.888 146.064 130.045 154 110.22L148.328 108Z" fill="black"/>
<path d="M55 148.202C37.2107 140.719 22.9868 126.185 15.6723 108L10 110.22C17.9358 130.045 33.4346 145.888 52.8284 154L55 148.202Z" fill="#E30613"/>
<path d="M101.367 76.0044L100.282 82.1395C100.097 83.1819 99.671 83.9775 99.0064 84.53C98.3417 85.0826 97.5093 85.3569 96.5133 85.3569C95.5961 85.3569 94.8742 85.1336 94.3456 84.6868C93.817 84.24 93.5527 83.5915 93.5527 82.743C93.5527 82.4981 93.5784 82.2316 93.6316 81.9416H96.2115C96.1859 82.0827 96.172 82.2139 96.172 82.3354C96.172 82.7998 96.387 83.031 96.819 83.031C97.2766 83.031 97.5685 82.7332 97.6908 82.1375L98.7756 76.0024H101.367V76.0044Z" fill="black"/>
<path d="M107.436 83.7541H104.131L103.363 85.2648H100.639L105.679 76.0044H108.667L110.413 85.2648H107.675L107.436 83.7541ZM107.133 81.7966L106.669 78.7888L105.135 81.7966H107.133Z" fill="black"/>
<path d="M119.052 80.6209C118.712 81.0814 118.257 81.4478 117.683 81.7241C117.109 82.0004 116.444 82.1375 115.687 82.1375H114.405L113.848 85.2629H111.243L112.896 76.0024H116.77C117.748 76.0024 118.493 76.2239 119.004 76.6667C119.515 77.1095 119.771 77.7033 119.771 78.4459C119.771 78.6301 119.75 78.8437 119.704 79.0886C119.61 79.651 119.391 80.1624 119.052 80.6209ZM117.075 79.0906C117.093 78.9691 117.101 78.8809 117.101 78.828C117.101 78.5909 117.024 78.4047 116.87 78.2695C116.716 78.1343 116.48 78.0658 116.162 78.0658H115.13L114.773 80.1016H115.805C116.537 80.1016 116.961 79.7666 117.075 79.0906Z" fill="black"/>
<path d="M125.107 83.7541H121.801L121.034 85.2648H118.31L123.347 76.0044H126.336L128.081 85.2648H125.343L125.107 83.7541ZM124.803 81.7966L124.341 78.7888L122.807 81.7966H124.803Z" fill="black"/>
<path d="M137.562 85.2648H134.957L132.444 80.0899L131.519 85.2648H128.913L130.566 76.0044H133.158L135.683 81.246L136.608 76.0044H139.199L137.562 85.2648Z" fill="black"/>
<path d="M36.1566 89.1328C37.5471 88.6939 39.3124 88.3177 41.5373 88.0904V78.5478L51.8094 67.032H45.0836L41.1507 71.7876C40.5294 72.542 40.056 73.124 39.7266 73.5354C39.3992 73.9469 39.1487 74.2722 38.9771 74.5113C38.8903 74.3917 38.7444 74.2115 38.5373 73.9724C38.3302 73.7334 38.1053 73.4747 37.8647 73.2004C37.6241 72.9261 37.3893 72.6654 37.1665 72.4166C36.9416 72.1677 36.7602 71.9659 36.6221 71.8131L32.4821 67.032H25.6005L36.1566 78.5223V89.1328Z" fill="black"/>
<path d="M66.2984 71.5054C67.2294 71.5054 67.9552 71.672 68.472 72.0071C68.9888 72.3402 69.2471 72.8418 69.2471 73.51C69.2471 74.1096 68.9631 74.5818 68.3931 74.9228C67.8231 75.2657 67.1249 75.4361 66.2965 75.4361H51.2413V85.3843C52.8942 84.4967 54.6812 83.7893 56.5963 83.2603V79.6784H64.8231L66.8724 82.0964C70.1682 82.1689 72.5824 82.4667 74.5686 82.888L72.6613 80.8854C72.0578 80.2858 71.5745 79.8155 71.2116 79.4726C70.8487 79.1297 70.5213 78.8476 70.2294 78.6242C70.9355 78.487 71.5706 78.2519 72.1307 77.9168C72.6909 77.5837 73.1662 77.1761 73.5548 76.6961C73.9434 76.216 74.2412 75.6771 74.4483 75.0775C74.6554 74.478 74.7579 73.8431 74.7579 73.1749C74.7579 71.9404 74.4779 70.9313 73.9177 70.1417C73.3576 69.3539 72.6455 68.7269 71.7836 68.2645C70.9217 67.8021 69.9631 67.4807 68.9118 67.3004C67.8586 67.1221 66.8408 67.032 65.8586 67.032H54.7344L51.2413 71.5054H66.2984Z" fill="black"/>
<path d="M79.5961 67.032L76.1287 71.5054H84.2529V85.8272C85.7243 86.1897 87.4481 86.5012 89.6079 86.7187V71.5054H95.7913L99.2587 67.032H79.5961Z" fill="black"/>
<path d="M66.5647 83.0037C53.3971 82.7705 48.1368 88.79 47.7758 88.7821C33.9396 88.498 31.9318 92.8147 31.9318 92.8147C34.8903 91.8879 38.0777 91.4235 40.9021 91.204C44.5333 90.9219 48.1841 91.0414 51.7916 91.5293C57.4602 92.2935 71.3792 93.6377 78.3536 89.6267C78.3536 89.6267 60.5509 91.7194 53.3202 88.7782C62.3379 84.1656 68.9591 85.9056 78.8348 88.5646C90.1188 91.6018 92.3022 87.8396 92.3022 87.8396C78.819 87.1225 79.7322 83.2369 66.5647 83.0037Z" fill="#D60000"/>
<path d="M34.0955 95.8616L33.2 97.5839V98.4343H32.5689V97.5839L31.6734 95.8616H32.3894L32.8904 96.9393L33.3874 95.8616H34.0955Z" fill="black"/>
<path d="M35.1113 98.3345C34.9495 98.2483 34.8233 98.1268 34.7306 97.9681C34.6379 97.8094 34.5925 97.6232 34.5925 97.4116C34.5925 97.2019 34.6399 97.0158 34.7326 96.8571C34.8253 96.6964 34.9535 96.5749 35.1152 96.4887C35.2769 96.4025 35.4604 96.3613 35.6616 96.3613C35.8627 96.3613 36.0442 96.4044 36.2079 96.4887C36.3696 96.5749 36.4978 96.6964 36.5905 96.8571C36.6832 97.0178 36.7306 97.2019 36.7306 97.4116C36.7306 97.6213 36.6832 97.8074 36.5886 97.9661C36.4939 98.1268 36.3657 98.2483 36.202 98.3345C36.0383 98.4207 35.8568 98.4619 35.6537 98.4619C35.4525 98.4638 35.273 98.4207 35.1113 98.3345ZM35.9633 97.7898C36.0481 97.7016 36.0915 97.5762 36.0915 97.4116C36.0915 97.247 36.0501 97.1216 35.9673 97.0334C35.8844 96.9453 35.7838 96.9021 35.6635 96.9021C35.5412 96.9021 35.4387 96.9453 35.3578 97.0315C35.2769 97.1177 35.2355 97.245 35.2355 97.4116C35.2355 97.5762 35.275 97.7016 35.3558 97.7898C35.4367 97.878 35.5353 97.9211 35.6556 97.9211C35.776 97.9211 35.8785 97.878 35.9633 97.7898Z" fill="black"/>
<path d="M39.4683 96.3887V98.4344H38.8371V98.1561C38.774 98.2462 38.6872 98.3187 38.5767 98.3736C38.4683 98.4285 38.346 98.4559 38.2138 98.4559C38.056 98.4559 37.918 98.4206 37.7977 98.3521C37.6773 98.2815 37.5846 98.1816 37.5176 98.0503C37.4505 97.919 37.417 97.7623 37.417 97.5839V96.3887H38.0442V97.4997C38.0442 97.6369 38.0797 97.7427 38.1507 97.8191C38.2217 97.8955 38.3184 97.9327 38.4387 97.9327C38.561 97.9327 38.6596 97.8955 38.7306 97.8191C38.8016 97.7427 38.8371 97.6369 38.8371 97.4997V96.3887H39.4683Z" fill="black"/>
<path d="M41.1981 96.4649C41.3085 96.4003 41.4308 96.3669 41.5669 96.3669V97.0292H41.3933C41.2356 97.0292 41.1172 97.0626 41.0383 97.1292C40.9594 97.1958 40.92 97.3134 40.92 97.4819V98.4303H40.2888V96.3846H40.92V96.7255C40.9969 96.6178 41.0876 96.5296 41.1981 96.4649Z" fill="black"/>
<path d="M45.1093 96.6749C45.062 96.5886 44.9949 96.524 44.9081 96.4789C44.8213 96.4338 44.7188 96.4103 44.6004 96.4103C44.3953 96.4103 44.2336 96.4769 44.1093 96.6102C43.987 96.7434 43.9239 96.9217 43.9239 97.1432C43.9239 97.3803 43.989 97.5644 44.1172 97.6977C44.2454 97.8309 44.4249 97.8976 44.6498 97.8976C44.8056 97.8976 44.9357 97.8584 45.0423 97.78C45.1488 97.7016 45.2277 97.5899 45.277 97.443H44.4762V96.9805H45.849V97.5625C45.8016 97.7192 45.7227 97.8642 45.6103 97.9994C45.4979 98.1347 45.3559 98.2424 45.1843 98.3247C45.0127 98.407 44.8174 98.4501 44.6024 98.4501C44.346 98.4501 44.1192 98.3953 43.918 98.2836C43.7168 98.1719 43.561 98.0171 43.4505 97.8192C43.3381 97.6213 43.2829 97.3959 43.2829 97.1412C43.2829 96.8865 43.3381 96.6611 43.4505 96.4613C43.563 96.2614 43.7188 96.1066 43.918 95.9969C44.1172 95.8852 44.344 95.8303 44.6004 95.8303C44.9101 95.8303 45.1724 95.9048 45.3835 96.0537C45.5965 96.2026 45.7365 96.4084 45.8056 96.6729H45.1093V96.6749Z" fill="black"/>
<path d="M46.5629 96.8551C46.6437 96.6964 46.7522 96.5749 46.8883 96.4887C47.0264 96.4025 47.1802 96.3613 47.3499 96.3613C47.4958 96.3613 47.622 96.3907 47.7325 96.4495C47.841 96.5083 47.9258 96.5847 47.985 96.6807V96.3907H48.6161V98.4364H47.985V98.1464C47.9238 98.2424 47.837 98.3188 47.7286 98.3776C47.6201 98.4364 47.4919 98.4658 47.3459 98.4658C47.1783 98.4658 47.0264 98.4227 46.8883 98.3365C46.7503 98.2503 46.6418 98.1268 46.5629 97.9661C46.482 97.8055 46.4426 97.6213 46.4426 97.4116C46.4445 97.198 46.484 97.0138 46.5629 96.8551ZM47.8548 97.0413C47.768 96.9511 47.6615 96.9061 47.5353 96.9061C47.409 96.9061 47.3025 96.9511 47.2157 97.0393C47.129 97.1294 47.0856 97.2509 47.0856 97.4077C47.0856 97.5644 47.129 97.6879 47.2157 97.78C47.3025 97.8721 47.409 97.9171 47.5353 97.9171C47.6615 97.9171 47.766 97.8721 47.8548 97.7819C47.9416 97.6918 47.985 97.5684 47.985 97.4116C47.985 97.2548 47.9416 97.1314 47.8548 97.0413Z" fill="black"/>
<path d="M50.5904 97.9032V98.4343H50.2689C50.0401 98.4343 49.8626 98.3794 49.7344 98.2677C49.6062 98.156 49.5431 97.9757 49.5431 97.723V96.9098H49.2926V96.3886H49.5431V95.8909H50.1743V96.3886H50.5865V96.9098H50.1743V97.7308C50.1743 97.7916 50.1881 97.8366 50.2176 97.8621C50.2472 97.8895 50.2965 97.9032 50.3656 97.9032H50.5904Z" fill="black"/>
<path d="M53.2374 97.5625H51.8094C51.8193 97.6898 51.8607 97.7859 51.9337 97.8544C52.0067 97.9211 52.0954 97.9544 52.2019 97.9544C52.3597 97.9544 52.4682 97.8877 52.5294 97.7565H53.2C53.1664 97.8917 53.1033 98.0112 53.0146 98.119C52.9238 98.2267 52.8114 98.311 52.6773 98.3717C52.5412 98.4325 52.3913 98.4638 52.2236 98.4638C52.0225 98.4638 51.843 98.4207 51.6852 98.3365C51.5274 98.2502 51.4051 98.1288 51.3164 97.97C51.2276 97.8113 51.1842 97.6252 51.1842 97.4136C51.1842 97.2019 51.2276 97.0158 51.3144 96.8571C51.4012 96.6984 51.5235 96.5769 51.6812 96.4906C51.839 96.4044 52.0185 96.3633 52.2236 96.3633C52.4229 96.3633 52.6004 96.4044 52.7542 96.4887C52.91 96.571 53.0303 96.6905 53.1171 96.8433C53.2039 96.9981 53.2473 97.1765 53.2473 97.3822C53.2493 97.4371 53.2453 97.4978 53.2374 97.5625ZM52.6043 97.2137C52.6043 97.1059 52.5668 97.0217 52.4939 96.957C52.4209 96.8943 52.3282 96.861 52.2177 96.861C52.1112 96.861 52.0225 96.8923 51.9495 96.9531C51.8765 97.0138 51.8311 97.1 51.8154 97.2137H52.6043Z" fill="black"/>
<path d="M56.9041 96.3887L56.3479 98.4344H55.6516L55.3262 97.1078L54.9909 98.4344H54.2966L53.7365 96.3887H54.3676L54.6595 97.8504L55.0067 96.3887H55.6753L56.0264 97.8426L56.3143 96.3887H56.9041Z" fill="black"/>
<path d="M57.5076 96.8551C57.5885 96.6964 57.697 96.5749 57.8331 96.4887C57.9712 96.4025 58.125 96.3613 58.2946 96.3613C58.4406 96.3613 58.5668 96.3907 58.6773 96.4495C58.7857 96.5083 58.8706 96.5847 58.9297 96.6807V96.3907H59.5609V98.4364H58.9297V98.1464C58.8686 98.2424 58.7818 98.3188 58.6733 98.3776C58.5648 98.4364 58.4366 98.4658 58.2907 98.4658C58.123 98.4658 57.9712 98.4227 57.8331 98.3365C57.695 98.2503 57.5865 98.1268 57.5076 97.9661C57.4268 97.8055 57.3873 97.6213 57.3873 97.4116C57.3873 97.198 57.4268 97.0138 57.5076 96.8551ZM58.7976 97.0413C58.7108 96.9511 58.6043 96.9061 58.4781 96.9061C58.3518 96.9061 58.2453 96.9511 58.1585 97.0393C58.0717 97.1294 58.0284 97.2509 58.0284 97.4077C58.0284 97.5644 58.0717 97.6879 58.1585 97.78C58.2453 97.8721 58.3518 97.9171 58.4781 97.9171C58.6043 97.9171 58.7088 97.8721 58.7976 97.7819C58.8844 97.6918 58.9278 97.5684 58.9278 97.4116C58.9297 97.2548 58.8863 97.1314 58.7976 97.0413Z" fill="black"/>
<path d="M62.4898 96.3887L61.1979 99.4043H60.5194L60.9908 98.3638L60.1525 96.3887H60.8567L61.332 97.6682L61.8034 96.3887H62.4898Z" fill="black"/>
<path d="M66.0992 95.8616V96.3632H65.4128V98.4343H64.7817V96.3632H64.0953V95.8616H66.0992Z" fill="black"/>
<path d="M67.1782 98.3345C67.0164 98.2483 66.8902 98.1268 66.7975 97.9681C66.7048 97.8094 66.6594 97.6232 66.6594 97.4116C66.6594 97.2019 66.7068 97.0158 66.7995 96.8571C66.8922 96.6964 67.0204 96.5749 67.1821 96.4887C67.3438 96.4025 67.5273 96.3613 67.7285 96.3613C67.9296 96.3613 68.1111 96.4044 68.2748 96.4887C68.4365 96.5749 68.5647 96.6964 68.6574 96.8571C68.7501 97.0178 68.7975 97.2019 68.7975 97.4116C68.7975 97.6213 68.7501 97.8074 68.6555 97.9661C68.5608 98.1268 68.4326 98.2483 68.2689 98.3345C68.1052 98.4207 67.9237 98.4619 67.7206 98.4619C67.5214 98.4638 67.3399 98.4207 67.1782 98.3345ZM68.0302 97.7898C68.115 97.7016 68.1584 97.5762 68.1584 97.4116C68.1584 97.247 68.117 97.1216 68.0342 97.0334C67.9513 96.9453 67.8507 96.9021 67.7304 96.9021C67.6081 96.9021 67.5056 96.9453 67.4247 97.0315C67.3438 97.1177 67.3024 97.245 67.3024 97.4116C67.3024 97.5762 67.3419 97.7016 67.4227 97.7898C67.5036 97.878 67.6022 97.9211 67.7225 97.9211C67.8428 97.9211 67.9454 97.878 68.0302 97.7898Z" fill="black"/>
<path d="M72.5174 95.8616V96.3632H71.831V98.4343H71.1999V96.3632H70.5135V95.8616H72.5174Z" fill="black"/>
<path d="M75.0361 96.6003C75.1781 96.755 75.2491 96.9686 75.2491 97.239V98.4343H74.6219V97.3233C74.6219 97.1861 74.5864 97.0803 74.5154 97.0039C74.4444 96.9275 74.3477 96.8903 74.2274 96.8903C74.1071 96.8903 74.0105 96.9275 73.9395 97.0039C73.8684 97.0803 73.8329 97.1861 73.8329 97.3233V98.4343H73.2018V95.7224H73.8329V96.6649C73.8961 96.5748 73.9848 96.5023 74.0953 96.4494C74.2057 96.3965 74.33 96.369 74.468 96.369C74.7047 96.3671 74.8941 96.4455 75.0361 96.6003Z" fill="black"/>
<path d="M77.9868 97.5625H76.5588C76.5686 97.6898 76.6101 97.7859 76.683 97.8544C76.756 97.9211 76.8448 97.9544 76.9513 97.9544C77.1091 97.9544 77.2175 97.8877 77.2787 97.7565H77.9493C77.9158 97.8917 77.8527 98.0112 77.7639 98.119C77.6732 98.2267 77.5607 98.311 77.4266 98.3717C77.2905 98.4325 77.1406 98.4638 76.973 98.4638C76.7718 98.4638 76.5923 98.4207 76.4345 98.3365C76.2767 98.2502 76.1544 98.1288 76.0657 97.97C75.9769 97.8113 75.9335 97.6252 75.9335 97.4136C75.9335 97.2019 75.9769 97.0158 76.0637 96.8571C76.1505 96.6984 76.2728 96.5769 76.4306 96.4906C76.5884 96.4044 76.7678 96.3633 76.973 96.3633C77.1722 96.3633 77.3497 96.4044 77.5035 96.4887C77.6594 96.571 77.7797 96.6905 77.8665 96.8433C77.9532 96.9962 77.9966 97.1765 77.9966 97.3822C77.9986 97.4371 77.9947 97.4978 77.9868 97.5625ZM77.3536 97.2137C77.3536 97.1059 77.3162 97.0217 77.2432 96.957C77.1702 96.8943 77.0775 96.861 76.9671 96.861C76.8605 96.861 76.7718 96.8923 76.6988 96.9531C76.6258 97.0138 76.5805 97.1 76.5647 97.2137H77.3536Z" fill="black"/>
<path d="M81.5351 95.8616V96.3632H80.4799V96.906H81.2689V97.3939H80.4799V98.4343H79.8488V95.8616H81.5351Z" fill="black"/>
<path d="M82.2826 96.079C82.2116 96.0144 82.1781 95.934 82.1781 95.838C82.1781 95.74 82.2136 95.6597 82.2826 95.595C82.3536 95.5304 82.4424 95.4971 82.5529 95.4971C82.6613 95.4971 82.7501 95.5304 82.8211 95.595C82.8921 95.6597 82.9256 95.742 82.9256 95.838C82.9256 95.934 82.8901 96.0124 82.8211 96.079C82.7501 96.1437 82.6613 96.177 82.5529 96.177C82.4444 96.177 82.3536 96.1437 82.2826 96.079ZM82.8684 96.3886V98.4343H82.2373V96.3886H82.8684Z" fill="black"/>
<path d="M85.5252 96.6001C85.6692 96.7549 85.7421 96.9685 85.7421 97.2389V98.4342H85.1149V97.3232C85.1149 97.186 85.0794 97.0802 85.0084 97.0038C84.9374 96.9274 84.8408 96.8901 84.7205 96.8901C84.6001 96.8901 84.5035 96.9274 84.4325 97.0038C84.3615 97.0802 84.326 97.186 84.326 97.3232V98.4342H83.6948V96.3885H84.326V96.6589C84.3891 96.5688 84.4759 96.4963 84.5844 96.4453C84.6928 96.3924 84.8151 96.3669 84.9493 96.3669C85.1879 96.3669 85.3812 96.4453 85.5252 96.6001Z" fill="black"/>
<path d="M88.4778 97.5625H87.0498C87.0597 97.6898 87.1011 97.7859 87.1741 97.8544C87.247 97.9211 87.3358 97.9544 87.4423 97.9544C87.6001 97.9544 87.7086 97.8877 87.7697 97.7565H88.4403C88.4068 97.8917 88.3437 98.0112 88.2549 98.119C88.1642 98.2267 88.0518 98.311 87.9176 98.3717C87.7816 98.4325 87.6317 98.4638 87.464 98.4638C87.2628 98.4638 87.0833 98.4207 86.9255 98.3365C86.7678 98.2502 86.6455 98.1288 86.5567 97.97C86.4679 97.8113 86.4246 97.6252 86.4246 97.4136C86.4246 97.2019 86.468 97.0158 86.5547 96.8571C86.6415 96.6984 86.7638 96.5769 86.9216 96.4906C87.0794 96.4044 87.2589 96.3633 87.464 96.3633C87.6632 96.3633 87.8407 96.4044 87.9946 96.4887C88.1504 96.571 88.2707 96.6905 88.3575 96.8433C88.4443 96.9981 88.4877 97.1765 88.4877 97.3822C88.4896 97.4371 88.4857 97.4978 88.4778 97.5625ZM87.8427 97.2137C87.8427 97.1059 87.8052 97.0217 87.7322 96.957C87.6593 96.8943 87.5666 96.861 87.4561 96.861C87.3496 96.861 87.2608 96.8923 87.1879 96.9531C87.1149 97.0138 87.0695 97.1 87.0537 97.2137H87.8427Z" fill="black"/>
<path d="M89.5469 98.3717C89.4068 98.311 89.2964 98.2267 89.2155 98.1209C89.1346 98.0151 89.0893 97.8956 89.0794 97.7643H89.7027C89.7106 97.8348 89.7441 97.8917 89.8013 97.9367C89.8605 97.9798 89.9334 98.0034 90.0183 98.0034C90.0972 98.0034 90.1583 97.9877 90.2017 97.9583C90.2451 97.9269 90.2668 97.8878 90.2668 97.8388C90.2668 97.78 90.2352 97.7369 90.1741 97.7094C90.1129 97.682 90.0123 97.6507 89.8762 97.6154C89.7283 97.5821 89.606 97.5448 89.5074 97.5076C89.4088 97.4704 89.324 97.4096 89.253 97.3273C89.182 97.245 89.1465 97.1353 89.1465 96.9962C89.1465 96.8786 89.178 96.7728 89.2451 96.6748C89.3102 96.5788 89.4068 96.5024 89.5331 96.4456C89.6593 96.3888 89.8112 96.3613 89.9847 96.3613C90.2431 96.3613 90.4463 96.424 90.5962 96.5514C90.7441 96.6788 90.8309 96.8473 90.8526 97.0569H90.2707C90.2609 96.9864 90.2293 96.9296 90.176 96.8884C90.1228 96.8473 90.0538 96.8257 89.967 96.8257C89.894 96.8257 89.8368 96.8394 89.7974 96.8669C89.7579 96.8943 89.7382 96.9335 89.7382 96.9825C89.7382 97.0413 89.7697 97.0844 89.8329 97.1138C89.896 97.1432 89.9926 97.1725 90.1267 97.2019C90.2786 97.2411 90.4029 97.2803 90.4995 97.3175C90.5962 97.3548 90.679 97.4175 90.752 97.5017C90.825 97.586 90.8624 97.6996 90.8644 97.8407C90.8644 97.9603 90.8309 98.068 90.7638 98.1621C90.6968 98.2561 90.5981 98.3306 90.4719 98.3835C90.3457 98.4364 90.1977 98.4638 90.0321 98.4638C89.8467 98.4638 89.6869 98.4325 89.5469 98.3717Z" fill="black"/>
<path d="M92.7638 97.9032V98.4343H92.4423C92.2135 98.4343 92.036 98.3794 91.9078 98.2677C91.7795 98.156 91.7164 97.9757 91.7164 97.723V96.9098H91.4659V96.3886H91.7164V95.8909H92.3476V96.3886H92.7598V96.9098H92.3476V97.7308C92.3476 97.7916 92.3634 97.8366 92.391 97.8621C92.4206 97.8895 92.4699 97.9032 92.5389 97.9032H92.7638Z" fill="black"/>
<path d="M96.2569 95.8616V97.6133C96.2569 97.8837 96.18 98.0934 96.0262 98.2404C95.8723 98.3873 95.6652 98.4598 95.4049 98.4598C95.1327 98.4598 94.9138 98.3834 94.7481 98.2286C94.5824 98.0738 94.5015 97.8563 94.5015 97.5722H95.1287C95.1287 97.68 95.1504 97.7603 95.1958 97.8152C95.2392 97.87 95.3043 97.8975 95.3871 97.8975C95.464 97.8975 95.5232 97.8739 95.5646 97.825C95.6061 97.776 95.6278 97.7054 95.6278 97.6133V95.8616H96.2569Z" fill="black"/>
<path d="M97.1286 96.8551C97.2095 96.6964 97.318 96.5749 97.456 96.4887C97.5941 96.4025 97.7479 96.3613 97.9176 96.3613C98.0635 96.3613 98.1898 96.3907 98.3002 96.4495C98.4107 96.5083 98.4935 96.5847 98.5527 96.6807V96.3907H99.1838V98.4364H98.5527V98.1464C98.4915 98.2424 98.4047 98.3188 98.2963 98.3776C98.1878 98.4364 98.0596 98.4658 97.9136 98.4658C97.746 98.4658 97.5941 98.4227 97.456 98.3365C97.318 98.2503 97.2095 98.1268 97.1286 97.9661C97.0477 97.8055 97.0083 97.6213 97.0083 97.4116C97.0083 97.198 97.0497 97.0138 97.1286 96.8551ZM98.4205 97.0413C98.3337 96.9511 98.2272 96.9061 98.101 96.9061C97.9748 96.9061 97.8683 96.9511 97.7815 97.0393C97.6947 97.1294 97.6513 97.2509 97.6513 97.4077C97.6513 97.5644 97.6947 97.6879 97.7815 97.78C97.8683 97.8721 97.9748 97.9171 98.101 97.9171C98.2272 97.9171 98.3337 97.8721 98.4205 97.7819C98.5073 97.6918 98.5507 97.5684 98.5507 97.4116C98.5507 97.2548 98.5073 97.1314 98.4205 97.0413Z" fill="black"/>
<path d="M100.894 96.4476C101.002 96.3888 101.129 96.3594 101.275 96.3594C101.444 96.3594 101.598 96.4025 101.736 96.4867C101.874 96.573 101.983 96.6944 102.063 96.8532C102.144 97.0119 102.184 97.1961 102.184 97.4057C102.184 97.6154 102.144 97.8015 102.063 97.9603C101.983 98.1209 101.874 98.2444 101.736 98.3306C101.598 98.4168 101.444 98.4599 101.275 98.4599C101.132 98.4599 101.006 98.4305 100.896 98.3717C100.785 98.313 100.701 98.2365 100.639 98.1444V99.4044H100.008V96.3848H100.639V96.6748C100.701 96.5847 100.785 96.5063 100.894 96.4476ZM101.409 97.0393C101.322 96.9511 101.213 96.9061 101.085 96.9061C100.959 96.9061 100.852 96.9511 100.766 97.0413C100.679 97.1314 100.635 97.2548 100.635 97.4116C100.635 97.5684 100.679 97.6918 100.766 97.7819C100.852 97.8721 100.959 97.9171 101.085 97.9171C101.211 97.9171 101.318 97.8721 101.407 97.78C101.495 97.6879 101.539 97.5644 101.539 97.4077C101.539 97.2529 101.495 97.1294 101.409 97.0393Z" fill="black"/>
<path d="M102.876 96.8551C102.957 96.6964 103.065 96.5749 103.204 96.4887C103.342 96.4025 103.495 96.3613 103.665 96.3613C103.811 96.3613 103.937 96.3907 104.048 96.4495C104.158 96.5083 104.241 96.5847 104.3 96.6807V96.3907H104.931V98.4364H104.298V98.1464C104.237 98.2424 104.15 98.3188 104.042 98.3776C103.933 98.4364 103.805 98.4658 103.659 98.4658C103.492 98.4658 103.34 98.4227 103.202 98.3365C103.064 98.2503 102.955 98.1268 102.874 97.9661C102.793 97.8055 102.754 97.6213 102.754 97.4116C102.756 97.198 102.795 97.0138 102.876 96.8551ZM104.166 97.0413C104.079 96.9511 103.973 96.9061 103.847 96.9061C103.72 96.9061 103.614 96.9511 103.527 97.0393C103.44 97.1294 103.397 97.2509 103.397 97.4077C103.397 97.5644 103.44 97.6879 103.527 97.78C103.614 97.8721 103.72 97.9171 103.847 97.9171C103.973 97.9171 104.079 97.8721 104.166 97.7819C104.253 97.6918 104.296 97.5684 104.296 97.4116C104.298 97.2548 104.255 97.1314 104.166 97.0413Z" fill="black"/>
<path d="M107.586 96.6001C107.73 96.7549 107.801 96.9685 107.801 97.2389V98.4342H107.174V97.3232C107.174 97.186 107.139 97.0802 107.068 97.0038C106.997 96.9274 106.9 96.8901 106.78 96.8901C106.659 96.8901 106.563 96.9274 106.492 97.0038C106.421 97.0802 106.385 97.186 106.385 97.3232V98.4342H105.754V96.3885H106.385V96.6589C106.448 96.5688 106.535 96.4963 106.643 96.4453C106.752 96.3924 106.874 96.3669 107.008 96.3669C107.249 96.3669 107.442 96.4453 107.586 96.6001Z" fill="black"/>
<path d="M110.539 97.5625H109.111C109.121 97.6898 109.162 97.7859 109.235 97.8544C109.308 97.9211 109.397 97.9544 109.503 97.9544C109.661 97.9544 109.77 97.8877 109.831 97.7565H110.501C110.468 97.8917 110.405 98.0112 110.316 98.119C110.225 98.2267 110.113 98.311 109.979 98.3717C109.843 98.4325 109.693 98.4638 109.525 98.4638C109.324 98.4638 109.144 98.4207 108.987 98.3365C108.829 98.2502 108.707 98.1288 108.618 97.97C108.529 97.8113 108.486 97.6252 108.486 97.4136C108.486 97.2019 108.529 97.0158 108.616 96.8571C108.703 96.6984 108.825 96.5769 108.983 96.4906C109.141 96.4044 109.32 96.3633 109.525 96.3633C109.724 96.3633 109.902 96.4044 110.056 96.4887C110.212 96.571 110.332 96.6905 110.419 96.8433C110.505 96.9981 110.549 97.1765 110.549 97.3822C110.549 97.4371 110.547 97.4978 110.539 97.5625ZM109.904 97.2137C109.904 97.1059 109.866 97.0217 109.793 96.957C109.72 96.8943 109.628 96.861 109.517 96.861C109.411 96.861 109.322 96.8923 109.249 96.9531C109.176 97.0138 109.131 97.1 109.115 97.2137H109.904Z" fill="black"/>
<path d="M111.608 98.3717C111.468 98.311 111.357 98.2267 111.276 98.1209C111.196 98.0151 111.15 97.8956 111.14 97.7643H111.764C111.772 97.8348 111.805 97.8917 111.862 97.9367C111.921 97.9798 111.994 98.0034 112.079 98.0034C112.158 98.0034 112.219 97.9877 112.263 97.9583C112.306 97.9269 112.328 97.8878 112.328 97.8388C112.328 97.78 112.296 97.7369 112.235 97.7094C112.174 97.682 112.073 97.6507 111.937 97.6154C111.789 97.5821 111.667 97.5448 111.568 97.5076C111.47 97.4704 111.385 97.4096 111.314 97.3273C111.243 97.245 111.207 97.1353 111.207 96.9962C111.207 96.8786 111.239 96.7728 111.306 96.6748C111.371 96.5788 111.468 96.5024 111.594 96.4456C111.72 96.3888 111.872 96.3613 112.046 96.3613C112.304 96.3613 112.507 96.424 112.657 96.5514C112.805 96.6788 112.892 96.8473 112.914 97.0569H112.332C112.322 96.9864 112.29 96.9296 112.237 96.8884C112.184 96.8473 112.115 96.8257 112.028 96.8257C111.955 96.8257 111.898 96.8394 111.858 96.8669C111.819 96.8943 111.799 96.9335 111.799 96.9825C111.799 97.0413 111.831 97.0844 111.894 97.1138C111.957 97.1432 112.054 97.1725 112.188 97.2019C112.34 97.2411 112.464 97.2803 112.56 97.3175C112.657 97.3548 112.74 97.4175 112.813 97.5017C112.886 97.586 112.923 97.6996 112.925 97.8407C112.925 97.9603 112.892 98.068 112.825 98.1621C112.758 98.2561 112.659 98.3306 112.533 98.3835C112.407 98.4364 112.259 98.4638 112.093 98.4638C111.908 98.4638 111.748 98.4325 111.608 98.3717Z" fill="black"/>
<path d="M115.606 97.5625H114.178C114.188 97.6898 114.229 97.7859 114.302 97.8544C114.375 97.923 114.464 97.9544 114.57 97.9544C114.728 97.9544 114.837 97.8877 114.898 97.7565H115.568C115.535 97.8917 115.472 98.0112 115.383 98.119C115.292 98.2267 115.18 98.311 115.046 98.3717C114.91 98.4325 114.76 98.4638 114.592 98.4638C114.391 98.4638 114.211 98.4207 114.054 98.3365C113.896 98.2502 113.774 98.1288 113.685 97.97C113.596 97.8113 113.553 97.6252 113.553 97.4136C113.553 97.2019 113.596 97.0158 113.683 96.8571C113.77 96.6984 113.892 96.5769 114.05 96.4906C114.207 96.4044 114.387 96.3633 114.592 96.3633C114.791 96.3633 114.969 96.4044 115.123 96.4887C115.278 96.571 115.399 96.6905 115.486 96.8433C115.572 96.9962 115.616 97.1765 115.616 97.3822C115.618 97.4371 115.614 97.4978 115.606 97.5625ZM114.973 97.2137C114.973 97.1059 114.935 97.0217 114.862 96.957C114.789 96.8943 114.697 96.861 114.586 96.861C114.48 96.861 114.391 96.8923 114.318 96.9531C114.245 97.0138 114.2 97.1 114.184 97.2137H114.973Z" fill="black"/>
<path d="M118.089 95.8616V97.3998C118.089 97.5545 118.127 97.6721 118.203 97.7544C118.28 97.8367 118.391 97.8798 118.539 97.8798C118.687 97.8798 118.799 97.8387 118.878 97.7544C118.957 97.6721 118.996 97.5526 118.996 97.3998V95.8616H119.628V97.3978C119.628 97.6271 119.578 97.821 119.48 97.9798C119.381 98.1385 119.249 98.258 119.083 98.3383C118.917 98.4187 118.732 98.4598 118.527 98.4598C118.322 98.4598 118.14 98.4206 117.979 98.3403C117.817 98.26 117.691 98.1404 117.596 97.9817C117.503 97.821 117.456 97.6271 117.456 97.3978V95.8616H118.089Z" fill="black"/>
<path d="M120.795 98.3717C120.655 98.311 120.545 98.2267 120.464 98.1209C120.383 98.0151 120.337 97.8956 120.328 97.7643H120.951C120.959 97.8348 120.992 97.8917 121.05 97.9367C121.109 97.9798 121.182 98.0034 121.266 98.0034C121.345 98.0034 121.407 97.9877 121.45 97.9583C121.493 97.9269 121.515 97.8878 121.515 97.8388C121.515 97.78 121.483 97.7369 121.422 97.7094C121.361 97.682 121.261 97.6507 121.124 97.6154C120.977 97.5821 120.854 97.5448 120.756 97.5076C120.657 97.4704 120.572 97.4096 120.501 97.3273C120.43 97.245 120.395 97.1353 120.395 96.9962C120.395 96.8786 120.426 96.7728 120.493 96.6748C120.558 96.5788 120.655 96.5024 120.781 96.4456C120.908 96.3888 121.059 96.3613 121.233 96.3613C121.491 96.3613 121.694 96.424 121.844 96.5514C121.992 96.6788 122.079 96.8473 122.101 97.0569H121.519C121.509 96.9864 121.478 96.9296 121.424 96.8884C121.371 96.8473 121.302 96.8257 121.215 96.8257C121.142 96.8257 121.085 96.8394 121.046 96.8669C121.006 96.8943 120.986 96.9335 120.986 96.9825C120.986 97.0413 121.018 97.0844 121.081 97.1138C121.144 97.1432 121.241 97.1725 121.375 97.2019C121.527 97.2411 121.651 97.2803 121.748 97.3175C121.844 97.3548 121.927 97.4175 122 97.5017C122.073 97.586 122.111 97.6996 122.113 97.8407C122.113 97.9603 122.079 98.068 122.012 98.1621C121.945 98.2561 121.846 98.3306 121.72 98.3835C121.594 98.4364 121.446 98.4638 121.28 98.4638C121.097 98.4638 120.937 98.4325 120.795 98.3717Z" fill="black"/>
<path d="M124.795 97.5625H123.367C123.377 97.6898 123.418 97.7859 123.491 97.8544C123.564 97.9211 123.653 97.9544 123.76 97.9544C123.917 97.9544 124.026 97.8877 124.087 97.7565H124.758C124.724 97.8917 124.661 98.0112 124.572 98.119C124.482 98.2267 124.369 98.311 124.235 98.3717C124.099 98.4325 123.949 98.4638 123.781 98.4638C123.58 98.4638 123.401 98.4207 123.243 98.3365C123.085 98.2502 122.963 98.1288 122.874 97.97C122.785 97.8113 122.742 97.6252 122.742 97.4136C122.742 97.2019 122.785 97.0158 122.872 96.8571C122.959 96.6984 123.081 96.5769 123.239 96.4906C123.397 96.4044 123.576 96.3633 123.781 96.3633C123.981 96.3633 124.158 96.4044 124.312 96.4887C124.468 96.571 124.588 96.6905 124.675 96.8433C124.762 96.9981 124.805 97.1765 124.805 97.3822C124.805 97.4371 124.801 97.4978 124.795 97.5625ZM124.16 97.2137C124.16 97.1059 124.123 97.0217 124.05 96.957C123.977 96.8943 123.884 96.861 123.773 96.861C123.667 96.861 123.578 96.8923 123.505 96.9531C123.432 97.0138 123.387 97.1 123.371 97.2137H124.16Z" fill="black"/>
<path d="M125.501 96.8552C125.582 96.6965 125.691 96.575 125.829 96.4888C125.967 96.4026 126.121 96.3614 126.29 96.3614C126.426 96.3614 126.549 96.3889 126.661 96.4457C126.773 96.5025 126.86 96.577 126.925 96.673V95.7246H127.557V98.4365H126.925V98.1426C126.866 98.2406 126.781 98.3189 126.673 98.3777C126.564 98.4365 126.436 98.4659 126.29 98.4659C126.121 98.4659 125.967 98.4228 125.829 98.3366C125.691 98.2504 125.582 98.1269 125.501 97.9662C125.42 97.8056 125.381 97.6214 125.381 97.4117C125.381 97.1981 125.42 97.0139 125.501 96.8552ZM126.791 97.0414C126.704 96.9512 126.598 96.9062 126.472 96.9062C126.345 96.9062 126.239 96.9512 126.152 97.0394C126.065 97.1295 126.022 97.251 126.022 97.4078C126.022 97.5645 126.065 97.688 126.152 97.7801C126.239 97.8722 126.345 97.9173 126.472 97.9173C126.598 97.9173 126.704 97.8722 126.791 97.782C126.878 97.6919 126.921 97.5685 126.921 97.4117C126.923 97.255 126.88 97.1315 126.791 97.0414Z" fill="black"/>
<path d="M129.59 96.4654C129.7 96.2656 129.854 96.1108 130.054 96.001C130.251 95.8893 130.476 95.8345 130.726 95.8345C131.034 95.8345 131.296 95.9148 131.515 96.0755C131.734 96.2362 131.88 96.4556 131.955 96.7358H131.261C131.209 96.6281 131.136 96.5458 131.042 96.4909C130.947 96.4341 130.84 96.4066 130.718 96.4066C130.525 96.4066 130.367 96.4733 130.247 96.6085C130.126 96.7437 130.065 96.922 130.065 97.1473C130.065 97.3727 130.126 97.551 130.247 97.6862C130.367 97.8214 130.525 97.888 130.718 97.888C130.839 97.888 130.947 97.8606 131.042 97.8037C131.136 97.7469 131.209 97.6666 131.261 97.5588H131.955C131.882 97.837 131.734 98.0565 131.515 98.2172C131.296 98.3779 131.034 98.4582 130.726 98.4582C130.476 98.4582 130.251 98.4033 130.054 98.2916C129.856 98.18 129.7 98.0252 129.59 97.8272C129.48 97.6293 129.424 97.404 129.424 97.1493C129.424 96.8906 129.48 96.6633 129.59 96.4654Z" fill="black"/>
<path d="M132.704 96.8551C132.785 96.6964 132.894 96.5749 133.032 96.4887C133.17 96.4025 133.324 96.3613 133.493 96.3613C133.639 96.3613 133.766 96.3907 133.876 96.4495C133.986 96.5083 134.069 96.5847 134.128 96.6807V96.3907H134.76V98.4364H134.128V98.1464C134.067 98.2424 133.981 98.3188 133.872 98.3776C133.764 98.4364 133.635 98.4658 133.489 98.4658C133.322 98.4658 133.17 98.4227 133.032 98.3365C132.894 98.2503 132.785 98.1268 132.704 97.9661C132.624 97.8055 132.584 97.6213 132.584 97.4116C132.584 97.198 132.624 97.0138 132.704 96.8551ZM133.996 97.0413C133.91 96.9511 133.803 96.9061 133.677 96.9061C133.551 96.9061 133.444 96.9511 133.357 97.0393C133.271 97.1294 133.227 97.2509 133.227 97.4077C133.227 97.5644 133.271 97.6879 133.357 97.78C133.444 97.8721 133.551 97.9171 133.677 97.9171C133.803 97.9171 133.91 97.8721 133.996 97.7819C134.083 97.6918 134.127 97.5684 134.127 97.4116C134.127 97.2548 134.083 97.1314 133.996 97.0413Z" fill="black"/>
<path d="M136.491 96.4649C136.602 96.4003 136.724 96.3669 136.86 96.3669V97.0292H136.687C136.529 97.0292 136.411 97.0626 136.332 97.1292C136.253 97.1958 136.213 97.3134 136.213 97.4819V98.4303H135.582V96.3846H136.213V96.7255C136.288 96.6178 136.381 96.5296 136.491 96.4649Z" fill="black"/>
<path d="M137.888 98.3717C137.748 98.311 137.637 98.2267 137.556 98.1209C137.476 98.0151 137.43 97.8956 137.42 97.7643H138.044C138.051 97.8348 138.085 97.8917 138.142 97.9367C138.201 97.9798 138.274 98.0034 138.359 98.0034C138.438 98.0034 138.499 97.9877 138.543 97.9583C138.586 97.9269 138.608 97.8878 138.608 97.8388C138.608 97.78 138.576 97.7369 138.515 97.7094C138.454 97.682 138.353 97.6507 138.217 97.6154C138.069 97.5821 137.947 97.5448 137.848 97.5076C137.75 97.4704 137.665 97.4096 137.594 97.3273C137.523 97.245 137.487 97.1353 137.487 96.9962C137.487 96.8786 137.519 96.7728 137.586 96.6748C137.651 96.5788 137.748 96.5024 137.874 96.4456C138 96.3888 138.152 96.3613 138.326 96.3613C138.584 96.3613 138.787 96.424 138.937 96.5514C139.085 96.6788 139.172 96.8473 139.193 97.0569H138.612C138.602 96.9864 138.57 96.9296 138.517 96.8884C138.464 96.8473 138.395 96.8257 138.308 96.8257C138.235 96.8257 138.178 96.8394 138.138 96.8669C138.099 96.8943 138.079 96.9335 138.079 96.9825C138.079 97.0413 138.111 97.0844 138.174 97.1138C138.237 97.1432 138.333 97.1725 138.468 97.2019C138.619 97.2411 138.744 97.2803 138.84 97.3175C138.937 97.3548 139.02 97.4175 139.093 97.5017C139.166 97.586 139.203 97.6996 139.205 97.8407C139.205 97.9603 139.172 98.068 139.105 98.1621C139.038 98.2561 138.939 98.3306 138.813 98.3835C138.687 98.4364 138.539 98.4638 138.373 98.4638C138.188 98.4638 138.028 98.4325 137.888 98.3717Z" fill="black"/>
<defs>
<filter id="filter0_d_73_93" x="0.1" y="0.1" width="167.8" height="167.8" filterUnits="userSpaceOnUse" color-interpolation-filters="sRGB">
<feFlood flood-opacity="0" result="BackgroundImageFix"/>
<feColorMatrix in="SourceAlpha" type="matrix" values="0 0 0 0 0 0 0 0 0 0 0 0 0 0 0 0 0 0 127 0" result="hardAlpha"/>
<feOffset dx="2" dy="3"/>
<feGaussianBlur stdDeviation="5.95"/>
<feComposite in2="hardAlpha" operator="out"/>
<feColorMatrix type="matrix" values="0 0 0 0 0 0 0 0 0 0 0 0 0 0 0 0 0 0 0.1 0"/>
<feBlend mode="normal" in2="BackgroundImageFix" result="effect1_dropShadow_73_93"/>
<feBlend mode="normal" in="SourceGraphic" in2="effect1_dropShadow_73_93" result="shape"/>
</filter>
</defs>
</svg>
