<svg width="50" height="50" viewBox="0 0 50 50" fill="none" xmlns="http://www.w3.org/2000/svg">
<g clip-path="url(#clip0_103_61)">
<path d="M25 0C14.439 0 0 7.98228 0 25C0 41.5846 13.8878 50 25 50C44.065 50 50 33.2972 50 25C50 12.7559 40.6299 0 25 0ZM19.2028 2.35236C16.5945 4.57677 14.4291 8.25787 13.0315 12.8248C11.2205 11.752 9.55709 10.4232 8.08071 8.87795C11.1319 5.67913 14.9902 3.43504 19.2028 2.35236ZM7.00787 10.0787C8.66142 11.8012 10.5413 13.2677 12.5886 14.4291C11.8209 17.4114 11.3681 20.7185 11.3091 24.1929H1.63386C1.81102 19.0059 3.70079 14.0551 7.00787 10.0787ZM7.00787 39.9213C3.69094 35.9449 1.81102 30.9941 1.63386 25.8071H11.3091C11.3681 29.2913 11.8209 32.5886 12.5886 35.5709C10.5512 36.7421 8.67126 38.1988 7.00787 39.9213ZM8.08071 41.1319C9.55709 39.5866 11.2205 38.2579 13.0315 37.185C14.4291 41.7421 16.5945 45.4331 19.2028 47.6575C14.9902 46.565 11.1319 44.3209 8.08071 41.1319ZM24.1929 48.3268C20 47.7953 16.3878 43.1102 14.439 36.3976C17.4508 34.872 20.7776 34.0157 24.1929 33.8878V48.3268ZM24.1929 32.2835C20.6299 32.4016 17.1654 33.2776 14.0256 34.813C13.3661 32.0571 12.9724 29.0157 12.9134 25.8071H24.1929V32.2835ZM24.1929 24.1929H12.9134C12.9724 20.9843 13.3661 17.9429 14.0256 15.187C17.1752 16.7224 20.6398 17.5984 24.1929 17.7165V24.1929ZM24.1929 16.1122C20.7677 15.9941 17.4508 15.128 14.439 13.6024C16.3878 6.87992 20 2.20472 24.1929 1.67323V16.1122ZM42.9921 10.0787C46.2992 14.0551 48.189 19.0059 48.3661 24.1929H38.7008C38.6417 20.7087 38.189 17.4114 37.4213 14.4291C39.4587 13.2579 41.3386 11.8012 42.9921 10.0787ZM41.9193 8.86811C40.4429 10.4134 38.7795 11.7421 36.9685 12.815C35.5709 8.25787 33.4055 4.57677 30.7972 2.34252C35.0098 3.43504 38.8681 5.67913 41.9193 8.86811ZM25.8071 1.67323C30 2.20472 33.6122 6.88976 35.561 13.6024C32.5492 15.128 29.2323 15.9843 25.8071 16.1122V1.67323ZM25.8071 17.7165C29.3701 17.5984 32.8346 16.7224 35.9744 15.187C36.6339 17.9429 37.0276 20.9843 37.0866 24.1929H25.8071V17.7165ZM25.8071 25.8071H37.0866C37.0276 29.0157 36.6339 32.0571 35.9744 34.813C32.8346 33.2677 29.3701 32.3917 25.8071 32.2835V25.8071ZM25.8071 48.3268V33.8878C29.2323 34.0059 32.5492 34.872 35.561 36.3976C33.6122 43.1201 30 47.7953 25.8071 48.3268ZM30.7972 47.6476C33.4055 45.4232 35.5709 41.7421 36.9685 37.1752C38.7795 38.248 40.4429 39.5768 41.9193 41.122C38.8681 44.3209 35.0098 46.565 30.7972 47.6476ZM42.9921 39.9213C41.3386 38.1988 39.4587 36.7421 37.4213 35.5709C38.189 32.5886 38.6417 29.2815 38.7008 25.8071H48.3661C48.189 30.9941 46.2992 35.9449 42.9921 39.9213Z" fill="black"/>
</g>
<defs>
<clipPath id="clip0_103_61">
<rect width="50" height="50" fill="white"/>
</clipPath>
</defs>
</svg>
