<svg width="34" height="22" viewBox="0 0 34 22" fill="none" xmlns="http://www.w3.org/2000/svg">
<path d="M17.0785 21.9406C13.6151 21.915 10.266 21.3267 7.10402 19.8606C5.03039 18.8995 3.18454 17.6245 1.77855 15.7891C0.575807 14.2194 -0.0874225 12.4572 0.00928821 10.4573C0.102072 8.53646 0.910612 6.91424 2.16589 5.49584C3.64895 3.81959 5.5002 2.67131 7.53996 1.8074C9.75498 0.869326 12.0726 0.341354 14.4648 0.121815C17.6121 -0.166482 20.7196 0.0466713 23.7746 0.87129C26.2302 1.53433 28.5139 2.55982 30.481 4.2066C32.0058 5.48257 33.1776 7.01296 33.7103 8.96081C34.3828 11.4189 33.8634 13.6566 32.371 15.6845C31.1118 17.3951 29.4466 18.6166 27.5758 19.5753C25.4015 20.6901 23.0898 21.3738 20.672 21.6813C19.482 21.8325 18.2812 21.8969 17.0854 22C17.0829 21.9804 17.0809 21.9602 17.0785 21.9406ZM4.40545 5.43985C4.34605 5.5032 4.31856 5.52972 4.29401 5.55919C2.09618 8.19021 1.87281 11.749 3.727 14.6418C4.70638 16.1702 6.0407 17.3209 7.59347 18.2281C9.85218 19.5478 12.3136 20.2432 14.8934 20.5629C15.1369 20.5929 15.3819 20.6135 15.6632 20.6425C15.4074 20.336 15.1762 20.0831 14.9724 19.8095C14.075 18.6033 13.6023 17.2178 13.3019 15.765C12.9774 14.1968 12.8831 12.6065 12.8914 11.0088C12.8924 10.8286 12.8453 10.7618 12.6538 10.7304C11.7285 10.5781 10.7947 10.4509 9.88605 10.227C8.52081 9.89004 7.2351 9.34193 6.11777 8.46476C5.15361 7.70792 4.42214 6.80472 4.40545 5.43985ZM18.4226 20.6229C18.5129 20.6229 18.5453 20.6263 18.5768 20.6224C18.9739 20.5703 19.372 20.5271 19.7672 20.4627C21.9852 20.1022 24.1065 19.4471 26.0799 18.3553C27.7559 17.428 29.2198 16.2532 30.2788 14.6329C31.3401 13.0097 31.7829 11.2372 31.4594 9.30509C31.2341 7.95987 30.6244 6.78556 29.8065 5.70997C29.7648 5.65546 29.7167 5.60585 29.6582 5.53955C29.538 6.60089 29.344 7.10234 28.7265 7.70841C28.3548 8.07283 27.9548 8.42203 27.5193 8.70492C25.6779 9.90182 23.6096 10.4465 21.4594 10.726C21.2478 10.7535 21.1914 10.8222 21.1948 11.029C21.2164 12.3649 21.1168 13.6934 20.8978 15.0111C20.6921 16.2493 20.3691 17.4535 19.8203 18.5891C19.4663 19.3223 19.0191 19.9908 18.4226 20.6229ZM21.0117 8.07971C21.0431 8.08265 21.0677 8.08953 21.0907 8.08609C22.426 7.8749 23.7378 7.57776 24.9641 6.98545C25.5424 6.706 26.0829 6.36859 26.4766 5.84405C27.0043 5.14074 26.9503 4.41681 26.3342 3.78864C25.7407 3.18356 24.9989 2.82454 24.2228 2.5333C21.9744 1.69002 19.6258 1.42529 17.2459 1.37176C15.9612 1.34278 14.6794 1.41842 13.4064 1.60063C12.0274 1.79807 10.674 2.09717 9.39612 2.67229C8.73583 2.96943 8.1109 3.32354 7.63765 3.89031C7.04953 4.5946 7.06671 5.35979 7.72798 5.98992C8.03775 6.28509 8.3971 6.5449 8.77118 6.75266C9.86003 7.35675 11.0535 7.67255 12.2611 7.93679C12.537 7.9972 12.8154 8.04582 13.1035 8.10181C13.1237 7.9859 13.1389 7.90584 13.1511 7.82579C13.3505 6.52771 13.6705 5.26255 14.2425 4.07449C14.6435 3.24201 15.1325 2.46994 15.9224 1.94295C16.754 1.38846 17.5974 1.41743 18.3637 2.0569C18.6494 2.2951 18.9096 2.57848 19.13 2.87857C19.8679 3.88098 20.2974 5.02778 20.6038 6.22174C20.7599 6.82976 20.8747 7.4486 21.0117 8.07971ZM14.4015 10.9283C14.4251 11.4293 14.4334 11.8944 14.4717 12.357C14.5615 13.4444 14.7579 14.5092 15.2027 15.5145C15.4432 16.0572 15.7417 16.5626 16.2253 16.929C16.7834 17.3519 17.3873 17.344 17.8944 16.8676C18.1344 16.6422 18.345 16.3691 18.5115 16.0843C19.0691 15.1319 19.322 14.0745 19.4761 12.9955C19.5728 12.3212 19.6155 11.639 19.6838 10.943C17.9017 11.0781 16.1752 11.0521 14.4015 10.9283ZM19.4575 8.27567C19.3838 7.89749 19.3239 7.51195 19.2321 7.13378C19.0289 6.2959 18.7628 5.48012 18.215 4.79302C17.4855 3.87852 16.5606 3.88884 15.8384 4.80923C15.4437 5.31215 15.187 5.88629 15.0083 6.49186C14.8384 7.06698 14.7064 7.65389 14.5581 8.2354C15.3053 8.41564 18.8983 8.44217 19.4575 8.27567Z" fill="#FF0000"/>
</svg>
