<svg width="45" height="18" viewBox="0 0 45 18" fill="none" xmlns="http://www.w3.org/2000/svg">
<path d="M7.03211 11.8934L6.03579 12.8898C5.77835 13.1472 5.77835 13.5646 6.03579 13.822C6.16446 13.9506 6.33321 14.015 6.50187 14.015C6.67053 14.015 6.83928 13.9506 6.96795 13.822L7.96428 12.8256C8.22171 12.5681 8.22171 12.1507 7.96428 11.8934C7.70694 11.636 7.28955 11.636 7.03211 11.8934Z" fill="#D60000"/>
<path d="M36.5909 8.67586C34.285 8.67586 32.409 10.5519 32.409 12.8578C32.409 13.1138 32.4333 13.3642 32.4776 13.6077H11.1132C11.1575 13.3641 11.1819 13.1138 11.1819 12.8578C11.1819 10.5519 9.30586 8.67586 6.99996 8.67586C4.69406 8.67586 2.81804 10.5519 2.81804 12.8578C2.81804 13.1138 2.84238 13.3642 2.88668 13.6077H2.77268C1.97068 13.6077 1.31827 12.9552 1.31827 12.1532V8.58507H2.06815C3.20862 8.58507 4.13639 7.65721 4.13639 6.51682V5.1264L10.7828 3.8802C11.4012 3.76409 12.0379 3.92317 12.5294 4.31631L13.6919 5.24628C14.6794 6.03633 15.9198 6.47147 17.1845 6.47147H18.2728C18.6369 6.47147 18.932 6.17634 18.932 5.81229C18.932 5.44816 18.6369 5.15311 18.2728 5.15311H17.5228V3.69861C17.5228 2.55815 16.595 1.63037 15.4546 1.63037C14.4368 1.63037 13.589 2.36953 13.4183 3.33905L13.353 3.28685C12.5615 2.65368 11.5362 2.39774 10.5399 2.58442L2.26186 4.13657C0.95124 4.3824 0 5.5285 0 6.86197V12.1532C0 13.6822 1.24383 14.9261 2.77277 14.9261H3.3677C4.08867 16.1873 5.44623 17.0397 7.00005 17.0397C8.55386 17.0397 9.91142 16.1873 10.6324 14.9261H32.9584C33.6794 16.1873 35.037 17.0397 36.5908 17.0397C38.8967 17.0397 40.7727 15.1637 40.7727 12.8578C40.7727 10.5519 38.8968 8.67586 36.5909 8.67586ZM15.4546 2.94882C15.8681 2.94882 16.2045 3.28526 16.2045 3.6987V5.03754C15.6674 4.91045 15.1565 4.68053 14.7047 4.35876V3.6987C14.7047 3.28518 15.0411 2.94882 15.4546 2.94882ZM2.50479 5.43234L2.81812 5.37363V6.51682C2.81812 6.93035 2.48168 7.26671 2.06824 7.26671H1.31836V6.86188C1.31836 6.16254 1.81731 5.56128 2.50479 5.43234ZM7.00005 15.7213C5.42109 15.7213 4.13648 14.4366 4.13648 12.8577C4.13648 11.2787 5.42109 9.99413 7.00005 9.99413C8.579 9.99413 9.86361 11.2787 9.86361 12.8577C9.86361 14.4367 8.579 15.7213 7.00005 15.7213ZM36.5909 15.7213C35.0119 15.7213 33.7273 14.4366 33.7273 12.8577C33.7273 11.2787 35.0119 9.99413 36.5909 9.99413C38.1698 9.99413 39.4544 11.2787 39.4544 12.8577C39.4543 14.4367 38.1698 15.7213 36.5909 15.7213Z" fill="#D60000"/>
<path d="M36.5588 11.8934C36.3014 11.636 35.884 11.636 35.6266 11.8934C35.3692 12.1508 35.3692 12.5682 35.6266 12.8256L36.623 13.822C36.7516 13.9506 36.9204 14.015 37.089 14.015C37.2577 14.015 37.4265 13.9506 37.5551 13.822C37.8126 13.5645 37.8126 13.1472 37.5551 12.8898L36.5588 11.8934Z" fill="#D60000"/>
<path d="M43.532 7.36052C41.9645 6.5361 38.5205 5.15306 33.068 5.15306H32.5631L27.0982 1.50981C26.5251 1.12767 25.8581 0.925781 25.1693 0.925781H23.2044C22.9487 0.925781 22.7159 1.0737 22.6075 1.30538C22.499 1.53697 22.5343 1.81049 22.698 2.00692L25.3198 5.15306H21.0909C20.7269 5.15306 20.4317 5.4481 20.4317 5.81223C20.4317 6.17628 20.7269 6.47141 21.0909 6.47141H33.0679C38.2371 6.47141 41.4582 7.75945 42.9183 8.52735C43.2607 8.70744 43.5081 9.01655 43.6179 9.38033H42.227C41.863 9.38033 41.5678 9.67538 41.5678 10.0395C41.5678 10.4036 41.863 10.6987 42.227 10.6987H43.6816V12.8576C43.6816 13.2711 43.3452 13.6075 42.9317 13.6075C42.5677 13.6075 42.2725 13.9026 42.2725 14.2667C42.2725 14.6307 42.5677 14.9259 42.9317 14.9259C44.0722 14.9259 45 13.998 45 12.8576V9.80809C45 8.77459 44.4375 7.83671 43.532 7.36052ZM24.6119 2.24423H25.1694C25.5971 2.24423 26.0112 2.36965 26.367 2.60678L30.1864 5.15314H27.0359L24.6119 2.24423Z" fill="#D60000"/>
<path d="M12.6818 11.4485C12.6818 11.8125 12.977 12.1077 13.341 12.1077H30.25C30.6141 12.1077 30.9092 11.8125 30.9092 11.4485C30.9092 11.0844 30.6141 10.7893 30.25 10.7893H13.341C12.9769 10.7893 12.6818 11.0844 12.6818 11.4485Z" fill="#D60000"/>
</svg>
