<svg width="39" height="17" viewBox="0 0 39 17" fill="none" xmlns="http://www.w3.org/2000/svg">
<path d="M8.51525 12.3613H8.50916C8.19366 12.3613 7.94092 12.6171 7.94092 12.9326C7.94092 13.2481 8.19975 13.5039 8.51525 13.5039C8.83076 13.5039 9.08654 13.2481 9.08654 12.9326C9.08654 12.6171 8.83076 12.3613 8.51525 12.3613Z" fill="#D60000"/>
<path d="M33.5499 12.3613H33.5438C33.2283 12.3613 32.9756 12.6171 32.9756 12.9326C32.9756 13.2481 33.2344 13.5039 33.5499 13.5039C33.8654 13.5039 34.1212 13.2481 34.1212 12.9326C34.1212 12.6171 33.8654 12.3613 33.5499 12.3613Z" fill="#D60000"/>
<path d="M37.7991 6.59992C35.9952 5.57168 31.9587 5.04533 25.8027 5.03429L20.9575 1.26576C20.5377 0.939363 20.0138 0.759521 19.4821 0.759521H18.2788C18.0868 0.759521 17.9076 0.85603 17.8019 1.0163C17.6962 1.17664 17.6781 1.37933 17.7538 1.55582L19.2443 5.03368H13.3714C13.0543 5.03368 12.7442 4.97396 12.4497 4.8562L10.8064 4.19891C10.1356 3.93063 9.40753 3.86871 8.70104 4.02013L2.02762 5.45011C1.20664 5.62607 0.610746 6.36318 0.610746 7.20282V9.9185H0.571289C0.255785 9.9185 0 10.1743 0 10.4898C0 10.8053 0.255785 11.0611 0.571289 11.0611H0.632227C0.737725 11.7427 1.23345 12.3199 1.91062 12.5134L4.91232 13.3711C5.12972 15.1632 6.65933 16.5565 8.50908 16.5565C10.3131 16.5565 11.8131 15.2314 12.0879 13.5035H29.9649C30.2397 15.2313 31.7397 16.5565 33.5437 16.5565C35.4 16.5565 36.9339 15.1535 37.1429 13.3523L37.3567 13.281C38.3395 12.9534 38.9998 12.0373 38.9998 11.0013L39 8.68383C39 7.82073 38.5398 7.02214 37.7991 6.59992ZM19.1451 1.90218H19.482C19.7609 1.90218 20.0358 1.99648 20.2559 2.16771L23.941 5.03383H20.4873L19.1451 1.90218ZM8.50908 15.414C7.14066 15.414 6.02733 14.3007 6.02733 12.9322C6.02733 11.5638 7.14066 10.4505 8.50908 10.4505C9.87751 10.4505 10.9908 11.5638 10.9908 12.9322C10.9908 14.3007 9.87751 15.414 8.50908 15.414ZM33.5438 15.414C32.1754 15.414 31.0621 14.3007 31.0621 12.9322C31.0621 11.5638 32.1754 10.4505 33.5438 10.4505C34.9122 10.4505 36.0256 11.5638 36.0256 12.9322C36.0256 14.3007 34.9122 15.414 33.5438 15.414ZM37.8573 11.0017C37.8573 11.5126 37.5508 11.968 37.0852 12.1633C36.7314 10.5331 35.2783 9.30806 33.5438 9.30806C31.7398 9.30806 30.2398 10.6331 29.9649 12.3611H12.088C11.8132 10.6332 10.3132 9.30806 8.50916 9.30806C6.76277 9.30806 5.30103 10.5497 4.96008 12.1966L2.2246 11.415C2.03912 11.362 1.89142 11.2294 1.81358 11.0613H3.62433C3.93984 11.0613 4.19562 10.8055 4.19562 10.49C4.19562 10.1745 3.93984 9.91873 3.62433 9.91873H1.75317V7.20305C1.75317 6.89859 1.9692 6.63131 2.26688 6.56755L8.94029 5.13758C9.42406 5.03398 9.92261 5.07626 10.3819 5.25998L12.0253 5.91735C12.4553 6.08934 12.9082 6.17656 13.3713 6.17656H25.606C33.1627 6.17656 36.0999 6.94666 37.2333 7.59275C37.4379 7.70944 37.6008 7.88258 37.709 8.08703H36.5969C36.2813 8.08703 36.0256 8.34281 36.0256 8.65832C36.0256 8.97382 36.2813 9.2296 36.5969 9.2296H37.8574L37.8573 11.0017Z" fill="#D60000"/>
<path d="M28.659 9.91846H27.4379C27.1224 9.91846 26.8666 10.1742 26.8666 10.4897C26.8666 10.8052 27.1224 11.061 27.4379 11.061H28.659C28.9745 11.061 29.2303 10.8052 29.2303 10.4897C29.2303 10.1742 28.9745 9.91846 28.659 9.91846Z" fill="#D60000"/>
<path d="M24.9953 9.91846H13.3939C13.0784 9.91846 12.8226 10.1742 12.8226 10.4897C12.8226 10.8052 13.0784 11.061 13.3939 11.061H24.9952C25.3107 11.061 25.5665 10.8052 25.5665 10.4897C25.5665 10.1742 25.3108 9.91846 24.9953 9.91846Z" fill="#D60000"/>
</svg>
