<svg width="42" height="19" viewBox="0 0 42 19" fill="none" xmlns="http://www.w3.org/2000/svg">
<path d="M41.3002 16.087H37.9246C36.7768 18.0888 34.2233 18.7809 32.2215 17.6328C31.578 17.2639 31.0446 16.7302 30.6754 16.087H11.3246C10.1773 18.0885 7.62434 18.7809 5.62284 17.6336C4.97285 17.2611 4.43509 16.7205 4.06567 16.0688C3.9862 16.0548 3.90958 16.0272 3.83951 15.9868L0.339512 13.8867C0.129021 13.7602 -7.62939e-06 13.5327 -7.62939e-06 13.2868V6.98696C0.00170135 6.90436 0.0185051 6.8229 0.0489845 6.74599C0.056675 6.7252 0.0652199 6.70554 0.0749016 6.68532C0.0845871 6.6651 0.0888596 6.64545 0.100254 6.62636L2.00207 3.45619L1.47342 2.40004C1.30082 2.05397 1.44124 1.63356 1.78702 1.46096C1.8494 1.42991 1.91576 1.40826 1.98441 1.39687L5.58467 0.79616L7.29337 0.511899C15.6745 -0.86184 24.2753 0.547218 31.78 4.52374L33.8436 5.6249L36.9935 6.32473C39.1349 6.79641 40.9478 8.21173 41.9245 10.1748C41.9735 10.2716 41.9994 10.3784 42 10.487V15.3869C42 15.7734 41.6867 16.087 41.3002 16.087ZM31.7367 15.1069C32.3582 16.5191 34.0068 17.1603 35.419 16.5388C36.8312 15.9173 37.4723 14.2687 36.8508 12.8565C36.2293 11.4443 34.5807 10.8031 33.1685 11.4246C32.1528 11.8715 31.498 12.8773 31.5 13.987C31.5011 14.3726 31.582 14.754 31.7373 15.1069H31.7367ZM5.13663 15.1069C5.75813 16.5191 7.40673 17.1603 8.81892 16.5388C10.2311 15.9173 10.8723 14.2687 10.2508 12.8565C9.62927 11.4443 7.98067 10.8031 6.56847 11.4246C5.55277 11.8715 4.89794 12.8773 4.89994 13.987C4.90108 14.3726 4.98197 14.754 5.1372 15.1069H5.13663ZM1.39994 9.08702H3.14994L4.20011 7.68679H1.39994V9.08702ZM15.5022 1.45697C12.8342 1.31398 10.1585 1.46096 7.52237 1.89589L7.15466 1.95742L10.79 5.58701H16.0932L15.5022 1.45697ZM10.5 6.98696C10.3143 6.98696 10.1363 6.91319 10.0052 6.78188L5.4602 2.23598L3.14994 2.62164L3.43021 3.17393C3.53702 3.38812 3.52705 3.64219 3.40343 3.84727L1.93627 6.28684H5.60005C5.98685 6.28684 6.30016 6.60044 6.30016 6.98696C6.30016 7.13849 6.25089 7.28574 6.16003 7.4068L4.05997 10.207C3.92781 10.3833 3.72045 10.487 3.49999 10.487H1.39994V12.8906L3.49999 14.1527C3.49999 14.0975 3.49657 14.0422 3.49657 13.987C3.49657 11.6673 5.37703 9.78684 7.6964 9.78684C10.0161 9.78684 11.8965 11.6673 11.8965 13.987C11.8951 14.1966 11.8772 14.4059 11.8433 14.6127C11.8398 14.6372 11.8433 14.6626 11.8376 14.6871H17.3929L16.2932 6.98696H10.5ZM16.9309 1.55495L17.5071 5.58701H30.7965C26.4807 3.35423 21.771 1.98476 16.9309 1.55495ZM40.6001 11.8869H39.2001V10.487H40.4972C39.6783 9.06109 38.2972 8.04624 36.6919 7.69106L33.5232 6.98696H17.7102L18.8071 14.6868H30.159C30.159 14.6623 30.159 14.6372 30.1533 14.6127C30.1197 14.4057 30.102 14.1966 30.1001 13.9867C30.1001 11.6673 31.9805 9.78684 34.3002 9.78684C36.6195 9.78684 38.5 11.6673 38.5 13.9867C38.4986 14.1966 38.4806 14.4057 38.4467 14.6127C38.4433 14.6372 38.4467 14.6623 38.4413 14.6868H40.6001V11.8869Z" fill="#D60000"/>
<path d="M23.8002 8.38684H21V9.78678H23.8002V8.38684Z" fill="#D60000"/>
</svg>
