<svg width="41" height="23" viewBox="0 0 41 23" fill="none" xmlns="http://www.w3.org/2000/svg">
<path d="M28.6145 17.859H12.1339" stroke="#D60000" stroke-width="1.5" stroke-miterlimit="10" stroke-linecap="round" stroke-linejoin="round"/>
<path d="M35.9742 17.859H37.9242C39.0565 17.859 40 16.9154 40 15.7832V13.959C40 13.3929 39.7484 12.8267 39.3081 12.4493C39.0565 12.1977 38.8677 11.8832 38.7419 11.5687L38.4903 10.7509C38.3016 10.1219 37.8613 9.61868 37.2323 9.42997L32.3887 7.66868C32.0742 7.54287 31.8226 7.35416 31.571 7.16545C29.5581 5.08964 26.8532 3.39126 23.7081 1.88158C23.4565 1.75577 23.1419 1.69287 22.8274 1.69287H4.58548C3.64194 1.69287 2.82419 2.3219 2.63548 3.20255L1.12581 9.11545C1 9.36706 1 9.55577 1 9.68158V15.7832C1 16.8525 1.81774 17.7332 2.8871 17.7961H4.77419" stroke="#D60000" stroke-width="1.5" stroke-miterlimit="10" stroke-linecap="round" stroke-linejoin="round"/>
<path d="M19.6194 8.92693C19.6194 9.30435 19.871 9.55597 20.2484 9.55597H30.5016C30.25 9.36726 29.9984 9.17855 29.8097 8.92693C28.2371 7.29145 25.9726 5.78177 22.9532 4.335C22.8903 4.27209 22.7645 4.27209 22.7016 4.27209H20.3113C19.9339 4.27209 19.6823 4.52371 19.6823 4.90113V8.92693H19.6194Z" stroke="#D60000" stroke-width="1.5" stroke-miterlimit="10" stroke-linecap="round" stroke-linejoin="round"/>
<path d="M16.0339 4.27209H5.40321C5.0887 4.27209 4.83709 4.46081 4.77418 4.77532L3.76773 8.80113C3.64192 9.17855 3.95644 9.55597 4.39676 9.55597H16.0339C16.4113 9.55597 16.6629 9.30435 16.6629 8.92693V4.90113C16.6629 4.52371 16.3484 4.27209 16.0339 4.27209Z" stroke="#D60000" stroke-width="1.5" stroke-miterlimit="10" stroke-linecap="round" stroke-linejoin="round"/>
<path d="M8.42256 21.5071C10.4375 21.5071 12.0709 19.8737 12.0709 17.8587C12.0709 15.8438 10.4375 14.2103 8.42256 14.2103C6.40761 14.2103 4.77417 15.8438 4.77417 17.8587C4.77417 19.8737 6.40761 21.5071 8.42256 21.5071Z" stroke="#D60000" stroke-width="1.5" stroke-miterlimit="10" stroke-linecap="round" stroke-linejoin="round"/>
<path d="M32.3258 21.5071C34.3408 21.5071 35.9742 19.8737 35.9742 17.8587C35.9742 15.8438 34.3408 14.2103 32.3258 14.2103C30.3109 14.2103 28.6774 15.8438 28.6774 17.8587C28.6774 19.8737 30.3109 21.5071 32.3258 21.5071Z" stroke="#D60000" stroke-width="1.5" stroke-miterlimit="10" stroke-linecap="round" stroke-linejoin="round"/>
<path d="M21.7581 11.7573H23.2048" stroke="#D60000" stroke-width="1.5" stroke-miterlimit="10" stroke-linecap="round" stroke-linejoin="round"/>
<path d="M13.7694 11.506H15.1532" stroke="#D60000" stroke-width="1.5" stroke-miterlimit="10" stroke-linecap="round" stroke-linejoin="round"/>
</svg>
