<svg width="39" height="18" viewBox="0 0 39 18" fill="none" xmlns="http://www.w3.org/2000/svg">
<path d="M36.6002 5.65252L30.1652 5.16138L25.4013 0.972621C24.6901 0.34642 23.7711 0.000307878 22.8189 0H14.95C14.4328 0 13.9368 0.203183 13.5711 0.564853C13.2054 0.926522 13 1.41705 13 1.92853V4.4999H2.6C2.08283 4.4999 1.58684 4.70308 1.22114 5.06475C0.855446 5.42642 0.65 5.91695 0.65 6.42843V11.107C0.453023 11.219 0.289277 11.3802 0.17519 11.5745C0.0611021 11.7688 0.000685064 11.9893 0 12.214L0 13.4997C0 13.8407 0.136964 14.1677 0.380761 14.4088C0.624558 14.6499 0.955218 14.7854 1.3 14.7854H3.9585C4.11127 15.6838 4.58099 16.4995 5.28427 17.0878C5.98755 17.6762 6.87887 17.999 7.8 17.999C8.72113 17.999 9.61245 17.6762 10.3157 17.0878C11.019 16.4995 11.4887 15.6838 11.6415 14.7854H13.1807C13.2939 14.9802 13.4569 15.1421 13.6534 15.255C13.8498 15.3678 14.0728 15.4275 14.3 15.4282H28.8275C29.0952 16.1801 29.5922 16.8313 30.25 17.292C30.9078 17.7526 31.694 18 32.5 18C33.306 18 34.0922 17.7526 34.75 17.292C35.4078 16.8313 35.9048 16.1801 36.1725 15.4282H37.05C37.5672 15.4282 38.0632 15.225 38.4289 14.8634C38.7946 14.5017 39 14.0112 39 13.4997V8.21681C38.9971 7.56989 38.749 6.94756 38.3047 6.47277C37.8604 5.99799 37.2522 5.70529 36.6002 5.65252ZM2.6 5.78558H3.25V6.42843C3.25 6.59892 3.18152 6.76243 3.05962 6.88299C2.93772 7.00354 2.77239 7.07127 2.6 7.07127H1.95V6.42843C1.95 6.25793 2.01848 6.09442 2.14038 5.97387C2.26228 5.85331 2.42761 5.78558 2.6 5.78558ZM1.3 12.214H4.4278C4.19478 12.6113 4.03583 13.0468 3.9585 13.4997H1.3V12.214ZM7.8 16.7139C7.28577 16.7139 6.78309 16.5631 6.35552 16.2806C5.92795 15.998 5.5947 15.5964 5.39791 15.1266C5.20113 14.6567 5.14964 14.1397 5.24996 13.6409C5.35028 13.1421 5.59791 12.6839 5.96152 12.3243C6.32514 11.9647 6.78841 11.7198 7.29277 11.6206C7.79712 11.5214 8.31989 11.5723 8.79498 11.7669C9.27006 11.9615 9.67613 12.2911 9.96182 12.714C10.2475 13.1368 10.4 13.634 10.4 14.1425C10.4 14.8245 10.1261 15.4785 9.63848 15.9608C9.15088 16.443 8.48956 16.7139 7.8 16.7139ZM7.8 10.2855C7.03437 10.2849 6.28571 10.5086 5.6485 10.9283H1.95V8.35696H2.6C3.11717 8.35696 3.61316 8.15377 3.97886 7.7921C4.34455 7.43043 4.55 6.9399 4.55 6.42843V5.78558H13V13.4997H11.6415C11.4873 12.6019 11.0172 11.787 10.3142 11.1988C9.61128 10.6107 8.72076 10.2872 7.8 10.2855ZM37.7 8.21681V8.35696H36.4C36.2276 8.35696 36.0623 8.28923 35.9404 8.16867C35.8185 8.04811 35.75 7.8846 35.75 7.71411V6.87842L36.4994 6.93563C36.8253 6.962 37.1294 7.10818 37.3516 7.34536C37.5739 7.58253 37.6982 7.89346 37.7 8.21681ZM24.5414 1.93303L28.1911 5.14274H21.45V1.28569H22.8189C23.4539 1.28537 24.0669 1.51573 24.5414 1.93303ZM16.9 1.28569H20.15V5.14274H17.55C17.3776 5.14274 17.2123 5.07501 17.0904 4.95446C16.9685 4.8339 16.9 4.67039 16.9 4.4999V1.28569ZM28.6 14.1425H14.3V1.92853C14.3 1.75804 14.3685 1.59453 14.4904 1.47397C14.6123 1.35341 14.7776 1.28569 14.95 1.28569H15.6V4.4999C15.6 5.01138 15.8054 5.50191 16.1711 5.86357C16.5368 6.22524 17.0328 6.42843 17.55 6.42843H29.8746L34.45 6.77813V7.71411C34.45 8.22559 34.6554 8.71612 35.0211 9.07779C35.3868 9.43946 35.8828 9.64264 36.4 9.64264H37.7V11.5712H35.399C34.873 10.9891 34.1806 10.5787 33.4136 10.3946C32.6465 10.2104 31.8409 10.2611 31.1036 10.54C30.3664 10.8188 29.7321 11.3126 29.285 11.956C28.8379 12.5993 28.599 13.3619 28.6 14.1425ZM32.5 16.7139C31.9858 16.7139 31.4831 16.5631 31.0555 16.2806C30.6279 15.998 30.2947 15.5964 30.0979 15.1266C29.9011 14.6567 29.8496 14.1397 29.95 13.6409C30.0503 13.1421 30.2979 12.6839 30.6615 12.3243C31.0251 11.9647 31.4884 11.7198 31.9928 11.6206C32.4971 11.5214 33.0199 11.5723 33.495 11.7669C33.9701 11.9615 34.3761 12.2911 34.6618 12.714C34.9475 13.1368 35.1 13.634 35.1 14.1425C35.1 14.8245 34.8261 15.4785 34.3385 15.9608C33.8509 16.443 33.1896 16.7139 32.5 16.7139ZM37.05 14.1425H36.4C36.3989 13.7043 36.3219 13.2694 36.1725 12.8569H37.7V13.4997C37.7 13.6702 37.6315 13.8337 37.5096 13.9543C37.3877 14.0748 37.2224 14.1425 37.05 14.1425Z" fill="#D60000"/>
</svg>
