<svg width="39" height="16" viewBox="0 0 39 16" fill="none" xmlns="http://www.w3.org/2000/svg">
<path fill-rule="evenodd" clip-rule="evenodd" d="M28.3319 12.8713H10.6699C10.4348 12.8713 10.244 12.6807 10.244 12.4456C10.244 12.2105 10.4347 12.0198 10.6697 12.0198H28.3319C28.5669 12.0198 28.7573 12.2105 28.7573 12.4456C28.7574 12.6806 28.5666 12.8713 28.3319 12.8713ZM37.0452 12.8713H34.1052C33.8701 12.8713 33.6794 12.6807 33.6794 12.4456C33.6797 12.2105 33.87 12.0199 34.1051 12.0199L37.0452 12.0198C37.8015 12.0198 38.0481 11.3341 38.1217 10.7588C38.3151 9.23752 37.4282 7.18043 35.9941 6.80832C35.4665 6.67122 34.4527 6.49965 33.3797 6.31792C30.6358 5.85306 28.6455 5.48905 28.0274 5.03265C22.7116 1.10722 13.2806 0.484202 7.84595 3.69907C7.668 3.80685 3.52872 6.2974 1.30357 6.77288C1.07065 7.43818 0.439803 9.63643 1.28495 12.0198L4.89748 12.0197C5.13211 12.0197 5.32284 12.2105 5.32284 12.4456C5.32293 12.6806 5.13211 12.8713 4.89712 12.8713H0.99085C0.816764 12.8713 0.660582 12.7653 0.595806 12.6036C-0.720048 9.31462 0.546144 6.35138 0.601204 6.22687C0.659952 6.09309 0.782936 5.99871 0.927513 5.97676C2.91002 5.67681 7.36436 2.99544 7.40962 2.96827C10.2461 1.29012 14.0646 0.532423 18.1637 0.833362C22.123 1.12377 25.9016 2.40472 28.5338 4.34773C29.036 4.71867 31.7355 5.17588 33.5215 5.47844C34.6614 5.67133 35.6446 5.83803 36.2078 5.98423C37.9542 6.43712 38.9984 8.50834 39 10.312V10.3221C38.9997 10.5071 38.9886 10.6892 38.966 10.8665C38.8057 12.1219 38.087 12.8713 37.0452 12.8713Z" fill="#D60000"/>
<path fill-rule="evenodd" clip-rule="evenodd" d="M7.83284 5.50281H25.9327C23.4826 4.09537 20.2186 3.23439 16.9142 3.15549C13.7145 3.07911 10.7779 3.74054 8.64056 5.01762L8.57948 5.05478C8.35078 5.19287 8.10049 5.34402 7.83284 5.50281ZM27.3662 6.35426H6.21335C6.01857 6.35426 5.84791 6.22129 5.80085 6.03173C5.75317 5.84217 5.8408 5.64478 6.01372 5.55283C6.82432 5.12063 7.55323 4.68006 8.13864 4.32605L8.20279 4.28772C10.4776 2.92832 13.5769 2.22496 16.9346 2.3044C20.9728 2.40067 24.9668 3.62745 27.6195 5.58603C27.7669 5.69516 27.8279 5.88706 27.7703 6.06169C27.7138 6.23622 27.5503 6.35426 27.3662 6.35426Z" fill="#D60000"/>
<path fill-rule="evenodd" clip-rule="evenodd" d="M16.924 6.35435C16.689 6.35435 16.4982 6.16371 16.4982 5.92863L16.4985 2.72986C16.4985 2.49496 16.6889 2.30432 16.9239 2.30432C17.1591 2.30432 17.3496 2.49496 17.3496 2.72995L17.3499 5.92863C17.3499 6.16371 17.1589 6.35435 16.924 6.35435Z" fill="#D60000"/>
<path fill-rule="evenodd" clip-rule="evenodd" d="M20.436 7.86841H18.6835C18.4485 7.86841 18.2577 7.67777 18.2577 7.44269C18.2577 7.20752 18.4484 7.01697 18.6834 7.01697H20.436C20.6711 7.01697 20.8615 7.20761 20.8615 7.44269C20.8618 7.67768 20.6709 7.86841 20.436 7.86841Z" fill="#D60000"/>
<path fill-rule="evenodd" clip-rule="evenodd" d="M9.94515 7.86841H8.19278C7.9577 7.86841 7.76706 7.67777 7.76706 7.44269C7.76733 7.20752 7.9577 7.01697 8.19278 7.01697H9.94515C10.1802 7.01697 10.3709 7.20761 10.3709 7.44269C10.371 7.67768 10.1801 7.86841 9.94515 7.86841Z" fill="#D60000"/>
<path fill-rule="evenodd" clip-rule="evenodd" d="M31.2186 9.98502C29.8616 9.98502 28.7573 11.0888 28.7573 12.4458C28.7574 13.8026 29.8615 14.9065 31.2183 14.9065C32.5755 14.9064 33.6794 13.8027 33.6794 12.4458C33.6797 11.0888 32.5752 9.98502 31.2186 9.98502ZM31.2186 15.7578C29.3924 15.7578 27.9059 14.2721 27.9059 12.4458C27.9061 10.6194 29.3923 9.13367 31.2183 9.13367C33.0444 9.13367 34.5307 10.6195 34.5307 12.4458C34.5309 14.272 33.0444 15.7579 31.2186 15.7578Z" fill="#D60000"/>
<path fill-rule="evenodd" clip-rule="evenodd" d="M31.2186 11.5861C30.7449 11.5861 30.359 11.9718 30.359 12.4456C30.3593 12.9194 30.7448 13.305 31.2183 13.305C31.6923 13.305 32.0777 12.9195 32.0777 12.4456C32.0778 11.9718 31.6919 11.5861 31.2186 11.5861ZM31.2186 14.1564C30.2748 14.1564 29.5076 13.3889 29.5076 12.4456C29.5077 11.5022 30.2748 10.7347 31.2183 10.7347C32.162 10.7347 32.9291 11.5022 32.9291 12.4456C32.9295 13.3889 32.1619 14.1564 31.2186 14.1564Z" fill="#D60000"/>
<path fill-rule="evenodd" clip-rule="evenodd" d="M7.78335 9.98502C6.42638 9.98502 5.32285 11.0888 5.32285 12.4458C5.32294 13.8026 6.42611 14.9065 7.78299 14.9065C9.14023 14.9064 10.244 13.8027 10.244 12.4458C10.244 11.0888 9.13987 9.98502 7.78335 9.98502ZM7.78335 15.7578C5.95712 15.7578 4.47141 14.2721 4.47141 12.4458C4.47167 10.6194 5.95685 9.13367 7.78299 9.13367C9.61031 9.13367 11.0955 10.6195 11.0955 12.4458C11.0957 14.272 9.60995 15.7579 7.78335 15.7578Z" fill="#D60000"/>
<path fill-rule="evenodd" clip-rule="evenodd" d="M7.78334 11.5861C7.30958 11.5861 6.92362 11.9718 6.92362 12.4456C6.92362 12.9194 7.3094 13.305 7.78298 13.305C8.25783 13.305 8.64234 12.9195 8.64234 12.4456C8.64252 11.9718 8.25756 11.5861 7.78334 11.5861ZM7.78334 14.1564C6.84067 14.1564 6.07217 13.3889 6.07217 12.4456C6.07244 11.5022 6.84031 10.7347 7.78298 10.7347C8.72673 10.7347 9.49379 11.5022 9.49379 12.4456C9.49379 13.3889 8.72655 14.1564 7.78334 14.1564Z" fill="#D60000"/>
<path fill-rule="evenodd" clip-rule="evenodd" d="M37.0532 9.24054C36.6681 9.24054 36.3 9.1575 35.9488 8.99133C34.43 8.27088 33.8568 6.23214 33.8328 6.14568C33.7707 5.91879 33.9046 5.68478 34.1316 5.62271C34.3582 5.56045 34.592 5.69405 34.654 5.92041C34.6591 5.93777 35.1507 7.67269 36.316 8.2231C36.8304 8.46548 37.3962 8.44262 38.049 8.15266C38.2636 8.05703 38.5154 8.15392 38.6103 8.36876C38.7063 8.58351 38.6094 8.83515 38.3949 8.93069C37.9304 9.13717 37.4822 9.24063 37.0532 9.24054Z" fill="#D60000"/>
<path fill-rule="evenodd" clip-rule="evenodd" d="M0.474345 8.99972C0.260045 8.99972 0.0752529 8.83733 0.0522214 8.61871C0.0273906 8.38489 0.196708 8.17544 0.430891 8.1507C1.36034 8.05246 2.01035 7.75143 2.36248 7.25562C2.81501 6.61848 2.63742 5.83379 2.63562 5.82596C2.58155 5.59799 2.72162 5.36839 2.9496 5.31351C3.17785 5.25872 3.40636 5.39664 3.46223 5.62408C3.47393 5.67077 3.73708 6.77862 3.06485 7.73739C2.56679 8.44786 1.70968 8.8717 0.519599 8.99738C0.504754 8.99891 0.48937 8.99972 0.474345 8.99972Z" fill="#D60000"/>
</svg>
