<svg width="42" height="22" viewBox="0 0 42 22" fill="none" xmlns="http://www.w3.org/2000/svg">
<path d="M2.84843 17.657C3.00219 18.6481 3.50502 19.5517 4.26626 20.2048C5.02749 20.8579 5.99702 21.2175 7.00001 21.2188H9.80001C10.7943 21.2174 11.756 20.8638 12.5144 20.2208C13.2728 19.5778 13.7789 18.6869 13.9428 17.7062L20.353 17.6828C20.5121 18.6685 21.0167 19.5654 21.7764 20.2132C22.5362 20.861 23.5016 21.2174 24.5 21.2188H27.3C27.8962 21.2188 28.4856 21.0917 29.0288 20.8458C29.5719 20.5998 30.0564 20.2408 30.4497 19.7927C30.8447 20.239 31.3295 20.5968 31.8724 20.8425C32.4153 21.0883 33.0041 21.2165 33.6 21.2188H36.4C37.4105 21.2174 38.3868 20.8522 39.1502 20.1901C39.9136 19.5279 40.4131 18.6131 40.5572 17.6129C40.9767 17.4741 41.3418 17.2068 41.6007 16.8489C41.8597 16.4909 41.9994 16.0606 42 15.6188V10.0188C41.9985 8.71966 41.4818 7.47418 40.5632 6.55557C39.6446 5.63696 38.3991 5.12024 37.1 5.11877H32.463L28.8424 1.95074C27.5664 0.834048 25.9284 0.218596 24.2328 0.218768H7.33971C6.69597 0.217007 6.05828 0.342943 5.46354 0.589289C4.8688 0.835635 4.32883 1.1975 3.87488 1.65393L0.820109 4.7087C0.559285 4.96809 0.352503 5.27665 0.211732 5.6165C0.0709619 5.95635 -0.0010006 6.32075 1.05087e-05 6.6886V14.2188C0.00114085 15.0336 0.286125 15.8226 0.805965 16.4501C1.3258 17.0776 2.04802 17.5043 2.84843 17.657ZM2.87639 16.2242C2.56289 16.1259 2.27671 15.9556 2.04065 15.7271C1.8046 15.4985 1.62519 15.218 1.51673 14.9079C1.68609 14.8796 1.83912 14.7899 1.94663 14.6561L2.99748 13.3425C3.47769 12.7422 4.08676 12.2577 4.7796 11.9247C5.47244 11.5917 6.2313 11.4188 7.00001 11.4188C7.76872 11.4188 8.52758 11.5917 9.22042 11.9247C9.91326 12.2577 10.5223 12.7422 11.0025 13.3425L12.0534 14.6561C12.119 14.738 12.2021 14.8042 12.2968 14.8497C12.3914 14.8952 12.495 14.9188 12.6 14.9188H14V16.306L11.1401 16.3164C10.9757 15.3462 10.4758 14.4646 9.7277 13.8254C8.97957 13.1862 8.03072 12.83 7.04676 12.819C6.0628 12.8081 5.10624 13.143 4.34404 13.7653C3.58183 14.3877 3.06239 15.258 2.87639 16.2242ZM4.20001 17.0188C4.20001 16.465 4.36423 15.9236 4.67189 15.4632C4.97956 15.0027 5.41686 14.6438 5.9285 14.4319C6.44013 14.22 7.00311 14.1645 7.54626 14.2726C8.08941 14.3806 8.58832 14.6473 8.97991 15.0389C9.37149 15.4305 9.63817 15.9294 9.74621 16.4725C9.85425 17.0157 9.7988 17.5786 9.58687 18.0903C9.37494 18.6019 9.01606 19.0392 8.5556 19.3469C8.09515 19.6545 7.5538 19.8188 7.00001 19.8188C6.25766 19.8179 5.54595 19.5227 5.02103 18.9977C4.49611 18.4728 4.20084 17.7611 4.20001 17.0188ZM10.1464 19.7966C10.6661 19.21 11.0107 18.4892 11.141 17.7164L12.5132 17.7114C12.373 18.2561 12.0724 18.7461 11.6504 19.1179C11.2284 19.4897 10.7044 19.7262 10.1464 19.7966ZM21.7 17.0188C21.7 16.465 21.8642 15.9236 22.1719 15.4632C22.4796 15.0027 22.9169 14.6438 23.4285 14.4319C23.9401 14.22 24.5031 14.1645 25.0463 14.2726C25.5894 14.3806 26.0883 14.6473 26.4799 15.0389C26.8715 15.4305 27.1382 15.9294 27.2462 16.4725C27.3542 17.0157 27.2988 17.5786 27.0869 18.0903C26.8749 18.6019 26.5161 19.0392 26.0556 19.3469C25.5951 19.6545 25.0538 19.8188 24.5 19.8188C23.7577 19.8179 23.0459 19.5227 22.521 18.9977C21.9961 18.4728 21.7008 17.7611 21.7 17.0188ZM27.6464 19.7966C28.1655 19.2106 28.51 18.4907 28.6406 17.7188H30.0114C29.8701 18.2618 29.5692 18.7501 29.1476 19.1204C28.726 19.4908 28.2031 19.7263 27.6464 19.7966ZM31.2277 18.5046C31.3241 18.2503 31.3954 17.987 31.4406 17.7188H36.3114C36.1746 18.2488 35.8854 18.7271 35.4797 19.0945C35.0739 19.4619 34.5693 19.7023 34.0283 19.7859C33.4874 19.8695 32.9337 19.7927 32.436 19.565C31.9382 19.3373 31.5181 18.9686 31.2277 18.5046ZM36.7463 19.7966C37.2655 19.2106 37.6099 18.4907 37.7406 17.7188H39.1114C38.9701 18.2618 38.6692 18.7501 38.2476 19.1204C37.826 19.4908 37.3031 19.7263 36.7463 19.7966ZM39.9 16.3188H28.6406C28.4759 15.3433 27.972 14.4572 27.2179 13.8169C26.4637 13.1766 25.5077 12.8231 24.5184 12.8188C23.5291 12.8145 22.57 13.1596 21.8103 13.7933C21.0506 14.4271 20.5391 15.3087 20.3659 16.2827L15.4 16.3009V14.9188H18.9C19.005 14.9188 19.1086 14.8952 19.2032 14.8497C19.2979 14.8042 19.381 14.738 19.4466 14.6561L20.4975 13.3425C20.9777 12.7422 21.5868 12.2577 22.2796 11.9247C22.9724 11.5917 23.7313 11.4188 24.5 11.4188C25.2687 11.4188 26.0276 11.5917 26.7204 11.9247C27.4133 12.2577 28.0223 12.7422 28.5025 13.3425L29.5534 14.6561C29.619 14.738 29.7021 14.8042 29.7968 14.8497C29.8914 14.8952 29.995 14.9188 30.1 14.9188H40.6V15.6188C40.5998 15.8044 40.526 15.9823 40.3947 16.1135C40.2635 16.2447 40.0856 16.3186 39.9 16.3188ZM32.2 10.7188C31.8288 10.7183 31.473 10.5707 31.2105 10.3082C30.9481 10.0458 30.8004 9.68994 30.8 9.31877H32.9V10.7188H32.2ZM34.3 9.31877H40.5296C40.5765 9.54915 40.6001 9.78366 40.6 10.0188V10.7188H34.3V9.31877ZM37.1 6.51877C37.6431 6.51881 38.1787 6.64535 38.6644 6.88835C39.15 7.13136 39.5724 7.48415 39.8981 7.91877H30.1C30.0081 7.91877 29.9171 7.93687 29.8321 7.97205C29.7472 8.00723 29.67 8.05879 29.605 8.12379C29.54 8.18879 29.4885 8.26596 29.4533 8.35089C29.4181 8.43582 29.4 8.52684 29.4 8.61877V9.31877C29.4008 10.0611 29.6961 10.7728 30.221 11.2977C30.7459 11.8227 31.4577 12.1179 32.2 12.1188H40.6V13.5188H30.4365L29.5958 12.4679C28.9844 11.7037 28.209 11.0868 27.3269 10.6628C26.4448 10.2389 25.4787 10.0188 24.5 10.0188C23.5213 10.0188 22.5552 10.2389 21.6731 10.6628C20.791 11.0868 20.0156 11.7037 19.4042 12.4679L18.5635 13.5188H15.4V12.1188C15.4 12.0268 15.3819 11.9358 15.3467 11.8509C15.3115 11.766 15.26 11.6888 15.195 11.6238L13.3 9.7288V6.51877L37.1 6.51877ZM24.2328 1.61877C25.5893 1.61861 26.8997 2.11097 27.9205 3.00433L30.337 5.11877H24.063L20.4424 1.95074C20.3091 1.83412 20.1711 1.72432 20.0303 1.61877L24.2328 1.61877ZM15.8328 1.61877C17.1893 1.61861 18.4997 2.11097 19.5205 3.00433L21.937 5.11877H13.3V1.61877H15.8328ZM11.9 5.11877H6.26023L8.76023 1.61877H11.9L11.9 5.11877ZM1.81003 5.69867L4.8648 2.6439C5.44416 2.06151 6.21119 1.70332 7.02965 1.63296L4.3304 5.4119C4.25565 5.51656 4.21117 5.63979 4.20185 5.76807C4.19254 5.89635 4.21874 6.02471 4.2776 6.13907C4.33645 6.25343 4.42567 6.34937 4.53547 6.41635C4.64526 6.48333 4.77139 6.51877 4.90001 6.51877H11.9V10.0188C11.9 10.1107 11.9181 10.2017 11.9533 10.2866C11.9885 10.3716 12.04 10.4487 12.105 10.5137L14 12.4087V13.5188H12.9365L12.0958 12.4679C11.4844 11.7037 10.709 11.0868 9.82689 10.6628C8.94482 10.2389 7.97868 10.0188 7.00001 10.0188C6.02134 10.0188 5.0552 10.2389 4.17312 10.6628C3.29105 11.0868 2.51562 11.7037 1.90425 12.4679L1.40001 13.0982V10.7188H2.10001C2.21525 10.7188 2.32871 10.6903 2.43031 10.6359C2.53191 10.5816 2.61851 10.5029 2.68243 10.407L4.08243 8.30705C4.15271 8.20163 4.19306 8.07911 4.19917 7.95256C4.20529 7.82601 4.17695 7.70017 4.11716 7.58847C4.05738 7.47676 3.9684 7.38338 3.85972 7.31827C3.75103 7.25316 3.62671 7.21877 3.50001 7.21877H1.40001V6.6886C1.3995 6.50468 1.43548 6.32248 1.50586 6.15256C1.57624 5.98264 1.67963 5.82837 1.81003 5.69867ZM1.40001 9.31877V8.61877H2.19204L1.7254 9.31877H1.40001Z" fill="#D60000"/>
<path d="M7.00005 17.7187C7.38665 17.7187 7.70005 17.4053 7.70005 17.0187C7.70005 16.6321 7.38665 16.3187 7.00005 16.3187C6.61345 16.3187 6.30005 16.6321 6.30005 17.0187C6.30005 17.4053 6.61345 17.7187 7.00005 17.7187Z" fill="#D60000"/>
<path d="M15.4001 8.61877H17.5001V10.0188H15.4001V8.61877Z" fill="#D60000"/>
<path d="M24.5 17.7187C24.8866 17.7187 25.2 17.4053 25.2 17.0187C25.2 16.6321 24.8866 16.3187 24.5 16.3187C24.1134 16.3187 23.8 16.6321 23.8 17.0187C23.8 17.4053 24.1134 17.7187 24.5 17.7187Z" fill="#D60000"/>
</svg>
