<svg width="37" height="23" viewBox="0 0 37 23" fill="none" xmlns="http://www.w3.org/2000/svg">
<path d="M35.8801 12.1633L32.5248 10.7253L28.86 2.93306C28.4592 2.08722 27.8271 1.37221 27.0367 0.870831C26.2463 0.369455 25.3301 0.102228 24.3941 0.100098H3.7C2.88255 0.101077 2.09886 0.426242 1.52084 1.00427C0.942811 1.58229 0.617646 2.36598 0.616667 3.18343V16.9215C0.429791 17.0289 0.274443 17.1836 0.166206 17.3699C0.0579687 17.5563 0.000649932 17.7679 0 17.9834L0 19.2168C0 19.5439 0.12994 19.8576 0.361235 20.0889C0.59253 20.3202 0.906233 20.4501 1.23333 20.4501H5.81147C6.05052 20.9998 6.44492 21.4677 6.94623 21.7963C7.44753 22.125 8.03391 22.3001 8.63333 22.3001C9.23276 22.3001 9.81914 22.125 10.3204 21.7963C10.8217 21.4677 11.2161 20.9998 11.4552 20.4501H28.6281C28.8672 20.9998 29.2616 21.4677 29.7629 21.7963C30.2642 22.125 30.8506 22.3001 31.45 22.3001C32.0494 22.3001 32.6358 22.125 33.1371 21.7963C33.6384 21.4677 34.0328 20.9998 34.2719 20.4501H35.15C35.6407 20.4501 36.1112 20.2552 36.4581 19.9082C36.8051 19.5613 37 19.0907 37 18.6001V13.8641C36.9992 13.5024 36.8927 13.1488 36.6938 12.8466C36.4949 12.5445 36.2121 12.307 35.8801 12.1633ZM31.0948 10.5834H27.1333C26.8062 10.5834 26.4925 10.4535 26.2612 10.2222C26.0299 9.9909 25.9 9.6772 25.9 9.3501V6.88343C25.9 6.71988 25.965 6.56303 26.0806 6.44738C26.1963 6.33173 26.3531 6.26677 26.5167 6.26677H29.0635L31.0948 10.5834ZM3.08333 19.2168H1.23333V17.9834H3.08333V19.2168ZM8.63333 21.0668C8.26744 21.0668 7.90976 20.9583 7.60553 20.755C7.3013 20.5517 7.06418 20.2628 6.92416 19.9247C6.78413 19.5867 6.7475 19.2147 6.81888 18.8559C6.89026 18.497 7.06646 18.1673 7.32519 17.9086C7.58391 17.6499 7.91355 17.4737 8.27242 17.4023C8.63128 17.3309 9.00325 17.3676 9.3413 17.5076C9.67934 17.6476 9.96827 17.8847 10.1716 18.189C10.3748 18.4932 10.4833 18.8509 10.4833 19.2168C10.4833 19.7074 10.2884 20.178 9.94148 20.5249C9.59454 20.8719 9.12398 21.0668 8.63333 21.0668ZM28.3667 19.2168H11.7167C11.7167 18.399 11.3918 17.6148 10.8136 17.0365C10.2353 16.4583 9.45108 16.1334 8.63333 16.1334C7.81558 16.1334 7.03132 16.4583 6.45309 17.0365C5.87485 17.6148 5.55 18.399 5.55 19.2168H4.31667V17.9834C4.31667 17.6563 4.18673 17.3426 3.95543 17.1113C3.72414 16.88 3.41043 16.7501 3.08333 16.7501H1.85V3.18343C1.85 2.69278 2.04491 2.22223 2.39185 1.87528C2.73879 1.52834 3.20935 1.33343 3.7 1.33343H24.3941C25.0957 1.33522 25.7825 1.53572 26.3749 1.91169C26.9673 2.28766 27.4411 2.82374 27.7414 3.45785L28.4832 5.03343H26.5167C26.026 5.03343 25.5555 5.22834 25.2085 5.57528C24.8616 5.92223 24.6667 6.39278 24.6667 6.88343V9.3501C24.6667 10.0043 24.9265 10.6317 25.3891 11.0943C25.8517 11.5569 26.4791 11.8168 27.1333 11.8168H31.9433L35.3924 13.2968C35.5028 13.3452 35.5969 13.4245 35.6633 13.5251C35.7297 13.6258 35.7656 13.7435 35.7667 13.8641V16.7501H33.2809C32.7534 16.3518 32.111 16.1354 31.45 16.1334C30.6325 16.1344 29.8489 16.4596 29.2708 17.0376C28.6928 17.6156 28.3676 18.3993 28.3667 19.2168ZM31.45 21.0668C31.0841 21.0668 30.7264 20.9583 30.4222 20.755C30.118 20.5517 29.8808 20.2628 29.7408 19.9247C29.6008 19.5867 29.5642 19.2147 29.6355 18.8559C29.7069 18.497 29.8831 18.1673 30.1419 17.9086C30.4006 17.6499 30.7302 17.4737 31.0891 17.4023C31.4479 17.3309 31.8199 17.3676 32.158 17.5076C32.496 17.6476 32.7849 17.8847 32.9882 18.189C33.1915 18.4932 33.3 18.8509 33.3 19.2168C33.3 19.7074 33.1051 20.178 32.7581 20.5249C32.4112 20.8719 31.9407 21.0668 31.45 21.0668ZM35.15 19.2168H34.5333C34.533 18.7919 34.4439 18.3719 34.2719 17.9834H35.7667V18.6001C35.7667 18.7636 35.7017 18.9205 35.5861 19.0361C35.4704 19.1518 35.3135 19.2168 35.15 19.2168Z" fill="#D60000"/>
<path d="M26.5166 16.7501H13.5666C13.4031 16.7501 13.2462 16.8151 13.1306 16.9307C13.015 17.0464 12.95 17.2032 12.95 17.3668C12.95 17.5303 13.015 17.6872 13.1306 17.8028C13.2462 17.9185 13.4031 17.9835 13.5666 17.9835H26.5166C26.6802 17.9835 26.8371 17.9185 26.9527 17.8028C27.0683 17.6872 27.1333 17.5303 27.1333 17.3668C27.1333 17.2032 27.0683 17.0464 26.9527 16.9307C26.8371 16.8151 26.6802 16.7501 26.5166 16.7501Z" fill="#D60000"/>
</svg>
